<?xml version="1.0" encoding="UTF-8"?>
<!--Generator: Apple Native CoreSVG 175-->
<!DOCTYPE svg
PUBLIC "-//W3C//DTD SVG 1.1//EN"
       "http://www.w3.org/Graphics/SVG/1.1/DTD/svg11.dtd">
<svg version="1.1" xmlns="http://www.w3.org/2000/svg" xmlns:xlink="http://www.w3.org/1999/xlink" width="3300" height="2200">
 <!--glyph: "uni100C0C.medium", point size: 100.0, font version: "17.0d11e1", template writer version: "65.1"-->
 <g id="Notes">
  <rect height="2200" id="artboard" style="fill:white;opacity:1" width="3300" x="0" y="0"/>
  <line style="fill:none;stroke:black;opacity:1;stroke-width:0.5;" x1="263" x2="3036" y1="292" y2="292"/>
  <text style="stroke:none;fill:black;font-family:sans-serif;font-size:13;font-weight:bold;" transform="matrix(1 0 0 1 263 322)">Weight/Scale Variations</text>
  <text style="stroke:none;fill:black;font-family:sans-serif;font-size:13;text-anchor:middle;" transform="matrix(1 0 0 1 559.711 322)">Ultralight</text>
  <text style="stroke:none;fill:black;font-family:sans-serif;font-size:13;text-anchor:middle;" transform="matrix(1 0 0 1 856.422 322)">Thin</text>
  <text style="stroke:none;fill:black;font-family:sans-serif;font-size:13;text-anchor:middle;" transform="matrix(1 0 0 1 1153.13 322)">Light</text>
  <text style="stroke:none;fill:black;font-family:sans-serif;font-size:13;text-anchor:middle;" transform="matrix(1 0 0 1 1449.84 322)">Regular</text>
  <text style="stroke:none;fill:black;font-family:sans-serif;font-size:13;text-anchor:middle;" transform="matrix(1 0 0 1 1746.56 322)">Medium</text>
  <text style="stroke:none;fill:black;font-family:sans-serif;font-size:13;text-anchor:middle;" transform="matrix(1 0 0 1 2043.27 322)">Semibold</text>
  <text style="stroke:none;fill:black;font-family:sans-serif;font-size:13;text-anchor:middle;" transform="matrix(1 0 0 1 2339.98 322)">Bold</text>
  <text style="stroke:none;fill:black;font-family:sans-serif;font-size:13;text-anchor:middle;" transform="matrix(1 0 0 1 2636.69 322)">Heavy</text>
  <text style="stroke:none;fill:black;font-family:sans-serif;font-size:13;text-anchor:middle;" transform="matrix(1 0 0 1 2933.4 322)">Black</text>
  <line style="fill:none;stroke:black;opacity:1;stroke-width:0.5;" x1="263" x2="3036" y1="1903" y2="1903"/>
  <g transform="matrix(1 0 0 1 263 1933)">
   <path d="M9.24805 0.830078Q10.8691 0.830078 12.2949 0.214844Q13.7207-0.400391 14.8096-1.49414Q15.8984-2.58789 16.5186-4.01367Q17.1387-5.43945 17.1387-7.05078Q17.1387-8.66211 16.5186-10.0879Q15.8984-11.5137 14.8047-12.6074Q13.7109-13.7012 12.2852-14.3164Q10.8594-14.9316 9.23828-14.9316Q7.62695-14.9316 6.20117-14.3164Q4.77539-13.7012 3.69141-12.6074Q2.60742-11.5137 1.9873-10.0879Q1.36719-8.66211 1.36719-7.05078Q1.36719-5.43945 1.9873-4.01367Q2.60742-2.58789 3.69629-1.49414Q4.78516-0.400391 6.21094 0.214844Q7.63672 0.830078 9.24805 0.830078ZM9.24805-0.654297Q7.91992-0.654297 6.7627-1.14746Q5.60547-1.64062 4.73145-2.51953Q3.85742-3.39844 3.36426-4.56055Q2.87109-5.72266 2.87109-7.05078Q2.87109-8.37891 3.35938-9.54102Q3.84766-10.7031 4.72168-11.582Q5.5957-12.4609 6.75293-12.9541Q7.91016-13.4473 9.23828-13.4473Q10.5762-13.4473 11.7334-12.9541Q12.8906-12.4609 13.7695-11.582Q14.6484-10.7031 15.1465-9.54102Q15.6445-8.37891 15.6445-7.05078Q15.6445-5.72266 15.1514-4.56055Q14.6582-3.39844 13.7842-2.51953Q12.9102-1.64062 11.748-1.14746Q10.5859-0.654297 9.24805-0.654297ZM5.6543-7.05078Q5.6543-6.72852 5.85938-6.52832Q6.06445-6.32812 6.40625-6.32812L8.51562-6.32812L8.51562-4.20898Q8.51562-3.88672 8.71094-3.67676Q8.90625-3.4668 9.23828-3.4668Q9.56055-3.4668 9.77051-3.67676Q9.98047-3.88672 9.98047-4.20898L9.98047-6.32812L12.0898-6.32812Q12.4219-6.32812 12.627-6.52832Q12.832-6.72852 12.832-7.05078Q12.832-7.38281 12.627-7.58789Q12.4219-7.79297 12.0898-7.79297L9.98047-7.79297L9.98047-9.90234Q9.98047-10.2344 9.77051-10.4443Q9.56055-10.6543 9.23828-10.6543Q8.90625-10.6543 8.71094-10.4443Q8.51562-10.2344 8.51562-9.90234L8.51562-7.79297L6.40625-7.79297Q6.06445-7.79297 5.85938-7.58789Q5.6543-7.38281 5.6543-7.05078Z"/>
  </g>
  <g transform="matrix(1 0 0 1 281.867 1933)">
   <path d="M11.709 2.91016Q13.75 2.91016 15.5518 2.12891Q17.3535 1.34766 18.7305-0.0292969Q20.1074-1.40625 20.8887-3.20801Q21.6699-5.00977 21.6699-7.05078Q21.6699-9.0918 20.8887-10.8936Q20.1074-12.6953 18.7305-14.0723Q17.3535-15.4492 15.5469-16.2305Q13.7402-17.0117 11.6992-17.0117Q9.6582-17.0117 7.85645-16.2305Q6.05469-15.4492 4.68262-14.0723Q3.31055-12.6953 2.5293-10.8936Q1.74805-9.0918 1.74805-7.05078Q1.74805-5.00977 2.5293-3.20801Q3.31055-1.40625 4.6875-0.0292969Q6.06445 1.34766 7.86621 2.12891Q9.66797 2.91016 11.709 2.91016ZM11.709 1.25Q9.98047 1.25 8.47656 0.605469Q6.97266-0.0390625 5.83496-1.17676Q4.69727-2.31445 4.05762-3.81836Q3.41797-5.32227 3.41797-7.05078Q3.41797-8.7793 4.05762-10.2832Q4.69727-11.7871 5.83008-12.9297Q6.96289-14.0723 8.4668-14.7119Q9.9707-15.3516 11.6992-15.3516Q13.4277-15.3516 14.9316-14.7119Q16.4355-14.0723 17.5781-12.9297Q18.7207-11.7871 19.3652-10.2832Q20.0098-8.7793 20.0098-7.05078Q20.0098-5.32227 19.3701-3.81836Q18.7305-2.31445 17.5928-1.17676Q16.4551-0.0390625 14.9463 0.605469Q13.4375 1.25 11.709 1.25ZM7.17773-7.05078Q7.17773-6.69922 7.41211-6.47461Q7.64648-6.25 8.01758-6.25L10.8887-6.25L10.8887-3.36914Q10.8887-2.99805 11.1133-2.76855Q11.3379-2.53906 11.6895-2.53906Q12.0605-2.53906 12.29-2.76855Q12.5195-2.99805 12.5195-3.36914L12.5195-6.25L15.4004-6.25Q15.7715-6.25 16.001-6.47461Q16.2305-6.69922 16.2305-7.05078Q16.2305-7.42188 16.001-7.65137Q15.7715-7.88086 15.4004-7.88086L12.5195-7.88086L12.5195-10.752Q12.5195-11.1328 12.29-11.3623Q12.0605-11.5918 11.6895-11.5918Q11.3379-11.5918 11.1133-11.3574Q10.8887-11.123 10.8887-10.752L10.8887-7.88086L8.01758-7.88086Q7.63672-7.88086 7.40723-7.65137Q7.17773-7.42188 7.17773-7.05078Z"/>
  </g>
  <g transform="matrix(1 0 0 1 305.646 1933)">
   <path d="M14.9707 5.66406Q17.0605 5.66406 18.96 5.01465Q20.8594 4.36523 22.4512 3.19336Q24.043 2.02148 25.2197 0.429688Q26.3965-1.16211 27.0459-3.06641Q27.6953-4.9707 27.6953-7.05078Q27.6953-9.14062 27.0459-11.04Q26.3965-12.9395 25.2197-14.5312Q24.043-16.123 22.4512-17.2998Q20.8594-18.4766 18.9551-19.126Q17.0508-19.7754 14.9609-19.7754Q12.8711-19.7754 10.9717-19.126Q9.07227-18.4766 7.48535-17.2998Q5.89844-16.123 4.72168-14.5312Q3.54492-12.9395 2.90039-11.04Q2.25586-9.14062 2.25586-7.05078Q2.25586-4.9707 2.90527-3.06641Q3.55469-1.16211 4.72656 0.429688Q5.89844 2.02148 7.49023 3.19336Q9.08203 4.36523 10.9814 5.01465Q12.8809 5.66406 14.9707 5.66406ZM14.9707 3.84766Q13.1641 3.84766 11.5283 3.2959Q9.89258 2.74414 8.53516 1.74805Q7.17773 0.751953 6.17676-0.610352Q5.17578-1.97266 4.62891-3.6084Q4.08203-5.24414 4.08203-7.05078Q4.08203-8.86719 4.62891-10.5029Q5.17578-12.1387 6.17188-13.501Q7.16797-14.8633 8.52539-15.8594Q9.88281-16.8555 11.5186-17.4023Q13.1543-17.9492 14.9609-17.9492Q16.7773-17.9492 18.4131-17.4023Q20.0488-16.8555 21.4111-15.8594Q22.7734-14.8633 23.7695-13.501Q24.7656-12.1387 25.3174-10.5029Q25.8691-8.86719 25.8691-7.05078Q25.8789-5.24414 25.332-3.6084Q24.7852-1.97266 23.7842-0.610352Q22.7832 0.751953 21.4209 1.74805Q20.0586 2.74414 18.4229 3.2959Q16.7871 3.84766 14.9707 3.84766ZM9.19922-7.05078Q9.19922-6.66992 9.45801-6.4209Q9.7168-6.17188 10.1172-6.17188L14.0625-6.17188L14.0625-2.2168Q14.0625-1.81641 14.3115-1.55762Q14.5605-1.29883 14.9512-1.29883Q15.3516-1.29883 15.6104-1.55273Q15.8691-1.80664 15.8691-2.2168L15.8691-6.17188L19.8242-6.17188Q20.2246-6.17188 20.4785-6.4209Q20.7324-6.66992 20.7324-7.05078Q20.7324-7.46094 20.4785-7.71484Q20.2246-7.96875 19.8242-7.96875L15.8691-7.96875L15.8691-11.9141Q15.8691-12.3242 15.6104-12.583Q15.3516-12.8418 14.9512-12.8418Q14.5605-12.8418 14.3115-12.583Q14.0625-12.3242 14.0625-11.9141L14.0625-7.96875L10.1172-7.96875Q9.70703-7.96875 9.45312-7.71484Q9.19922-7.46094 9.19922-7.05078Z"/>
  </g>
  <text style="stroke:none;fill:black;font-family:sans-serif;font-size:13;font-weight:bold;" transform="matrix(1 0 0 1 263 1953)">Design Variations</text>
  <text style="stroke:none;fill:black;font-family:sans-serif;font-size:13;" transform="matrix(1 0 0 1 263 1971)">Symbols are supported in up to nine weights and three scales.</text>
  <text style="stroke:none;fill:black;font-family:sans-serif;font-size:13;" transform="matrix(1 0 0 1 263 1989)">For optimal layout with text and other symbols, vertically align</text>
  <text style="stroke:none;fill:black;font-family:sans-serif;font-size:13;" transform="matrix(1 0 0 1 263 2007)">symbols with the adjacent text.</text>
  <line style="fill:none;stroke:#00AEEF;stroke-width:0.5;opacity:1.0;" x1="776" x2="776" y1="1919" y2="1933"/>
  <g transform="matrix(1 0 0 1 776 1933)">
   <path d="M3.31055 0.15625Q3.70117 0.15625 3.91602-0.00976562Q4.13086-0.175781 4.26758-0.585938L5.52734-4.0332L11.2891-4.0332L12.5488-0.585938Q12.6855-0.175781 12.9004-0.00976562Q13.1152 0.15625 13.4961 0.15625Q13.8867 0.15625 14.1162-0.0585938Q14.3457-0.273438 14.3457-0.644531Q14.3457-0.869141 14.2383-1.17188L9.6582-13.3691Q9.48242-13.8184 9.17969-14.043Q8.87695-14.2676 8.4082-14.2676Q7.5-14.2676 7.17773-13.3789L2.59766-1.16211Q2.49023-0.859375 2.49023-0.634766Q2.49023-0.263672 2.70996-0.0537109Q2.92969 0.15625 3.31055 0.15625ZM6.00586-5.51758L8.37891-12.0898L8.42773-12.0898L10.8008-5.51758Z"/>
  </g>
  <line style="fill:none;stroke:#00AEEF;stroke-width:0.5;opacity:1.0;" x1="793.197" x2="793.197" y1="1919" y2="1933"/>
  <text style="stroke:none;fill:black;font-family:sans-serif;font-size:13;font-weight:bold;" transform="matrix(1 0 0 1 776 1953)">Margins</text>
  <text style="stroke:none;fill:black;font-family:sans-serif;font-size:13;" transform="matrix(1 0 0 1 776 1971)">Leading and trailing margins on the left and right side of each symbol</text>
  <text style="stroke:none;fill:black;font-family:sans-serif;font-size:13;" transform="matrix(1 0 0 1 776 1989)">can be adjusted by modifying the x-location of the margin guidelines.</text>
  <text style="stroke:none;fill:black;font-family:sans-serif;font-size:13;" transform="matrix(1 0 0 1 776 2007)">Modifications are automatically applied proportionally to all</text>
  <text style="stroke:none;fill:black;font-family:sans-serif;font-size:13;" transform="matrix(1 0 0 1 776 2025)">scales and weights.</text>
  <g transform="matrix(1 0 0 1 1289 1933)">
   <path d="M2.8418 1.86523L4.54102 3.57422Q5.18555 4.22852 5.90332 4.17969Q6.62109 4.13086 7.31445 3.35938L18.0078-8.42773L17.041-9.4043L6.42578 2.27539Q6.16211 2.57812 5.89355 2.61719Q5.625 2.65625 5.27344 2.30469L4.10156 1.14258Q3.75 0.791016 3.79395 0.522461Q3.83789 0.253906 4.14062-0.0195312L15.6152-10.8203L14.6387-11.7871L3.04688-0.898438Q2.30469-0.214844 2.25098 0.498047Q2.19727 1.21094 2.8418 1.86523ZM9.25781-16.3281Q8.94531-16.0254 8.90625-15.6348Q8.86719-15.2441 9.04297-14.9512Q9.21875-14.6777 9.55566-14.541Q9.89258-14.4043 10.3809-14.5215Q11.4746-14.7754 12.5977-14.7314Q13.7207-14.6875 14.7949-13.9844L14.209-12.5293Q13.9551-11.9043 14.0674-11.4404Q14.1797-10.9766 14.5801-10.5664L16.875-8.25195Q17.2363-7.88086 17.5781-7.82227Q17.9199-7.76367 18.3398-7.8418L19.4043-8.03711L20.0684-7.36328L20.0293-6.80664Q20-6.43555 20.1221-6.12305Q20.2441-5.81055 20.6055-5.44922L21.3672-4.70703Q21.7285-4.3457 22.1533-4.33105Q22.5781-4.31641 22.9297-4.66797L25.8398-7.58789Q26.1914-7.93945 26.1816-8.35449Q26.1719-8.76953 25.8105-9.13086L25.0391-9.89258Q24.6875-10.2539 24.3799-10.3857Q24.0723-10.5176 23.7109-10.4883L23.1348-10.4395L22.4902-11.0742L22.7344-12.1973Q22.832-12.6172 22.6953-12.9834Q22.5586-13.3496 22.1191-13.7891L19.9219-15.9766Q18.6719-17.2168 17.2607-17.8369Q15.8496-18.457 14.4189-18.4814Q12.9883-18.5059 11.665-17.959Q10.3418-17.4121 9.25781-16.3281ZM10.752-15.957Q11.6602-16.6211 12.7002-16.9043Q13.7402-17.1875 14.8047-17.085Q15.8691-16.9824 16.8701-16.5137Q17.8711-16.0449 18.7012-15.2051L21.1328-12.793Q21.3086-12.6172 21.3525-12.4512Q21.3965-12.2852 21.3379-12.0312L21.0156-10.5469L22.5195-9.0625L23.5059-9.12109Q23.6914-9.13086 23.7891-9.09668Q23.8867-9.0625 24.0332-8.91602L24.6094-8.33984L22.168-5.89844L21.5918-6.47461Q21.4453-6.62109 21.4062-6.71875Q21.3672-6.81641 21.377-7.01172L21.4453-7.98828L19.9512-9.47266L18.4277-9.21875Q18.1836-9.16992 18.042-9.2041Q17.9004-9.23828 17.7148-9.41406L15.7129-11.416Q15.5176-11.5918 15.4932-11.7529Q15.4688-11.9141 15.5859-12.1875L16.4648-14.2773Q15.293-15.3711 13.8281-15.791Q12.3633-16.2109 10.8398-15.7617Q10.7227-15.7324 10.6885-15.8057Q10.6543-15.8789 10.752-15.957Z"/>
  </g>
  <text style="stroke:none;fill:black;font-family:sans-serif;font-size:13;font-weight:bold;" transform="matrix(1 0 0 1 1289 1953)">Exporting</text>
  <text style="stroke:none;fill:black;font-family:sans-serif;font-size:13;" transform="matrix(1 0 0 1 1289 1971)">Symbols should be outlined when exporting to ensure the</text>
  <text style="stroke:none;fill:black;font-family:sans-serif;font-size:13;" transform="matrix(1 0 0 1 1289 1989)">design is preserved when submitting to Xcode.</text>
  <text id="template-version" style="stroke:none;fill:black;font-family:sans-serif;font-size:13;text-anchor:end;" transform="matrix(1 0 0 1 3036 1933)">Template v.3.0</text>
  <text style="stroke:none;fill:black;font-family:sans-serif;font-size:13;text-anchor:end;" transform="matrix(1 0 0 1 3036 1951)">Requires Xcode 13 or greater</text>
  <text id="descriptive-name" style="stroke:none;fill:black;font-family:sans-serif;font-size:13;text-anchor:end;" transform="matrix(1 0 0 1 3036 1969)">Generated from arrow.backward</text>
  <text style="stroke:none;fill:black;font-family:sans-serif;font-size:13;text-anchor:end;" transform="matrix(1 0 0 1 3036 1987)">Typeset at 100 points</text>
  <text style="stroke:none;fill:black;font-family:sans-serif;font-size:13;" transform="matrix(1 0 0 1 263 726)">Small</text>
  <text style="stroke:none;fill:black;font-family:sans-serif;font-size:13;" transform="matrix(1 0 0 1 263 1156)">Medium</text>
  <text style="stroke:none;fill:black;font-family:sans-serif;font-size:13;" transform="matrix(1 0 0 1 263 1586)">Large</text>
 </g>
 <g id="Guides">
  <g id="H-reference" style="fill:#27AAE1;stroke:none;" transform="matrix(1 0 0 1 339 696)">
   <path d="M0.976562 0L3.66211 0L29.3457-67.1387L30.0293-67.1387L30.0293-70.459L28.125-70.459ZM11.6699-24.4629L46.9727-24.4629L46.2402-26.709L12.4512-26.709ZM55.127 0L57.7637 0L30.6152-70.459L29.4434-70.459L29.4434-67.1387Z"/>
  </g>
  <line id="Baseline-S" style="fill:none;stroke:#27AAE1;opacity:1;stroke-width:0.5;" x1="263" x2="3036" y1="696" y2="696"/>
  <line id="Capline-S" style="fill:none;stroke:#27AAE1;opacity:1;stroke-width:0.5;" x1="263" x2="3036" y1="625.541" y2="625.541"/>
  <g id="H-reference" style="fill:#27AAE1;stroke:none;" transform="matrix(1 0 0 1 339 1126)">
   <path d="M0.976562 0L3.66211 0L29.3457-67.1387L30.0293-67.1387L30.0293-70.459L28.125-70.459ZM11.6699-24.4629L46.9727-24.4629L46.2402-26.709L12.4512-26.709ZM55.127 0L57.7637 0L30.6152-70.459L29.4434-70.459L29.4434-67.1387Z"/>
  </g>
  <line id="Baseline-M" style="fill:none;stroke:#27AAE1;opacity:1;stroke-width:0.5;" x1="263" x2="3036" y1="1126" y2="1126"/>
  <line id="Capline-M" style="fill:none;stroke:#27AAE1;opacity:1;stroke-width:0.5;" x1="263" x2="3036" y1="1055.54" y2="1055.54"/>
  <g id="H-reference" style="fill:#27AAE1;stroke:none;" transform="matrix(1 0 0 1 339 1556)">
   <path d="M0.976562 0L3.66211 0L29.3457-67.1387L30.0293-67.1387L30.0293-70.459L28.125-70.459ZM11.6699-24.4629L46.9727-24.4629L46.2402-26.709L12.4512-26.709ZM55.127 0L57.7637 0L30.6152-70.459L29.4434-70.459L29.4434-67.1387Z"/>
  </g>
  <line id="Baseline-L" style="fill:none;stroke:#27AAE1;opacity:1;stroke-width:0.5;" x1="263" x2="3036" y1="1556" y2="1556"/>
  <line id="Capline-L" style="fill:none;stroke:#27AAE1;opacity:1;stroke-width:0.5;" x1="263" x2="3036" y1="1485.54" y2="1485.54"/>
  <line id="left-margin-Regular-M" style="fill:none;stroke:#00AEEF;stroke-width:0.5;opacity:1.0;" x1="1392.06" x2="1392.06" y1="1030.79" y2="1150.12"/>
  <line id="right-margin-Regular-M" style="fill:none;stroke:#00AEEF;stroke-width:0.5;opacity:1.0;" x1="1507.63" x2="1507.63" y1="1030.79" y2="1150.12"/>
 </g>
 <g id="Symbols">
  <g id="Black-L" transform="matrix(1 0 0 1 2854.32 1556)">
   <path d="M16.0645-35.5469Q16.0645-30.5176 19.4336-27.1484L59.9121 13.2324Q63.5254 16.748 67.8223 16.748Q72.9004 16.748 76.001 13.6719Q79.1016 10.5957 79.1016 6.00586Q79.1016 3.36914 78.0273 1.36719Q76.9531-0.634766 75.3418-2.19727L62.0605-15.4297L43.0664-32.9102L37.5977-25.5859L64.8926-24.1211L130.078-24.1211Q135.498-24.1211 138.794-27.2705Q142.09-30.4199 142.09-35.5469Q142.09-40.7227 138.794-43.8477Q135.498-46.9727 130.078-46.9727L64.8926-46.9727L37.5977-45.5566L43.0664-38.1836L62.0605-55.7129L75.3418-68.9941Q76.9531-70.5566 78.0273-72.5342Q79.1016-74.5117 79.1016-77.1484Q79.1016-81.7383 76.001-84.8389Q72.9004-87.9395 67.8223-87.9395Q65.7715-87.9395 63.7207-87.0361Q61.6699-86.1328 59.9121-84.375L19.4336-43.9453Q16.0645-40.625 16.0645-35.5469Z"/>
  </g>
  <g id="Heavy-L" transform="matrix(1 0 0 1 2558.69 1556)">
   <path d="M16.0645-35.498Q16.0645-31.1523 19.043-28.2227L59.9121 12.5977Q63.0371 15.625 66.748 15.625Q71.0938 15.625 73.7793 12.9639Q76.4648 10.3027 76.4648 6.34766Q76.4648 4.10156 75.5859 2.34375Q74.707 0.585938 73.291-0.732422L59.1309-14.9414L39.209-33.252L34.7656-27.002L60.1562-25.6348L129.688-25.6348Q134.277-25.6348 137.109-28.3447Q139.941-31.0547 139.941-35.498Q139.941-39.9414 137.109-42.627Q134.277-45.3125 129.688-45.3125L60.1562-45.3125L34.7656-43.9941L39.209-37.6953L59.1309-56.0547L73.291-70.3125Q74.707-71.6309 75.5859-73.3643Q76.4648-75.0977 76.4648-77.3438Q76.4648-81.2988 73.7793-83.9844Q71.0938-86.6699 66.748-86.6699Q64.9902-86.6699 63.208-85.8887Q61.4258-85.1074 59.8633-83.5449L19.043-42.7246Q16.0645-39.8438 16.0645-35.498Z"/>
  </g>
  <g id="Bold-L" transform="matrix(1 0 0 1 2263.15 1556)">
   <path d="M16.0645-35.4004Q16.0645-31.8848 18.5547-29.4434L59.9121 11.9141Q62.5 14.4043 65.5762 14.4043Q69.1406 14.4043 71.3623 12.207Q73.584 10.0098 73.584 6.73828Q73.584 4.93164 72.876 3.4668Q72.168 2.00195 71.0449 0.927734L55.8594-14.3555L34.9609-33.6426L31.6406-28.6133L54.9316-27.3438L129.248-27.3438Q132.959-27.3438 135.278-29.5898Q137.598-31.8359 137.598-35.4004Q137.598-39.0625 135.278-41.2842Q132.959-43.5059 129.248-43.5059L54.9316-43.5059L31.6406-42.2852L34.9609-37.207L55.8594-56.4941L71.0449-71.7773Q72.168-72.9004 72.876-74.3408Q73.584-75.7812 73.584-77.5391Q73.584-80.8594 71.3623-83.0566Q69.1406-85.2539 65.5762-85.2539Q64.1113-85.2539 62.6221-84.5947Q61.1328-83.9355 59.7656-82.6172L18.5547-41.4062Q16.0645-38.9648 16.0645-35.4004Z"/>
  </g>
  <g id="Semibold-L" transform="matrix(1 0 0 1 1967.27 1556)">
   <path d="M16.0645-35.3516Q16.0645-32.373 18.2129-30.2734L59.9121 11.377Q62.1094 13.5254 64.7461 13.5254Q67.7246 13.5254 69.6289 11.6455Q71.5332 9.76562 71.5332 6.98242Q71.5332 5.46875 70.9717 4.22363Q70.4102 2.97852 69.4824 2.05078L53.5645-13.9648L31.9824-33.8867L29.4922-29.6875L51.2695-28.4668L128.906-28.4668Q132.031-28.4668 133.984-30.3955Q135.938-32.3242 135.938-35.3516Q135.938-38.4277 133.984-40.3076Q132.031-42.1875 128.906-42.1875L51.2695-42.1875L29.4922-41.0645L31.9824-36.8164L53.5645-56.7383L69.4824-72.8027Q70.4102-73.7305 70.9717-74.9756Q71.5332-76.2207 71.5332-77.6855Q71.5332-80.5176 69.6289-82.373Q67.7246-84.2285 64.7461-84.2285Q63.4766-84.2285 62.207-83.6914Q60.9375-83.1543 59.7168-81.9336L18.2129-40.4297Q16.0645-38.3301 16.0645-35.3516Z"/>
  </g>
  <g id="Medium-L" transform="matrix(1 0 0 1 1671.19 1556)">
   <path d="M16.0645-35.3027Q16.0645-32.7637 17.9688-30.9082L59.9121 11.0352Q61.8164 12.8418 64.1602 12.8418Q66.6992 12.8418 68.3594 11.2061Q70.0195 9.57031 70.0195 7.17773Q70.0195 5.9082 69.5557 4.80957Q69.0918 3.71094 68.3105 2.88086L51.8555-13.6719L29.7363-34.082L27.832-30.5176L48.5352-29.3457L128.662-29.3457Q131.348-29.3457 133.008-31.0303Q134.668-32.7148 134.668-35.3027Q134.668-37.9395 133.008-39.5996Q131.348-41.2598 128.662-41.2598L48.5352-41.2598L27.832-40.1367L29.7363-36.5234L51.8555-56.9336L68.3105-73.5352Q69.0918-74.3652 69.5557-75.4639Q70.0195-76.5625 70.0195-77.7832Q70.0195-80.2734 68.3594-81.8848Q66.6992-83.4961 64.1602-83.4961Q62.9883-83.4961 61.8896-83.0078Q60.791-82.5195 59.668-81.4453L17.9688-39.7461Q16.0645-37.8418 16.0645-35.3027Z"/>
  </g>
  <g id="Regular-L" transform="matrix(1 0 0 1 1375.28 1556)">
   <path d="M16.0645-35.2539Q16.0645-33.252 17.6758-31.7383L59.9121 10.5469Q61.4258 12.0117 63.3301 12.0117Q65.332 12.0117 66.6748 10.6934Q68.0176 9.375 68.0176 7.42188Q68.0176 6.44531 67.7002 5.54199Q67.3828 4.63867 66.748 4.00391L49.6094-13.2812L26.8066-34.3262L25.6836-31.5918L44.9219-30.5176L128.369-30.5176Q130.42-30.5176 131.738-31.8604Q133.057-33.2031 133.057-35.2539Q133.057-37.3535 131.738-38.6719Q130.42-39.9902 128.369-39.9902L44.9219-39.9902L25.6836-38.9648L26.8066-36.1816L49.6094-57.2266L66.748-74.5605Q67.3828-75.1953 67.7002-76.0986Q68.0176-77.002 68.0176-77.9297Q68.0176-79.9316 66.6748-81.2256Q65.332-82.5195 63.3301-82.5195Q62.4023-82.5195 61.499-82.1289Q60.5957-81.7383 59.6191-80.8105L17.6758-38.8184Q16.0645-37.2559 16.0645-35.2539Z"/>
  </g>
  <g id="Light-L" transform="matrix(1 0 0 1 1078.57 1556)">
   <path d="M16.0645-35.2539Q16.0645-33.7891 17.2363-32.666L59.9609 10.2051Q61.084 11.3281 62.5488 11.3281Q64.0625 11.3281 65.0635 10.3271Q66.0645 9.32617 66.0645 7.86133Q66.0645 7.12891 65.8203 6.44531Q65.5762 5.76172 65.1367 5.27344L43.8477-16.0645L24.0723-34.7168L23.1934-32.4707L40.918-31.7383L129.541-31.7383Q131.055-31.7383 132.056-32.7393Q133.057-33.7402 133.057-35.2539Q133.057-36.8164 132.056-37.8174Q131.055-38.8184 129.541-38.8184L40.918-38.8184L23.1934-38.0859L24.0723-35.791L43.8477-54.4434L65.1367-75.8301Q65.5762-76.3184 65.8203-77.002Q66.0645-77.6855 66.0645-78.418Q66.0645-79.8828 65.0635-80.8594Q64.0625-81.8359 62.5488-81.8359Q61.8164-81.8359 61.084-81.5186Q60.3516-81.2012 59.5215-80.3711L17.2363-37.8906Q16.0645-36.7676 16.0645-35.2539Z"/>
  </g>
  <g id="Thin-L" transform="matrix(1 0 0 1 781.862 1556)">
   <path d="M16.0645-35.2539Q16.0645-34.4238 16.6992-33.8379L60.0586 9.81445Q60.6445 10.4004 61.4746 10.4004Q62.3535 10.4004 62.915 9.83887Q63.4766 9.27734 63.4766 8.49609Q63.4766 8.00781 63.3301 7.61719Q63.1836 7.22656 62.9395 6.98242L36.2305-19.7266L20.4102-35.2051L19.8242-33.5938L35.6445-33.3496L131.104-33.3496Q131.934-33.3496 132.495-33.8867Q133.057-34.4238 133.057-35.2539Q133.057-36.1328 132.495-36.6699Q131.934-37.207 131.104-37.207L35.6445-37.207L19.8242-36.9141L20.4102-35.3027L36.2305-50.7812L62.9395-77.4902Q63.2324-77.832 63.3545-78.1982Q63.4766-78.5645 63.4766-79.0039Q63.4766-79.7852 62.915-80.3711Q62.3535-80.957 61.4746-80.957Q61.0352-80.957 60.5469-80.7129Q60.0586-80.4688 59.375-79.7363L16.6992-36.7188Q16.0645-36.084 16.0645-35.2539Z"/>
  </g>
  <g id="Ultralight-L" transform="matrix(1 0 0 1 485.151 1556)">
   <path d="M16.0645-35.2539Q16.0645-34.8145 16.4062-34.4727L60.1074 9.57031Q60.4492 9.91211 60.9375 9.91211Q61.4746 9.91211 61.8164 9.57031Q62.1582 9.22852 62.1582 8.78906Q62.1582 8.49609 62.0605 8.22754Q61.9629 7.95898 61.8652 7.86133L32.373-21.6309L18.5547-35.4492L18.1641-34.1797L32.9102-34.1309L131.934-34.1309Q132.373-34.1309 132.715-34.4727Q133.057-34.8145 133.057-35.2539Q133.057-35.7422 132.715-36.084Q132.373-36.4258 131.934-36.4258L32.9102-36.4258L18.1641-36.3281L18.5547-35.0586L32.373-48.9258L61.8652-78.3691Q62.0117-78.6133 62.085-78.833Q62.1582-79.0527 62.1582-79.3457Q62.1582-79.7363 61.8164-80.1025Q61.4746-80.4688 60.9375-80.4688Q60.6445-80.4688 60.2783-80.2979Q59.9121-80.127 59.2773-79.4434L16.4062-36.084Q16.0645-35.7422 16.0645-35.2539Z"/>
  </g>
  <g id="Black-M" transform="matrix(1 0 0 1 2871.22 1126)">
   <path d="M12.4512-35.5469Q12.4512-31.2012 15.2832-28.3691L46.4844 2.73438Q49.5117 5.81055 53.1738 5.81055Q57.6172 5.81055 60.2295 3.14941Q62.8418 0.488281 62.8418-3.41797Q62.8418-5.71289 61.9141-7.42188Q60.9863-9.13086 59.6191-10.4492L48.6816-21.2402L35.6934-33.252L30.7129-26.8066L52.9297-25.7324L101.562-25.7324Q106.25-25.7324 109.082-28.418Q111.914-31.1035 111.914-35.5469Q111.914-39.9902 109.082-42.6758Q106.25-45.3613 101.562-45.3613L52.9297-45.3613L30.7129-44.2871L35.6934-37.793L48.6816-49.8535L59.6191-60.6934Q60.9863-62.0117 61.9141-63.7207Q62.8418-65.4297 62.8418-67.7246Q62.8418-71.6309 60.2295-74.292Q57.6172-76.9531 53.1738-76.9531Q51.4648-76.9531 49.707-76.1719Q47.9492-75.3906 46.4844-73.877L15.2832-42.7246Q12.4512-39.8926 12.4512-35.5469Z"/>
  </g>
  <g id="Heavy-M" transform="matrix(1 0 0 1 2575.53 1126)">
   <path d="M12.4512-35.498Q12.4512-31.7383 14.9902-29.1992L46.4844 2.19727Q49.1211 4.83398 52.3438 4.83398Q56.1523 4.83398 58.4473 2.53906Q60.7422 0.244141 60.7422-3.17383Q60.7422-5.12695 59.9365-6.64062Q59.1309-8.1543 57.959-9.27734L47.0215-20.166L32.5684-33.4961L28.5156-28.0273L49.1699-26.9531L100.928-26.9531Q104.932-26.9531 107.397-29.2969Q109.863-31.6406 109.863-35.498Q109.863-39.3066 107.397-41.6504Q104.932-43.9941 100.928-43.9941L49.1699-43.9941L28.5156-42.9688L32.5684-37.4023L47.0215-50.7812L57.959-61.7188Q59.1309-62.8418 59.9365-64.3311Q60.7422-65.8203 60.7422-67.8223Q60.7422-71.2402 58.4473-73.5352Q56.1523-75.8301 52.3438-75.8301Q50.8301-75.8301 49.292-75.1709Q47.7539-74.5117 46.4355-73.1445L14.9902-41.748Q12.4512-39.2578 12.4512-35.498Z"/>
  </g>
  <g id="Bold-M" transform="matrix(1 0 0 1 2279.99 1126)">
   <path d="M12.4512-35.4004Q12.4512-32.3242 14.6484-30.1758L46.4355 1.5625Q48.6816 3.80859 51.3672 3.80859Q54.4922 3.80859 56.4209 1.85547Q58.3496-0.0976562 58.3496-2.92969Q58.3496-4.54102 57.7393-5.78613Q57.1289-7.03125 56.1523-8.00781L45.2148-18.9453L29.0527-33.7891L26.0254-29.3457L45.0195-28.3203L100.195-28.3203Q103.516-28.3203 105.518-30.2734Q107.52-32.2266 107.52-35.4004Q107.52-38.5742 105.518-40.5273Q103.516-42.4805 100.195-42.4805L45.0195-42.4805L26.0254-41.4551L29.0527-37.0117L45.2148-51.8555L56.1523-62.8418Q57.1289-63.8184 57.7393-65.0635Q58.3496-66.3086 58.3496-67.9199Q58.3496-70.752 56.4209-72.6807Q54.4922-74.6094 51.3672-74.6094Q50.0977-74.6094 48.8037-74.0479Q47.5098-73.4863 46.3867-72.3633L14.6484-40.625Q12.4512-38.5254 12.4512-35.4004Z"/>
  </g>
  <g id="Semibold-M" transform="matrix(1 0 0 1 1984.09 1126)">
   <path d="M12.4512-35.3516Q12.4512-32.7148 14.4043-30.8105L46.4355 1.12305Q48.3398 3.02734 50.7324 3.02734Q53.3691 3.02734 55.0537 1.36719Q56.7383-0.292969 56.7383-2.73438Q56.7383-4.10156 56.2256-5.17578Q55.7129-6.25 54.834-7.08008L43.8965-18.1152L26.6113-33.9355L24.3164-30.2734L42.0898-29.248L99.707-29.248Q102.49-29.248 104.199-30.9326Q105.908-32.6172 105.908-35.3516Q105.908-38.0371 104.199-39.7461Q102.49-41.4551 99.707-41.4551L42.0898-41.4551L24.3164-40.4297L26.6113-36.6699L43.8965-52.5879L54.834-63.623Q55.7129-64.4531 56.2256-65.5518Q56.7383-66.6504 56.7383-67.9688Q56.7383-70.4102 55.0537-72.0947Q53.3691-73.7793 50.7324-73.7793Q49.5605-73.7793 48.4619-73.291Q47.3633-72.8027 46.3379-71.7773L14.4043-39.8438Q12.4512-37.9883 12.4512-35.3516Z"/>
  </g>
  <g id="Medium-M" transform="matrix(1 0 0 1 1687.99 1126)">
   <path d="M12.4512-35.3027Q12.4512-33.0078 14.209-31.3477L46.3867 0.830078Q48.0957 2.49023 50.1953 2.49023Q52.4902 2.49023 53.9795 1.02539Q55.4688-0.439453 55.4688-2.63672Q55.4688-3.75977 55.0537-4.71191Q54.6387-5.66406 53.9062-6.39648L42.9688-17.4805L24.7559-34.082L23.0469-30.957L39.8926-29.9805L99.3164-29.9805Q101.709-29.9805 103.198-31.4697Q104.688-32.959 104.688-35.3027Q104.688-37.6465 103.198-39.1357Q101.709-40.625 99.3164-40.625L39.8926-40.625L23.0469-39.6484L24.7559-36.4746L42.9688-53.125L53.9062-64.209Q54.6387-64.9414 55.0537-65.918Q55.4688-66.8945 55.4688-68.0176Q55.4688-70.166 53.9795-71.6309Q52.4902-73.0957 50.1953-73.0957Q49.1699-73.0957 48.1934-72.6807Q47.2168-72.2656 46.3379-71.3379L14.209-39.2578Q12.4512-37.5977 12.4512-35.3027Z"/>
  </g>
  <g id="Regular-M" transform="matrix(1 0 0 1 1392.06 1126)">
   <path d="M12.4512-35.2539Q12.4512-33.3984 13.9648-31.9824L46.3867 0.390625Q47.8027 1.75781 49.5605 1.75781Q51.3672 1.75781 52.6123 0.561523Q53.8574-0.634766 53.8574-2.44141Q53.8574-3.32031 53.54-4.12598Q53.2227-4.93164 52.6367-5.51758L41.6992-16.6504L22.3633-34.2773L21.3379-31.8848L37.0605-30.9082L98.8281-30.9082Q100.732-30.9082 101.929-32.1289Q103.125-33.3496 103.125-35.2539Q103.125-37.1582 101.929-38.3789Q100.732-39.5996 98.8281-39.5996L37.0605-39.5996L21.3379-38.623L22.3633-36.1816L41.6992-53.8574L52.6367-64.9902Q53.2227-65.5762 53.54-66.3818Q53.8574-67.1875 53.8574-68.0664Q53.8574-69.873 52.6123-71.0693Q51.3672-72.2656 49.5605-72.2656Q48.6816-72.2656 47.876-71.9238Q47.0703-71.582 46.2891-70.8008L13.9648-38.5254Q12.4512-37.1094 12.4512-35.2539Z"/>
  </g>
  <g id="Light-M" transform="matrix(1 0 0 1 1095.35 1126)">
   <path d="M12.4512-35.2539Q12.4512-33.8867 13.5742-32.8125L46.4355 0.0976562Q47.5098 1.17188 48.8281 1.17188Q50.1953 1.17188 51.1475 0.244141Q52.0996-0.683594 52.0996-2.05078Q52.0996-2.68555 51.8555-3.32031Q51.6113-3.95508 51.1719-4.39453L36.5723-19.1406L19.873-34.6191L19.0918-32.666L33.4961-31.9824L99.9023-31.9824Q101.318-31.9824 102.222-32.9102Q103.125-33.8379 103.125-35.2539Q103.125-36.6699 102.222-37.5977Q101.318-38.5254 99.9023-38.5254L33.4961-38.5254L19.0918-37.8418L19.873-35.8398L36.5723-51.3672L51.1719-66.1133Q51.6113-66.6016 51.8555-67.2119Q52.0996-67.8223 52.0996-68.457Q52.0996-69.8242 51.1475-70.752Q50.1953-71.6797 48.8281-71.6797Q48.1445-71.6797 47.5098-71.3867Q46.875-71.0938 46.1914-70.4102L13.5742-37.6953Q12.4512-36.6699 12.4512-35.2539Z"/>
  </g>
  <g id="Thin-M" transform="matrix(1 0 0 1 798.634 1126)">
   <path d="M12.4512-35.2539Q12.4512-34.4727 13.0371-33.8867L46.4844-0.244141Q47.1191 0.341797 47.8516 0.341797Q48.6816 0.341797 49.2188-0.195312Q49.7559-0.732422 49.7559-1.51367Q49.7559-1.85547 49.6338-2.24609Q49.5117-2.63672 49.2676-2.88086L29.7363-22.4121L16.6016-35.1074L16.1133-33.6914L28.7598-33.3984L101.27-33.3984Q102.051-33.3984 102.588-33.9111Q103.125-34.4238 103.125-35.2539Q103.125-36.084 102.588-36.5967Q102.051-37.1094 101.27-37.1094L28.7598-37.1094L16.1133-36.8164L16.6016-35.4004L29.7363-48.0957L49.2676-67.627Q49.5117-67.9199 49.6338-68.2861Q49.7559-68.6523 49.7559-68.9941Q49.7559-69.7754 49.2188-70.3125Q48.6816-70.8496 47.8516-70.8496Q47.4609-70.8496 47.0459-70.6543Q46.6309-70.459 46.0449-69.873L13.0371-36.6211Q12.4512-36.0352 12.4512-35.2539Z"/>
  </g>
  <g id="Ultralight-M" transform="matrix(1 0 0 1 501.923 1126)">
   <path d="M12.4512-35.2539Q12.4512-34.8145 12.793-34.4238L46.5332-0.439453Q46.875-0.0488281 47.3633-0.0488281Q47.9004-0.0488281 48.2178-0.415039Q48.5352-0.78125 48.5352-1.2207Q48.5352-1.46484 48.4619-1.7334Q48.3887-2.00195 48.291-2.09961L26.2695-24.1211L14.8926-35.3027L14.5508-34.2285L26.3672-34.1309L102.002-34.1309Q102.441-34.1309 102.783-34.4482Q103.125-34.7656 103.125-35.2539Q103.125-35.7422 102.783-36.0596Q102.441-36.377 102.002-36.377L26.3672-36.377L14.5508-36.2793L14.8926-35.2051L26.2695-46.3867L48.291-68.4082Q48.4375-68.6035 48.4863-68.8232Q48.5352-69.043 48.5352-69.2871Q48.5352-69.7266 48.2178-70.0928Q47.9004-70.459 47.3633-70.459Q47.0703-70.459 46.7773-70.2881Q46.4844-70.1172 45.9473-69.5801L12.793-36.084Q12.4512-35.7422 12.4512-35.2539Z"/>
  </g>
  <g id="Black-S" transform="matrix(1 0 0 1 2884.35 696)">
   <path d="M9.76562-35.498Q9.76562-31.9336 12.0605-29.6387L36.4258-5.32227Q38.916-2.83203 41.8945-2.83203Q45.5078-2.83203 47.6562-5.00488Q49.8047-7.17773 49.8047-10.3516Q49.8047-12.2559 49.0234-13.6475Q48.2422-15.0391 47.1191-16.1133L38.3301-24.7559L28.8086-33.6426L24.6094-28.3203L42.4316-27.4902L79.834-27.4902Q83.6914-27.4902 86.0107-29.6875Q88.3301-31.8848 88.3301-35.498Q88.3301-39.1113 86.0107-41.3086Q83.6914-43.5059 79.834-43.5059L42.4316-43.5059L24.6094-42.6758L28.8086-37.3535L38.3301-46.2402L47.1191-54.9316Q48.2422-56.0547 49.0234-57.4219Q49.8047-58.7891 49.8047-60.6934Q49.8047-63.8672 47.6562-66.04Q45.5078-68.2129 41.8945-68.2129Q38.916-68.2129 36.4258-65.7227L12.0605-41.3574Q9.76562-39.0625 9.76562-35.498Z"/>
  </g>
  <g id="Heavy-S" transform="matrix(1 0 0 1 2588.52 696)">
   <path d="M9.76562-35.4492Q9.76562-32.3242 11.8652-30.2734L36.4258-5.76172Q38.623-3.56445 41.2598-3.56445Q44.3848-3.56445 46.2891-5.46875Q48.1934-7.37305 48.1934-10.2051Q48.1934-11.8652 47.5342-13.0859Q46.875-14.3066 45.8984-15.2832L37.5977-23.5352L26.416-33.7891L22.998-29.248L39.6973-28.3691L79.1504-28.3691Q82.5195-28.3691 84.5459-30.3223Q86.5723-32.2754 86.5723-35.4492Q86.5723-38.623 84.5459-40.5518Q82.5195-42.4805 79.1504-42.4805L39.6973-42.4805L22.998-41.6504L26.416-37.0605L37.5977-47.3633L45.8984-55.6641Q46.875-56.6406 47.5342-57.8613Q48.1934-59.082 48.1934-60.6934Q48.1934-63.5254 46.2891-65.4297Q44.3848-67.334 41.2598-67.334Q38.623-67.334 36.4258-65.1367L11.8652-40.625Q9.76562-38.5742 9.76562-35.4492Z"/>
  </g>
  <g id="Bold-S" transform="matrix(1 0 0 1 2292.81 696)">
   <path d="M9.76562-35.4004Q9.76562-32.7637 11.6211-31.0059L36.377-6.25Q38.2812-4.39453 40.5762-4.39453Q43.1641-4.39453 44.7998-6.03027Q46.4355-7.66602 46.4355-10.0586Q46.4355-11.4258 45.8984-12.4756Q45.3613-13.5254 44.5312-14.3066L36.7676-22.1191L23.7793-33.9844L21.2402-30.2734L36.6211-29.3945L78.3691-29.3945Q81.2012-29.3945 82.8857-31.0547Q84.5703-32.7148 84.5703-35.4004Q84.5703-38.0371 82.8857-39.6973Q81.2012-41.3574 78.3691-41.3574L36.6211-41.3574L21.2402-40.4785L23.7793-36.7676L36.7676-48.6328L44.5312-56.4941Q45.3613-57.2754 45.8984-58.3252Q46.4355-59.375 46.4355-60.7422Q46.4355-63.1348 44.7998-64.7705Q43.1641-66.4062 40.5762-66.4062Q38.2812-66.4062 36.377-64.5508L11.6211-39.7949Q9.76562-37.9883 9.76562-35.4004Z"/>
  </g>
  <g id="Semibold-S" transform="matrix(1 0 0 1 1996.78 696)">
   <path d="M9.76562-35.3516Q9.76562-33.0566 11.4258-31.4941L36.377-6.5918Q38.0371-4.98047 40.0391-4.98047Q42.334-4.98047 43.75-6.39648Q45.166-7.8125 45.166-9.96094Q45.166-11.084 44.751-12.0361Q44.3359-12.9883 43.6035-13.6719L36.1816-21.1426L21.9238-34.1309L19.9707-31.0059L34.5215-30.0781L77.832-30.0781Q80.2734-30.0781 81.7383-31.543Q83.2031-33.0078 83.2031-35.3516Q83.2031-37.6465 81.7383-39.1113Q80.2734-40.5762 77.832-40.5762L34.5215-40.5762L19.9707-39.6973L21.9238-36.5234L36.1816-49.5117L43.6035-57.0312Q44.3359-57.7148 44.751-58.6426Q45.166-59.5703 45.166-60.7422Q45.166-62.8906 43.75-64.3066Q42.334-65.7227 40.0391-65.7227Q38.0371-65.7227 36.377-64.1113L11.4258-39.209Q9.76562-37.5977 9.76562-35.3516Z"/>
  </g>
  <g id="Medium-S" transform="matrix(1 0 0 1 1700.58 696)">
   <path d="M9.76562-35.3027Q9.76562-33.3008 11.2793-31.8359L36.3281-6.83594Q37.8418-5.37109 39.6973-5.37109Q41.6504-5.37109 42.9443-6.66504Q44.2383-7.95898 44.2383-9.86328Q44.2383-10.8398 43.8721-11.6943Q43.5059-12.5488 42.8711-13.1348L35.791-20.4102L20.5078-34.1797L19.043-31.543L32.9102-30.6152L77.4414-30.6152Q79.5898-30.6152 80.8838-31.9336Q82.1777-33.252 82.1777-35.3027Q82.1777-37.3535 80.8838-38.6719Q79.5898-39.9902 77.4414-39.9902L32.9102-39.9902L19.043-39.0625L20.5078-36.3281L35.791-50.1465L42.8711-57.4707Q43.5059-58.0566 43.8721-58.9111Q44.2383-59.7656 44.2383-60.7422Q44.2383-62.6465 42.9443-63.916Q41.6504-65.1855 39.6973-65.1855Q37.8418-65.1855 36.3281-63.7695L11.2793-38.7695Q9.76562-37.3047 9.76562-35.3027Z"/>
  </g>
  <g id="Regular-S" transform="matrix(1 0 0 1 1404.56 696)">
   <path d="M9.76562-35.2539Q9.76562-33.5938 11.1328-32.3242L36.3281-7.17773Q37.5977-5.95703 39.209-5.95703Q40.8203-5.95703 41.9189-7.03125Q43.0176-8.10547 43.0176-9.76562Q43.0176-10.5469 42.749-11.2793Q42.4805-12.0117 41.9434-12.5L35.2051-19.4824L18.7012-34.3262L17.8223-32.2266L30.8105-31.2988L76.9043-31.2988Q78.6621-31.2988 79.7363-32.4219Q80.8105-33.5449 80.8105-35.2539Q80.8105-36.9629 79.7363-38.0859Q78.6621-39.209 76.9043-39.209L30.8105-39.209L17.8223-38.2812L18.7012-36.1328L35.2051-51.0254L41.9434-58.0078Q42.4805-58.4961 42.749-59.2285Q43.0176-59.9609 43.0176-60.7422Q43.0176-62.4023 41.9189-63.4766Q40.8203-64.5508 39.209-64.5508Q37.5977-64.5508 36.3281-63.3301L11.1328-38.1836Q9.76562-36.9141 9.76562-35.2539Z"/>
  </g>
  <g id="Light-S" transform="matrix(1 0 0 1 1107.85 696)">
   <path d="M9.76562-35.2539Q9.76562-33.9844 10.791-33.0566L36.377-7.42188Q37.3535-6.49414 38.5742-6.49414Q39.7949-6.49414 40.625-7.32422Q41.4551-8.1543 41.4551-9.375Q41.4551-10.0098 41.2598-10.5713Q41.0645-11.1328 40.6738-11.5234L30.6152-21.6797L16.5039-34.6191L15.8203-32.9102L27.6367-32.2754L77.832-32.2754Q79.1504-32.2754 79.9805-33.1055Q80.8105-33.9355 80.8105-35.2539Q80.8105-36.5723 79.9805-37.4023Q79.1504-38.2324 77.832-38.2324L27.6367-38.2324L15.8203-37.5977L16.5039-35.8398L30.6152-48.8281L40.6738-58.9844Q41.0645-59.375 41.2598-59.9365Q41.4551-60.498 41.4551-61.1328Q41.4551-62.3535 40.625-63.1836Q39.7949-64.0137 38.5742-64.0137Q37.3047-64.0137 36.2305-62.9395L10.791-37.4512Q9.76562-36.5234 9.76562-35.2539Z"/>
  </g>
  <g id="Thin-S" transform="matrix(1 0 0 1 811.134 696)">
   <path d="M9.76562-35.2539Q9.76562-34.5215 10.3516-33.9844L36.4258-7.76367Q37.0117-7.22656 37.6953-7.22656Q38.4766-7.22656 38.9648-7.71484Q39.4531-8.20312 39.4531-8.88672Q39.4531-9.27734 39.3066-9.61914Q39.1602-9.96094 38.9648-10.1562L24.6094-24.5605L13.623-35.0098L13.1836-33.8379L23.4375-33.4961L79.1016-33.4961Q79.834-33.4961 80.3223-33.9844Q80.8105-34.4727 80.8105-35.2539Q80.8105-36.0352 80.3223-36.5234Q79.834-37.0117 79.1016-37.0117L23.4375-37.0117L13.1836-36.6699L13.623-35.4492L24.6094-45.9473L38.9648-60.3516Q39.209-60.5469 39.3311-60.8887Q39.4531-61.2305 39.4531-61.6211Q39.4531-62.3047 38.9648-62.793Q38.4766-63.2812 37.6953-63.2812Q36.9141-63.2812 36.1328-62.4512L10.3516-36.5234Q9.76562-35.9863 9.76562-35.2539Z"/>
  </g>
  <g id="Ultralight-S" transform="matrix(1 0 0 1 514.423 696)">
   <path d="M9.76562-35.2539Q9.76562-34.8145 10.1562-34.4727L36.4746-7.91016Q36.8164-7.56836 37.2559-7.56836Q37.793-7.56836 38.0859-7.91016Q38.3789-8.25195 38.3789-8.64258Q38.3789-8.93555 38.3057-9.13086Q38.2324-9.32617 38.0859-9.52148L21.4844-26.0742L12.1582-35.2539L11.8164-34.3262L21.2891-34.1797L79.7363-34.1797Q80.1758-34.1797 80.4932-34.4727Q80.8105-34.7656 80.8105-35.2539Q80.8105-35.7422 80.4932-36.0352Q80.1758-36.3281 79.7363-36.3281L21.2891-36.3281L11.8164-36.1816L12.1582-35.2539L21.4844-44.4336L38.0859-60.9863Q38.2812-61.1816 38.3301-61.377Q38.3789-61.5723 38.3789-61.8652Q38.3789-62.2559 38.0859-62.5977Q37.793-62.9395 37.2559-62.9395Q36.6699-62.9395 36.0352-62.207L10.1562-36.0352Q9.76562-35.6934 9.76562-35.2539Z"/>
  </g>
 </g>
</svg>
