<?xml version="1.0" encoding="UTF-8"?>
<!--Generator: Apple Native CoreSVG 175-->
<!DOCTYPE svg
PUBLIC "-//W3C//DTD SVG 1.1//EN"
       "http://www.w3.org/Graphics/SVG/1.1/DTD/svg11.dtd">
<svg version="1.1" xmlns="http://www.w3.org/2000/svg" xmlns:xlink="http://www.w3.org/1999/xlink" width="3300" height="2200">
 <!--glyph: "uni10039E.medium", point size: 100.0, font version: "17.0d11e1", template writer version: "65.1"-->
 <g id="Notes">
  <rect height="2200" id="artboard" style="fill:white;opacity:1" width="3300" x="0" y="0"/>
  <line style="fill:none;stroke:black;opacity:1;stroke-width:0.5;" x1="263" x2="3036" y1="292" y2="292"/>
  <text style="stroke:none;fill:black;font-family:sans-serif;font-size:13;font-weight:bold;" transform="matrix(1 0 0 1 263 322)">Weight/Scale Variations</text>
  <text style="stroke:none;fill:black;font-family:sans-serif;font-size:13;text-anchor:middle;" transform="matrix(1 0 0 1 559.711 322)">Ultralight</text>
  <text style="stroke:none;fill:black;font-family:sans-serif;font-size:13;text-anchor:middle;" transform="matrix(1 0 0 1 856.422 322)">Thin</text>
  <text style="stroke:none;fill:black;font-family:sans-serif;font-size:13;text-anchor:middle;" transform="matrix(1 0 0 1 1153.13 322)">Light</text>
  <text style="stroke:none;fill:black;font-family:sans-serif;font-size:13;text-anchor:middle;" transform="matrix(1 0 0 1 1449.84 322)">Regular</text>
  <text style="stroke:none;fill:black;font-family:sans-serif;font-size:13;text-anchor:middle;" transform="matrix(1 0 0 1 1746.56 322)">Medium</text>
  <text style="stroke:none;fill:black;font-family:sans-serif;font-size:13;text-anchor:middle;" transform="matrix(1 0 0 1 2043.27 322)">Semibold</text>
  <text style="stroke:none;fill:black;font-family:sans-serif;font-size:13;text-anchor:middle;" transform="matrix(1 0 0 1 2339.98 322)">Bold</text>
  <text style="stroke:none;fill:black;font-family:sans-serif;font-size:13;text-anchor:middle;" transform="matrix(1 0 0 1 2636.69 322)">Heavy</text>
  <text style="stroke:none;fill:black;font-family:sans-serif;font-size:13;text-anchor:middle;" transform="matrix(1 0 0 1 2933.4 322)">Black</text>
  <line style="fill:none;stroke:black;opacity:1;stroke-width:0.5;" x1="263" x2="3036" y1="1903" y2="1903"/>
  <g transform="matrix(1 0 0 1 263 1933)">
   <path d="M9.24805 0.830078Q10.8691 0.830078 12.2949 0.214844Q13.7207-0.400391 14.8096-1.49414Q15.8984-2.58789 16.5186-4.01367Q17.1387-5.43945 17.1387-7.05078Q17.1387-8.66211 16.5186-10.0879Q15.8984-11.5137 14.8047-12.6074Q13.7109-13.7012 12.2852-14.3164Q10.8594-14.9316 9.23828-14.9316Q7.62695-14.9316 6.20117-14.3164Q4.77539-13.7012 3.69141-12.6074Q2.60742-11.5137 1.9873-10.0879Q1.36719-8.66211 1.36719-7.05078Q1.36719-5.43945 1.9873-4.01367Q2.60742-2.58789 3.69629-1.49414Q4.78516-0.400391 6.21094 0.214844Q7.63672 0.830078 9.24805 0.830078ZM9.24805-0.654297Q7.91992-0.654297 6.7627-1.14746Q5.60547-1.64062 4.73145-2.51953Q3.85742-3.39844 3.36426-4.56055Q2.87109-5.72266 2.87109-7.05078Q2.87109-8.37891 3.35938-9.54102Q3.84766-10.7031 4.72168-11.582Q5.5957-12.4609 6.75293-12.9541Q7.91016-13.4473 9.23828-13.4473Q10.5762-13.4473 11.7334-12.9541Q12.8906-12.4609 13.7695-11.582Q14.6484-10.7031 15.1465-9.54102Q15.6445-8.37891 15.6445-7.05078Q15.6445-5.72266 15.1514-4.56055Q14.6582-3.39844 13.7842-2.51953Q12.9102-1.64062 11.748-1.14746Q10.5859-0.654297 9.24805-0.654297ZM5.6543-7.05078Q5.6543-6.72852 5.85938-6.52832Q6.06445-6.32812 6.40625-6.32812L8.51562-6.32812L8.51562-4.20898Q8.51562-3.88672 8.71094-3.67676Q8.90625-3.4668 9.23828-3.4668Q9.56055-3.4668 9.77051-3.67676Q9.98047-3.88672 9.98047-4.20898L9.98047-6.32812L12.0898-6.32812Q12.4219-6.32812 12.627-6.52832Q12.832-6.72852 12.832-7.05078Q12.832-7.38281 12.627-7.58789Q12.4219-7.79297 12.0898-7.79297L9.98047-7.79297L9.98047-9.90234Q9.98047-10.2344 9.77051-10.4443Q9.56055-10.6543 9.23828-10.6543Q8.90625-10.6543 8.71094-10.4443Q8.51562-10.2344 8.51562-9.90234L8.51562-7.79297L6.40625-7.79297Q6.06445-7.79297 5.85938-7.58789Q5.6543-7.38281 5.6543-7.05078Z"/>
  </g>
  <g transform="matrix(1 0 0 1 281.867 1933)">
   <path d="M11.709 2.91016Q13.75 2.91016 15.5518 2.12891Q17.3535 1.34766 18.7305-0.0292969Q20.1074-1.40625 20.8887-3.20801Q21.6699-5.00977 21.6699-7.05078Q21.6699-9.0918 20.8887-10.8936Q20.1074-12.6953 18.7305-14.0723Q17.3535-15.4492 15.5469-16.2305Q13.7402-17.0117 11.6992-17.0117Q9.6582-17.0117 7.85645-16.2305Q6.05469-15.4492 4.68262-14.0723Q3.31055-12.6953 2.5293-10.8936Q1.74805-9.0918 1.74805-7.05078Q1.74805-5.00977 2.5293-3.20801Q3.31055-1.40625 4.6875-0.0292969Q6.06445 1.34766 7.86621 2.12891Q9.66797 2.91016 11.709 2.91016ZM11.709 1.25Q9.98047 1.25 8.47656 0.605469Q6.97266-0.0390625 5.83496-1.17676Q4.69727-2.31445 4.05762-3.81836Q3.41797-5.32227 3.41797-7.05078Q3.41797-8.7793 4.05762-10.2832Q4.69727-11.7871 5.83008-12.9297Q6.96289-14.0723 8.4668-14.7119Q9.9707-15.3516 11.6992-15.3516Q13.4277-15.3516 14.9316-14.7119Q16.4355-14.0723 17.5781-12.9297Q18.7207-11.7871 19.3652-10.2832Q20.0098-8.7793 20.0098-7.05078Q20.0098-5.32227 19.3701-3.81836Q18.7305-2.31445 17.5928-1.17676Q16.4551-0.0390625 14.9463 0.605469Q13.4375 1.25 11.709 1.25ZM7.17773-7.05078Q7.17773-6.69922 7.41211-6.47461Q7.64648-6.25 8.01758-6.25L10.8887-6.25L10.8887-3.36914Q10.8887-2.99805 11.1133-2.76855Q11.3379-2.53906 11.6895-2.53906Q12.0605-2.53906 12.29-2.76855Q12.5195-2.99805 12.5195-3.36914L12.5195-6.25L15.4004-6.25Q15.7715-6.25 16.001-6.47461Q16.2305-6.69922 16.2305-7.05078Q16.2305-7.42188 16.001-7.65137Q15.7715-7.88086 15.4004-7.88086L12.5195-7.88086L12.5195-10.752Q12.5195-11.1328 12.29-11.3623Q12.0605-11.5918 11.6895-11.5918Q11.3379-11.5918 11.1133-11.3574Q10.8887-11.123 10.8887-10.752L10.8887-7.88086L8.01758-7.88086Q7.63672-7.88086 7.40723-7.65137Q7.17773-7.42188 7.17773-7.05078Z"/>
  </g>
  <g transform="matrix(1 0 0 1 305.646 1933)">
   <path d="M14.9707 5.66406Q17.0605 5.66406 18.96 5.01465Q20.8594 4.36523 22.4512 3.19336Q24.043 2.02148 25.2197 0.429688Q26.3965-1.16211 27.0459-3.06641Q27.6953-4.9707 27.6953-7.05078Q27.6953-9.14062 27.0459-11.04Q26.3965-12.9395 25.2197-14.5312Q24.043-16.123 22.4512-17.2998Q20.8594-18.4766 18.9551-19.126Q17.0508-19.7754 14.9609-19.7754Q12.8711-19.7754 10.9717-19.126Q9.07227-18.4766 7.48535-17.2998Q5.89844-16.123 4.72168-14.5312Q3.54492-12.9395 2.90039-11.04Q2.25586-9.14062 2.25586-7.05078Q2.25586-4.9707 2.90527-3.06641Q3.55469-1.16211 4.72656 0.429688Q5.89844 2.02148 7.49023 3.19336Q9.08203 4.36523 10.9814 5.01465Q12.8809 5.66406 14.9707 5.66406ZM14.9707 3.84766Q13.1641 3.84766 11.5283 3.2959Q9.89258 2.74414 8.53516 1.74805Q7.17773 0.751953 6.17676-0.610352Q5.17578-1.97266 4.62891-3.6084Q4.08203-5.24414 4.08203-7.05078Q4.08203-8.86719 4.62891-10.5029Q5.17578-12.1387 6.17188-13.501Q7.16797-14.8633 8.52539-15.8594Q9.88281-16.8555 11.5186-17.4023Q13.1543-17.9492 14.9609-17.9492Q16.7773-17.9492 18.4131-17.4023Q20.0488-16.8555 21.4111-15.8594Q22.7734-14.8633 23.7695-13.501Q24.7656-12.1387 25.3174-10.5029Q25.8691-8.86719 25.8691-7.05078Q25.8789-5.24414 25.332-3.6084Q24.7852-1.97266 23.7842-0.610352Q22.7832 0.751953 21.4209 1.74805Q20.0586 2.74414 18.4229 3.2959Q16.7871 3.84766 14.9707 3.84766ZM9.19922-7.05078Q9.19922-6.66992 9.45801-6.4209Q9.7168-6.17188 10.1172-6.17188L14.0625-6.17188L14.0625-2.2168Q14.0625-1.81641 14.3115-1.55762Q14.5605-1.29883 14.9512-1.29883Q15.3516-1.29883 15.6104-1.55273Q15.8691-1.80664 15.8691-2.2168L15.8691-6.17188L19.8242-6.17188Q20.2246-6.17188 20.4785-6.4209Q20.7324-6.66992 20.7324-7.05078Q20.7324-7.46094 20.4785-7.71484Q20.2246-7.96875 19.8242-7.96875L15.8691-7.96875L15.8691-11.9141Q15.8691-12.3242 15.6104-12.583Q15.3516-12.8418 14.9512-12.8418Q14.5605-12.8418 14.3115-12.583Q14.0625-12.3242 14.0625-11.9141L14.0625-7.96875L10.1172-7.96875Q9.70703-7.96875 9.45312-7.71484Q9.19922-7.46094 9.19922-7.05078Z"/>
  </g>
  <text style="stroke:none;fill:black;font-family:sans-serif;font-size:13;font-weight:bold;" transform="matrix(1 0 0 1 263 1953)">Design Variations</text>
  <text style="stroke:none;fill:black;font-family:sans-serif;font-size:13;" transform="matrix(1 0 0 1 263 1971)">Symbols are supported in up to nine weights and three scales.</text>
  <text style="stroke:none;fill:black;font-family:sans-serif;font-size:13;" transform="matrix(1 0 0 1 263 1989)">For optimal layout with text and other symbols, vertically align</text>
  <text style="stroke:none;fill:black;font-family:sans-serif;font-size:13;" transform="matrix(1 0 0 1 263 2007)">symbols with the adjacent text.</text>
  <line style="fill:none;stroke:#00AEEF;stroke-width:0.5;opacity:1.0;" x1="776" x2="776" y1="1919" y2="1933"/>
  <g transform="matrix(1 0 0 1 776 1933)">
   <path d="M3.31055 0.15625Q3.70117 0.15625 3.91602-0.00976562Q4.13086-0.175781 4.26758-0.585938L5.52734-4.0332L11.2891-4.0332L12.5488-0.585938Q12.6855-0.175781 12.9004-0.00976562Q13.1152 0.15625 13.4961 0.15625Q13.8867 0.15625 14.1162-0.0585938Q14.3457-0.273438 14.3457-0.644531Q14.3457-0.869141 14.2383-1.17188L9.6582-13.3691Q9.48242-13.8184 9.17969-14.043Q8.87695-14.2676 8.4082-14.2676Q7.5-14.2676 7.17773-13.3789L2.59766-1.16211Q2.49023-0.859375 2.49023-0.634766Q2.49023-0.263672 2.70996-0.0537109Q2.92969 0.15625 3.31055 0.15625ZM6.00586-5.51758L8.37891-12.0898L8.42773-12.0898L10.8008-5.51758Z"/>
  </g>
  <line style="fill:none;stroke:#00AEEF;stroke-width:0.5;opacity:1.0;" x1="793.197" x2="793.197" y1="1919" y2="1933"/>
  <text style="stroke:none;fill:black;font-family:sans-serif;font-size:13;font-weight:bold;" transform="matrix(1 0 0 1 776 1953)">Margins</text>
  <text style="stroke:none;fill:black;font-family:sans-serif;font-size:13;" transform="matrix(1 0 0 1 776 1971)">Leading and trailing margins on the left and right side of each symbol</text>
  <text style="stroke:none;fill:black;font-family:sans-serif;font-size:13;" transform="matrix(1 0 0 1 776 1989)">can be adjusted by modifying the x-location of the margin guidelines.</text>
  <text style="stroke:none;fill:black;font-family:sans-serif;font-size:13;" transform="matrix(1 0 0 1 776 2007)">Modifications are automatically applied proportionally to all</text>
  <text style="stroke:none;fill:black;font-family:sans-serif;font-size:13;" transform="matrix(1 0 0 1 776 2025)">scales and weights.</text>
  <g transform="matrix(1 0 0 1 1289 1933)">
   <path d="M2.8418 1.86523L4.54102 3.57422Q5.18555 4.22852 5.90332 4.17969Q6.62109 4.13086 7.31445 3.35938L18.0078-8.42773L17.041-9.4043L6.42578 2.27539Q6.16211 2.57812 5.89355 2.61719Q5.625 2.65625 5.27344 2.30469L4.10156 1.14258Q3.75 0.791016 3.79395 0.522461Q3.83789 0.253906 4.14062-0.0195312L15.6152-10.8203L14.6387-11.7871L3.04688-0.898438Q2.30469-0.214844 2.25098 0.498047Q2.19727 1.21094 2.8418 1.86523ZM9.25781-16.3281Q8.94531-16.0254 8.90625-15.6348Q8.86719-15.2441 9.04297-14.9512Q9.21875-14.6777 9.55566-14.541Q9.89258-14.4043 10.3809-14.5215Q11.4746-14.7754 12.5977-14.7314Q13.7207-14.6875 14.7949-13.9844L14.209-12.5293Q13.9551-11.9043 14.0674-11.4404Q14.1797-10.9766 14.5801-10.5664L16.875-8.25195Q17.2363-7.88086 17.5781-7.82227Q17.9199-7.76367 18.3398-7.8418L19.4043-8.03711L20.0684-7.36328L20.0293-6.80664Q20-6.43555 20.1221-6.12305Q20.2441-5.81055 20.6055-5.44922L21.3672-4.70703Q21.7285-4.3457 22.1533-4.33105Q22.5781-4.31641 22.9297-4.66797L25.8398-7.58789Q26.1914-7.93945 26.1816-8.35449Q26.1719-8.76953 25.8105-9.13086L25.0391-9.89258Q24.6875-10.2539 24.3799-10.3857Q24.0723-10.5176 23.7109-10.4883L23.1348-10.4395L22.4902-11.0742L22.7344-12.1973Q22.832-12.6172 22.6953-12.9834Q22.5586-13.3496 22.1191-13.7891L19.9219-15.9766Q18.6719-17.2168 17.2607-17.8369Q15.8496-18.457 14.4189-18.4814Q12.9883-18.5059 11.665-17.959Q10.3418-17.4121 9.25781-16.3281ZM10.752-15.957Q11.6602-16.6211 12.7002-16.9043Q13.7402-17.1875 14.8047-17.085Q15.8691-16.9824 16.8701-16.5137Q17.8711-16.0449 18.7012-15.2051L21.1328-12.793Q21.3086-12.6172 21.3525-12.4512Q21.3965-12.2852 21.3379-12.0312L21.0156-10.5469L22.5195-9.0625L23.5059-9.12109Q23.6914-9.13086 23.7891-9.09668Q23.8867-9.0625 24.0332-8.91602L24.6094-8.33984L22.168-5.89844L21.5918-6.47461Q21.4453-6.62109 21.4062-6.71875Q21.3672-6.81641 21.377-7.01172L21.4453-7.98828L19.9512-9.47266L18.4277-9.21875Q18.1836-9.16992 18.042-9.2041Q17.9004-9.23828 17.7148-9.41406L15.7129-11.416Q15.5176-11.5918 15.4932-11.7529Q15.4688-11.9141 15.5859-12.1875L16.4648-14.2773Q15.293-15.3711 13.8281-15.791Q12.3633-16.2109 10.8398-15.7617Q10.7227-15.7324 10.6885-15.8057Q10.6543-15.8789 10.752-15.957Z"/>
  </g>
  <text style="stroke:none;fill:black;font-family:sans-serif;font-size:13;font-weight:bold;" transform="matrix(1 0 0 1 1289 1953)">Exporting</text>
  <text style="stroke:none;fill:black;font-family:sans-serif;font-size:13;" transform="matrix(1 0 0 1 1289 1971)">Symbols should be outlined when exporting to ensure the</text>
  <text style="stroke:none;fill:black;font-family:sans-serif;font-size:13;" transform="matrix(1 0 0 1 1289 1989)">design is preserved when submitting to Xcode.</text>
  <text id="template-version" style="stroke:none;fill:black;font-family:sans-serif;font-size:13;text-anchor:end;" transform="matrix(1 0 0 1 3036 1933)">Template v.3.0</text>
  <text style="stroke:none;fill:black;font-family:sans-serif;font-size:13;text-anchor:end;" transform="matrix(1 0 0 1 3036 1951)">Requires Xcode 13 or greater</text>
  <text id="descriptive-name" style="stroke:none;fill:black;font-family:sans-serif;font-size:13;text-anchor:end;" transform="matrix(1 0 0 1 3036 1969)">Generated from house</text>
  <text style="stroke:none;fill:black;font-family:sans-serif;font-size:13;text-anchor:end;" transform="matrix(1 0 0 1 3036 1987)">Typeset at 100 points</text>
  <text style="stroke:none;fill:black;font-family:sans-serif;font-size:13;" transform="matrix(1 0 0 1 263 726)">Small</text>
  <text style="stroke:none;fill:black;font-family:sans-serif;font-size:13;" transform="matrix(1 0 0 1 263 1156)">Medium</text>
  <text style="stroke:none;fill:black;font-family:sans-serif;font-size:13;" transform="matrix(1 0 0 1 263 1586)">Large</text>
 </g>
 <g id="Guides">
  <g id="H-reference" style="fill:#27AAE1;stroke:none;" transform="matrix(1 0 0 1 339 696)">
   <path d="M0.976562 0L3.66211 0L29.3457-67.1387L30.0293-67.1387L30.0293-70.459L28.125-70.459ZM11.6699-24.4629L46.9727-24.4629L46.2402-26.709L12.4512-26.709ZM55.127 0L57.7637 0L30.6152-70.459L29.4434-70.459L29.4434-67.1387Z"/>
  </g>
  <line id="Baseline-S" style="fill:none;stroke:#27AAE1;opacity:1;stroke-width:0.5;" x1="263" x2="3036" y1="696" y2="696"/>
  <line id="Capline-S" style="fill:none;stroke:#27AAE1;opacity:1;stroke-width:0.5;" x1="263" x2="3036" y1="625.541" y2="625.541"/>
  <g id="H-reference" style="fill:#27AAE1;stroke:none;" transform="matrix(1 0 0 1 339 1126)">
   <path d="M0.976562 0L3.66211 0L29.3457-67.1387L30.0293-67.1387L30.0293-70.459L28.125-70.459ZM11.6699-24.4629L46.9727-24.4629L46.2402-26.709L12.4512-26.709ZM55.127 0L57.7637 0L30.6152-70.459L29.4434-70.459L29.4434-67.1387Z"/>
  </g>
  <line id="Baseline-M" style="fill:none;stroke:#27AAE1;opacity:1;stroke-width:0.5;" x1="263" x2="3036" y1="1126" y2="1126"/>
  <line id="Capline-M" style="fill:none;stroke:#27AAE1;opacity:1;stroke-width:0.5;" x1="263" x2="3036" y1="1055.54" y2="1055.54"/>
  <g id="H-reference" style="fill:#27AAE1;stroke:none;" transform="matrix(1 0 0 1 339 1556)">
   <path d="M0.976562 0L3.66211 0L29.3457-67.1387L30.0293-67.1387L30.0293-70.459L28.125-70.459ZM11.6699-24.4629L46.9727-24.4629L46.2402-26.709L12.4512-26.709ZM55.127 0L57.7637 0L30.6152-70.459L29.4434-70.459L29.4434-67.1387Z"/>
  </g>
  <line id="Baseline-L" style="fill:none;stroke:#27AAE1;opacity:1;stroke-width:0.5;" x1="263" x2="3036" y1="1556" y2="1556"/>
  <line id="Capline-L" style="fill:none;stroke:#27AAE1;opacity:1;stroke-width:0.5;" x1="263" x2="3036" y1="1485.54" y2="1485.54"/>
  <line id="left-margin-Regular-M" style="fill:none;stroke:#00AEEF;stroke-width:0.5;opacity:1.0;" x1="1379.12" x2="1379.12" y1="1030.79" y2="1150.12"/>
  <line id="right-margin-Regular-M" style="fill:none;stroke:#00AEEF;stroke-width:0.5;opacity:1.0;" x1="1520.57" x2="1520.57" y1="1030.79" y2="1150.12"/>
 </g>
 <g id="Symbols">
  <g id="Black-L" transform="matrix(1 0 0 1 2834.28 1556)">
   <path d="M81.1035 16.6504L117.139 16.6504L117.139-27.4902Q117.139-29.834 115.747-31.2256Q114.355-32.6172 112.012-32.6172L86.3281-32.6172Q83.9844-32.6172 82.5439-31.2256Q81.1035-29.834 81.1035-27.4902ZM56.3965 30.957L141.699 30.957Q150.439 30.957 155.396 26.123Q160.352 21.2891 160.352 13.0371L160.352-57.4219L140.088-71.3379L140.088 5.17578Q140.088 7.76367 138.647 9.22852Q137.207 10.6934 134.57 10.6934L63.5254 10.6934Q60.8887 10.6934 59.4482 9.22852Q58.0078 7.76367 58.0078 5.17578L58.0078-71.3379L37.7441-57.4219L37.7441 13.0371Q37.7441 21.2891 42.7002 26.123Q47.6562 30.957 56.3965 30.957ZM16.0645-43.6523Q16.0645-39.4043 18.8232-36.7188Q21.582-34.0332 26.2207-34.0332Q28.2227-34.0332 30.249-34.9121Q32.2754-35.791 34.0332-37.3047L95.0195-88.4277Q97.0215-90.1367 99.1699-90.1123Q101.318-90.0879 103.369-88.4277L164.258-37.3047Q166.016-35.791 168.042-34.9121Q170.068-34.0332 172.07-34.0332Q176.562-34.0332 179.37-36.6211Q182.178-39.209 182.178-43.5547Q182.178-48.3887 178.125-51.8066L112.402-107.031Q106.445-112.012 99.1943-112.012Q91.9434-112.012 86.0352-107.031L20.166-51.709Q18.2129-50.0977 17.1387-47.9492Q16.0645-45.8008 16.0645-43.6523ZM135.352-81.8359L160.352-61.0352L160.352-95.8984Q160.352-98.2422 158.936-99.6582Q157.52-101.074 155.176-101.074L140.625-101.074Q138.232-101.074 136.792-99.6582Q135.352-98.2422 135.352-95.8984Z"/>
  </g>
  <g id="Heavy-L" transform="matrix(1 0 0 1 2539.81 1556)">
   <path d="M78.8574 17.4316L114.893 17.4316L114.893-27.2461Q114.893-29.541 113.525-30.8838Q112.158-32.2266 109.912-32.2266L83.9355-32.2266Q81.6895-32.2266 80.2734-30.8838Q78.8574-29.541 78.8574-27.2461ZM54.1992 29.6387L139.404 29.6387Q147.607 29.6387 152.222 25.1221Q156.836 20.6055 156.836 12.793L156.836-57.4219L139.307-69.4824L139.307 6.29883Q139.307 9.08203 137.817 10.5957Q136.328 12.1094 133.545 12.1094L60.0586 12.1094Q57.2754 12.1094 55.7861 10.5957Q54.2969 9.08203 54.2969 6.29883L54.2969-69.4336L36.7676-57.4219L36.7676 12.793Q36.7676 20.6055 41.3818 25.1221Q45.9961 29.6387 54.1992 29.6387ZM16.0645-43.8965Q16.0645-40.2344 18.457-37.8906Q20.8496-35.5469 24.9023-35.5469Q26.709-35.5469 28.4668-36.3281Q30.2246-37.1094 31.7871-38.4277L93.2129-89.9414Q95.0195-91.5039 96.9482-91.4795Q98.877-91.4551 100.732-89.9414L162.061-38.4277Q163.574-37.1094 165.356-36.3281Q167.139-35.5469 168.896-35.5469Q172.803-35.5469 175.244-37.793Q177.686-40.0391 177.686-43.7988Q177.686-47.998 174.219-50.9766L108.74-106.006Q103.418-110.449 96.9727-110.449Q90.5273-110.449 85.2539-106.006L19.6289-50.8789Q17.9199-49.4629 16.9922-47.6074Q16.0645-45.752 16.0645-43.8965ZM134.375-79.2969L156.836-60.498L156.836-93.9941Q156.836-96.2402 155.493-97.583Q154.15-98.9258 151.953-98.9258L139.355-98.9258Q137.109-98.9258 135.742-97.583Q134.375-96.2402 134.375-93.9941Z"/>
  </g>
  <g id="Bold-L" transform="matrix(1 0 0 1 2245.59 1556)">
   <path d="M76.416 18.3105L112.354 18.3105L112.354-27.002Q112.354-29.1992 111.06-30.4932Q109.766-31.7871 107.568-31.7871L81.2988-31.7871Q79.1016-31.7871 77.7588-30.4932Q76.416-29.1992 76.416-27.002ZM51.709 28.1738L136.865 28.1738Q144.482 28.1738 148.706 24.0234Q152.93 19.873 152.93 12.5488L152.93-57.4219L138.477-67.3828L138.477 7.56836Q138.477 10.5469 136.914 12.1338Q135.352 13.7207 132.373 13.7207L56.2012 13.7207Q53.2227 13.7207 51.6602 12.1338Q50.0977 10.5469 50.0977 7.56836L50.0977-67.334L35.6445-57.4219L35.6445 12.5488Q35.6445 19.873 39.8926 24.0234Q44.1406 28.1738 51.709 28.1738ZM16.0645-44.1895Q16.0645-41.2109 18.0664-39.2334Q20.0684-37.2559 23.4863-37.2559Q25.0488-37.2559 26.5137-37.9395Q27.9785-38.623 29.248-39.7461L91.2109-91.6504Q92.7734-93.0176 94.458-93.0176Q96.1426-93.0176 97.7539-91.6504L159.57-39.7461Q160.889-38.623 162.354-37.9395Q163.818-37.2559 165.381-37.2559Q168.604-37.2559 170.654-39.0869Q172.705-40.918 172.705-44.043Q172.705-47.6074 169.824-50.0488L104.639-104.883Q100-108.74 94.4824-108.74Q88.9648-108.74 84.375-104.883L18.9941-50Q17.5781-48.8281 16.8213-47.29Q16.0645-45.752 16.0645-44.1895ZM133.252-76.416L152.93-59.9609L152.93-91.8945Q152.93-93.9941 151.685-95.2393Q150.439-96.4844 148.34-96.4844L137.939-96.4844Q135.84-96.4844 134.546-95.2393Q133.252-93.9941 133.252-91.8945Z"/>
  </g>
  <g id="Semibold-L" transform="matrix(1 0 0 1 1950.62 1556)">
   <path d="M74.6582 18.8965L110.596 18.8965L110.596-26.8066Q110.596-28.9551 109.326-30.2246Q108.057-31.4941 105.908-31.4941L79.4434-31.4941Q77.2949-31.4941 75.9766-30.2246Q74.6582-28.9551 74.6582-26.8066ZM50 27.1484L135.107 27.1484Q142.285 27.1484 146.265 23.2422Q150.244 19.3359 150.244 12.3535L150.244-57.4219L137.891-65.918L137.891 8.44727Q137.891 11.5234 136.279 13.1592Q134.668 14.7949 131.592 14.7949L53.5156 14.7949Q50.4395 14.7949 48.8281 13.1592Q47.2168 11.5234 47.2168 8.44727L47.2168-65.8691L34.8633-57.4219L34.8633 12.3535Q34.8633 19.3359 38.8428 23.2422Q42.8223 27.1484 50 27.1484ZM16.0645-44.3359Q16.0645-41.8457 17.7734-40.1123Q19.4824-38.3789 22.4609-38.3789Q23.877-38.3789 25.1221-39.0137Q26.3672-39.6484 27.4902-40.625L89.7949-92.8223Q91.2109-94.043 92.7246-94.0674Q94.2383-94.0918 95.7031-92.8223L157.861-40.625Q158.984-39.6484 160.254-39.0137Q161.523-38.3789 162.939-38.3789Q165.674-38.3789 167.456-39.9658Q169.238-41.5527 169.238-44.2383Q169.238-47.2656 166.797-49.3652L101.758-104.053Q97.6562-107.568 92.7734-107.568Q87.8906-107.568 83.7402-104.053L18.5547-49.3652Q17.334-48.3398 16.6992-47.0215Q16.0645-45.7031 16.0645-44.3359ZM132.471-74.4629L150.244-59.5215L150.244-90.4297Q150.244-92.4316 149.048-93.6279Q147.852-94.8242 145.801-94.8242L136.963-94.8242Q134.961-94.8242 133.716-93.6279Q132.471-92.4316 132.471-90.4297Z"/>
  </g>
  <g id="Medium-L" transform="matrix(1 0 0 1 1655.2 1556)">
   <path d="M73.3887 19.3359L109.277 19.3359L109.277-26.6602Q109.277-28.7598 108.032-30.0049Q106.787-31.25 104.688-31.25L78.0273-31.25Q75.9277-31.25 74.6582-30.0049Q73.3887-28.7598 73.3887-26.6602ZM48.7305 26.3672L133.789 26.3672Q140.625 26.3672 144.409 22.6562Q148.193 18.9453 148.193 12.2559L148.193-57.4219L137.451-64.7949L137.451 9.08203Q137.451 12.3047 135.815 13.9648Q134.18 15.625 130.957 15.625L51.4648 15.625Q48.3398 15.625 46.6797 13.9648Q45.0195 12.3047 45.0195 9.08203L45.0195-64.7949L34.2773-57.4219L34.2773 12.2559Q34.2773 18.9453 38.0615 22.6562Q41.8457 26.3672 48.7305 26.3672ZM16.0645-44.4824Q16.0645-42.3828 17.5537-40.8203Q19.043-39.2578 21.6797-39.2578Q22.998-39.2578 24.0967-39.8438Q25.1953-40.4297 26.1719-41.2598L88.7207-93.7012Q89.9902-94.8242 91.4062-94.8486Q92.8223-94.873 94.1406-93.7012L156.592-41.2598Q157.568-40.4297 158.691-39.8438Q159.814-39.2578 161.084-39.2578Q163.477-39.2578 165.063-40.625Q166.65-41.9922 166.65-44.3359Q166.65-47.0703 164.502-48.877L99.6094-103.467Q95.8984-106.641 91.4795-106.641Q87.0605-106.641 83.252-103.467L18.2617-48.877Q17.1387-47.998 16.6016-46.8506Q16.0645-45.7031 16.0645-44.4824ZM131.885-72.9492L148.193-59.2285L148.193-89.3555Q148.193-91.2598 147.021-92.4072Q145.85-93.5547 143.945-93.5547L136.23-93.5547Q134.326-93.5547 133.105-92.4072Q131.885-91.2598 131.885-89.3555Z"/>
  </g>
  <g id="Regular-L" transform="matrix(1 0 0 1 1360.2 1556)">
   <path d="M71.6797 19.9219L107.568 19.9219L107.568-26.4648Q107.568-28.5156 106.348-29.7363Q105.127-30.957 103.076-30.957L76.2207-30.957Q74.1699-30.957 72.9248-29.7363Q71.6797-28.5156 71.6797-26.4648ZM47.0215 25.3418L132.031 25.3418Q138.477 25.3418 141.992 21.875Q145.508 18.4082 145.508 12.0605L145.508-57.4219L136.865-63.3789L136.865 9.96094Q136.865 13.2812 135.181 14.9902Q133.496 16.6992 130.176 16.6992L48.8281 16.6992Q45.5566 16.6992 43.8721 14.9902Q42.1875 13.2812 42.1875 9.96094L42.1875-63.3301L33.5449-57.4219L33.5449 12.0605Q33.5449 18.4082 37.0605 21.875Q40.5762 25.3418 47.0215 25.3418ZM16.0645-44.6777Q16.0645-43.0176 17.2852-41.7236Q18.5059-40.4297 20.7031-40.4297Q21.8262-40.4297 22.7295-40.9424Q23.6328-41.4551 24.4629-42.1387L87.3535-94.873Q88.4766-95.8496 89.7217-95.8984Q90.9668-95.9473 92.1387-94.873L154.883-42.1387Q155.713-41.4551 156.641-40.9424Q157.568-40.4297 158.691-40.4297Q160.596-40.4297 161.914-41.5283Q163.232-42.627 163.232-44.5312Q163.232-46.7773 161.523-48.2422L96.8262-102.686Q93.5547-105.469 89.7705-105.469Q85.9863-105.469 82.666-102.686L17.8223-48.2422Q16.8945-47.5098 16.4795-46.582Q16.0645-45.6543 16.0645-44.6777ZM131.152-70.9961L145.508-58.8379L145.508-87.8906Q145.508-89.7461 144.409-90.8203Q143.311-91.8945 141.455-91.8945L135.254-91.8945Q133.447-91.8945 132.3-90.8203Q131.152-89.7461 131.152-87.8906Z"/>
  </g>
  <g id="Light-L" transform="matrix(1 0 0 1 1065.68 1556)">
   <path d="M69.8242 20.9961L105.078 20.9961L105.078-26.123Q105.078-27.9785 103.955-29.1016Q102.832-30.2246 100.977-30.2246L73.9258-30.2246Q72.0703-30.2246 70.9473-29.1016Q69.8242-27.9785 69.8242-26.123ZM45.1172 25L129.785 25Q135.791 25 139.038 21.7773Q142.285 18.5547 142.285 12.5977L142.285-56.6895L135.645-61.4258L135.645 11.084Q135.645 14.7461 133.862 16.5527Q132.08 18.3594 128.369 18.3594L46.4844 18.3594Q42.8223 18.3594 41.0156 16.5527Q39.209 14.7461 39.209 11.084L39.209-61.3281L32.6172-56.6895L32.6172 12.5977Q32.6172 18.6035 35.8398 21.8018Q39.0625 25 45.1172 25ZM16.0645-44.9219Q16.0645-43.6523 16.9922-42.6758Q17.9199-41.6992 19.5801-41.6992Q20.4102-41.6992 21.0693-42.0654Q21.7285-42.4316 22.3633-42.9688L84.9609-95.459Q86.1816-96.5332 87.5-96.6064Q88.8184-96.6797 90.1855-95.459L152.588-42.9688Q153.223-42.4316 153.882-42.0654Q154.541-41.6992 155.371-41.6992Q156.836-41.6992 157.837-42.5537Q158.838-43.4082 158.838-44.8242Q158.838-46.5332 157.422-47.7539L93.9453-101.221Q90.9668-103.76 87.5977-103.76Q84.2285-103.76 81.2012-101.221L17.4805-47.7539Q16.748-47.1191 16.4062-46.4111Q16.0645-45.7031 16.0645-44.9219ZM129.98-68.3105L142.285-57.9102L142.285-86.8164Q142.285-88.3301 141.357-89.2334Q140.43-90.1367 138.916-90.1367L133.398-90.1367Q131.885-90.1367 130.933-89.2334Q129.98-88.3301 129.98-86.8164Z"/>
  </g>
  <g id="Thin-L" transform="matrix(1 0 0 1 771.876 1556)">
   <path d="M67.334 22.4121L101.758 22.4121L101.758-25.6348Q101.758-27.2949 100.781-28.2715Q99.8047-29.248 98.1934-29.248L70.8984-29.248Q69.2871-29.248 68.3105-28.2715Q67.334-27.2949 67.334-25.6348ZM42.5781 24.5117L126.807 24.5117Q132.275 24.5117 135.132 21.6553Q137.988 18.7988 137.988 13.3789L137.988-55.7129L134.033-58.7891L134.033 12.5488Q134.033 16.748 132.104 18.6768Q130.176 20.6055 125.977 20.6055L43.3594 20.6055Q39.1602 20.6055 37.2314 18.6768Q35.3027 16.748 35.3027 12.5488L35.3027-58.6426L31.3477-55.7129L31.3477 13.3789Q31.3477 18.8477 34.2041 21.6797Q37.0605 24.5117 42.5781 24.5117ZM16.0645-45.2637Q16.0645-44.4824 16.6016-43.9453Q17.1387-43.4082 18.0664-43.4082Q18.6035-43.4082 18.9209-43.6035Q19.2383-43.7988 19.6289-44.0918L81.7871-96.2402Q83.1543-97.4121 84.5703-97.5342Q85.9863-97.6562 87.5977-96.2402L149.512-44.0918Q149.854-43.7988 150.195-43.6035Q150.537-43.4082 151.025-43.4082Q151.904-43.4082 152.466-43.9209Q153.027-44.4336 153.027-45.2148Q153.027-46.2402 152.051-47.0703L90.1855-99.2188Q87.5977-101.514 84.7412-101.514Q81.8848-101.514 79.1992-99.2188L17.041-47.0703Q16.5039-46.6309 16.2842-46.2158Q16.0645-45.8008 16.0645-45.2637ZM128.418-64.7949L137.988-56.6406L137.988-85.3516Q137.988-86.4746 137.28-87.1338Q136.572-87.793 135.498-87.793L130.908-87.793Q129.834-87.793 129.126-87.1338Q128.418-86.4746 128.418-85.3516Z"/>
  </g>
  <g id="Ultralight-L" transform="matrix(1 0 0 1 476.654 1556)">
   <path d="M66.0645 23.1445L100.098 23.1445L100.098-25.4395Q100.098-26.9043 99.1943-27.8076Q98.291-28.7109 96.7773-28.7109L69.3848-28.7109Q67.8711-28.7109 66.9678-27.8076Q66.0645-26.9043 66.0645-25.4395ZM41.2598 24.3164L125.244 24.3164Q130.469 24.3164 133.13 21.6064Q135.791 18.8965 135.791 13.7207L135.791-55.1758L133.252-57.4707L133.252 13.2812Q133.252 17.7246 131.25 19.7266Q129.248 21.7285 124.756 21.7285L41.748 21.7285Q37.3047 21.7285 35.3027 19.7266Q33.3008 17.7246 33.3008 13.2812L33.3008-57.2754L30.7129-55.1758L30.7129 13.7207Q30.7129 18.9453 33.374 21.6309Q36.0352 24.3164 41.2598 24.3164ZM16.0645-45.4102Q16.0645-44.9219 16.4062-44.6045Q16.748-44.2871 17.2852-44.2871Q17.627-44.2871 17.7979-44.3604Q17.9688-44.4336 18.2129-44.6289L80.1758-96.6309Q81.6406-97.9004 83.0811-98.0469Q84.5215-98.1934 86.2793-96.6309L147.949-44.6289Q148.193-44.4336 148.34-44.3604Q148.486-44.2871 148.779-44.2871Q149.365-44.2871 149.707-44.6289Q150.049-44.9707 150.049-45.459Q150.049-46.0938 149.268-46.7285L88.2324-98.2422Q85.8398-100.342 83.2764-100.342Q80.7129-100.342 78.2227-98.2422L16.8457-46.7285Q16.4062-46.3867 16.2354-46.1182Q16.0645-45.8496 16.0645-45.4102ZM127.588-62.9395L135.791-56.0059L135.791-84.6191Q135.791-85.5469 135.205-86.084Q134.619-86.6211 133.789-86.6211L129.688-86.6211Q128.76-86.6211 128.174-86.084Q127.588-85.5469 127.588-84.6191Z"/>
  </g>
  <g id="Black-M" transform="matrix(1 0 0 1 2855.4 1126)">
   <path d="M64.1113 4.6875L91.8457 4.6875L91.8457-29.2969Q91.8457-31.1035 90.7715-32.2021Q89.6973-33.3008 87.8906-33.3008L68.1641-33.3008Q66.3574-33.3008 65.2344-32.2021Q64.1113-31.1035 64.1113-29.2969ZM44.9219 17.0898L111.035 17.0898Q118.115 17.0898 122.144 13.1592Q126.172 9.22852 126.172 2.58789L126.172-52.1973L108.838-64.1602L108.838-4.54102Q108.838-2.49023 107.715-1.36719Q106.592-0.244141 104.59-0.244141L51.3672-0.244141Q49.3652-0.244141 48.2422-1.36719Q47.1191-2.49023 47.1191-4.54102L47.1191-64.1602L29.7852-52.1973L29.7852 2.58789Q29.7852 9.22852 33.8135 13.1592Q37.8418 17.0898 44.9219 17.0898ZM12.4512-41.6016Q12.4512-37.9395 14.7949-35.6934Q17.1387-33.4473 21.0449-33.4473Q22.7051-33.4473 24.4141-34.1553Q26.123-34.8633 27.5879-36.1328L74.3652-75.3418Q76.1719-76.8555 78.0518-76.8555Q79.9316-76.8555 81.7383-75.3418L128.369-36.1328Q129.883-34.8633 131.592-34.1553Q133.301-33.4473 134.961-33.4473Q138.818-33.4473 141.187-35.6689Q143.555-37.8906 143.555-41.6016Q143.555-45.6543 140.039-48.584L89.2578-91.2598Q84.2285-95.459 78.0518-95.459Q71.875-95.459 66.8457-91.2598L15.9668-48.5352Q12.4512-45.6055 12.4512-41.6016ZM105.371-72.6562L126.172-55.3223L126.172-83.4961Q126.172-85.3027 125.073-86.4014Q123.975-87.5 122.168-87.5L109.424-87.5Q107.568-87.5 106.47-86.4014Q105.371-85.3027 105.371-83.4961Z"/>
  </g>
  <g id="Heavy-M" transform="matrix(1 0 0 1 2560.39 1126)">
   <path d="M62.3535 5.22461L90.1855 5.22461L90.1855-29.1504Q90.1855-30.9082 89.1113-32.0068Q88.0371-33.1055 86.2793-33.1055L66.3086-33.1055Q64.5508-33.1055 63.4521-32.0068Q62.3535-30.9082 62.3535-29.1504ZM43.1641 15.8691L109.277 15.8691Q115.918 15.8691 119.678 12.207Q123.438 8.54492 123.438 2.24609L123.438-52.3438L108.35-62.7441L108.35-3.66211Q108.35-1.5625 107.202-0.390625Q106.055 0.78125 103.955 0.78125L48.4863 0.78125Q46.4355 0.78125 45.2637-0.390625Q44.0918-1.5625 44.0918-3.66211L44.0918-62.7441L29.0039-52.3438L29.0039 2.24609Q29.0039 8.54492 32.7637 12.207Q36.5234 15.8691 43.1641 15.8691ZM12.4512-41.7969Q12.4512-38.623 14.502-36.6455Q16.5527-34.668 20.0195-34.668Q21.5332-34.668 23.0225-35.3027Q24.5117-35.9375 25.8301-37.0605L73.0957-76.709Q74.707-78.0273 76.3428-78.0273Q77.9785-78.0273 79.541-76.709L126.709-37.0605Q128.027-35.9375 129.541-35.3027Q131.055-34.668 132.568-34.668Q135.938-34.668 138.037-36.5967Q140.137-38.5254 140.137-41.748Q140.137-45.3613 137.061-47.9004L86.2793-90.5762Q81.7871-94.3359 76.3184-94.3359Q70.8496-94.3359 66.4062-90.5762L15.5273-47.8516Q12.4512-45.3125 12.4512-41.7969ZM104.639-70.7031L123.438-55.0293L123.438-81.8848Q123.438-83.6426 122.363-84.7168Q121.289-85.791 119.531-85.791L108.594-85.791Q106.787-85.791 105.713-84.7168Q104.639-83.6426 104.639-81.8848Z"/>
  </g>
  <g id="Bold-M" transform="matrix(1 0 0 1 2265.61 1126)">
   <path d="M60.4004 5.81055L88.3301 5.81055L88.3301-29.0039Q88.3301-30.7129 87.2803-31.7871Q86.2305-32.8613 84.5215-32.8613L64.3066-32.8613Q62.5488-32.8613 61.4746-31.7871Q60.4004-30.7129 60.4004-29.0039ZM41.2598 14.502L107.324 14.502Q113.477 14.502 116.943 11.1328Q120.41 7.76367 120.41 1.85547L120.41-52.5391L107.812-61.1816L107.812-2.73438Q107.812-0.488281 106.641 0.708008Q105.469 1.9043 103.271 1.9043L45.3125 1.9043Q43.1152 1.9043 41.9434 0.708008Q40.7715-0.488281 40.7715-2.73438L40.7715-61.1816L28.1738-52.5391L28.1738 1.85547Q28.1738 7.76367 31.6406 11.1328Q35.1074 14.502 41.2598 14.502ZM12.4512-42.041Q12.4512-39.4531 14.1846-37.7197Q15.918-35.9863 18.8477-35.9863Q20.2148-35.9863 21.4844-36.5967Q22.7539-37.207 23.877-38.1348L71.7285-78.2227Q73.0469-79.3457 74.4385-79.3457Q75.8301-79.3457 77.1484-78.2227L124.902-38.1348Q126.025-37.207 127.295-36.5967Q128.564-35.9863 129.932-35.9863Q132.715-35.9863 134.497-37.5977Q136.279-39.209 136.279-41.9434Q136.279-45.0195 133.789-47.1191L82.959-89.7949Q79.1016-93.0664 74.4385-93.0664Q69.7754-93.0664 65.8691-89.7949L14.9902-47.0703Q12.4512-44.9707 12.4512-42.041ZM103.857-68.5547L120.41-54.7363L120.41-80.0781Q120.41-81.7871 119.385-82.8125Q118.359-83.8379 116.65-83.8379L107.666-83.8379Q105.957-83.8379 104.907-82.8125Q103.857-81.7871 103.857-80.0781Z"/>
  </g>
  <g id="Semibold-M" transform="matrix(1 0 0 1 1970.22 1126)">
   <path d="M59.0332 6.20117L87.0605 6.20117L87.0605-28.8574Q87.0605-30.5664 86.0107-31.6162Q84.9609-32.666 83.252-32.666L62.8906-32.666Q61.1328-32.666 60.083-31.6162Q59.0332-30.5664 59.0332-28.8574ZM39.8926 13.5742L105.957 13.5742Q111.768 13.5742 115.015 10.376Q118.262 7.17773 118.262 1.61133L118.262-52.6367L107.422-60.1074L107.422-2.05078Q107.422 0.244141 106.226 1.46484Q105.029 2.68555 102.783 2.68555L43.0664 2.68555Q40.8203 2.68555 39.624 1.46484Q38.4277 0.244141 38.4277-2.05078L38.4277-60.0586L27.5391-52.6367L27.5391 1.61133Q27.5391 7.17773 30.8105 10.376Q34.082 13.5742 39.8926 13.5742ZM12.4512-42.1875Q12.4512-39.9902 13.9648-38.4521Q15.4785-36.9141 18.0664-36.9141Q19.2871-36.9141 20.4102-37.4756Q21.5332-38.0371 22.5098-38.8184L70.752-79.248Q71.875-80.2734 73.0957-80.2734Q74.3164-80.2734 75.4395-79.248L123.584-38.8184Q124.609-38.0371 125.732-37.4756Q126.855-36.9141 128.076-36.9141Q130.469-36.9141 132.056-38.3057Q133.643-39.6973 133.643-42.0898Q133.643-44.7754 131.494-46.5332L80.6641-89.2578Q77.1973-92.1387 73.0957-92.1387Q68.9941-92.1387 65.5273-89.2578L14.6484-46.5332Q12.4512-44.7266 12.4512-42.1875ZM103.32-67.041L118.262-54.4922L118.262-78.8574Q118.262-80.5176 117.261-81.5186Q116.26-82.5195 114.6-82.5195L106.982-82.5195Q105.322-82.5195 104.321-81.5186Q103.32-80.5176 103.32-78.8574Z"/>
  </g>
  <g id="Medium-M" transform="matrix(1 0 0 1 1674.51 1126)">
   <path d="M58.0078 6.49414L86.084 6.49414L86.084-28.7598Q86.084-30.4688 85.0586-31.4941Q84.0332-32.5195 82.3242-32.5195L61.8164-32.5195Q60.0586-32.5195 59.0332-31.4941Q58.0078-30.4688 58.0078-28.7598ZM38.8672 12.8418L104.932 12.8418Q110.498 12.8418 113.599 9.81445Q116.699 6.78711 116.699 1.36719L116.699-52.7344L107.129-59.2773L107.129-1.51367Q107.129 0.78125 105.908 2.02637Q104.688 3.27148 102.441 3.27148L41.4062 3.27148Q39.1113 3.27148 37.8906 2.02637Q36.6699 0.78125 36.6699-1.51367L36.6699-59.2285L27.0996-52.7344L27.0996 1.36719Q27.0996 6.78711 30.2002 9.81445Q33.3008 12.8418 38.8672 12.8418ZM12.4512-42.2852Q12.4512-40.3809 13.7939-38.9893Q15.1367-37.5977 17.4316-37.5977Q18.6035-37.5977 19.6045-38.1348Q20.6055-38.6719 21.4844-39.3555L70.0195-80.0781Q70.9961-80.957 72.0703-80.957Q73.1445-80.957 74.1699-80.0781L122.656-39.3555Q123.535-38.6719 124.536-38.1348Q125.537-37.5977 126.66-37.5977Q128.76-37.5977 130.2-38.8184Q131.641-40.0391 131.641-42.1387Q131.641-44.5801 129.736-46.1426L78.9062-88.8672Q75.7812-91.5039 72.0947-91.5039Q68.4082-91.5039 65.2344-88.8672L14.3555-46.1426Q12.4512-44.5801 12.4512-42.2852ZM102.881-65.918L116.699-54.2969L116.699-77.8809Q116.699-79.541 115.723-80.5176Q114.746-81.4941 113.086-81.4941L106.494-81.4941Q104.883-81.4941 103.882-80.5176Q102.881-79.541 102.881-77.8809Z"/>
  </g>
  <g id="Regular-M" transform="matrix(1 0 0 1 1379.12 1126)">
   <path d="M56.6406 6.88477L84.8145 6.88477L84.8145-28.6621Q84.8145-30.3223 83.7891-31.3477Q82.7637-32.373 81.1035-32.373L60.4004-32.373Q58.6914-32.373 57.666-31.3477Q56.6406-30.3223 56.6406-28.6621ZM37.5488 11.9141L103.613 11.9141Q108.838 11.9141 111.719 9.08203Q114.6 6.25 114.6 1.12305L114.6-52.832L106.738-58.2031L106.738-0.878906Q106.738 1.51367 105.518 2.7832Q104.297 4.05273 101.953 4.05273L39.209 4.05273Q36.8652 4.05273 35.6201 2.7832Q34.375 1.51367 34.375-0.878906L34.375-58.1543L26.5137-52.832L26.5137 1.12305Q26.5137 6.25 29.4189 9.08203Q32.3242 11.9141 37.5488 11.9141ZM12.4512-42.4316Q12.4512-40.918 13.5742-39.7217Q14.6973-38.5254 16.6504-38.5254Q17.6758-38.5254 18.5303-39.0137Q19.3848-39.502 20.166-40.0879L69.043-81.1035Q69.873-81.8359 70.7764-81.8359Q71.6797-81.8359 72.5098-81.1035L121.387-40.0879Q122.119-39.502 122.974-39.0137Q123.828-38.5254 124.854-38.5254Q126.562-38.5254 127.783-39.5264Q129.004-40.5273 129.004-42.2852Q129.004-44.3359 127.49-45.6055L76.6602-88.3301Q73.9258-90.625 70.7764-90.625Q67.627-90.625 64.8926-88.3301L14.0137-45.6055Q12.4512-44.3359 12.4512-42.4316ZM102.344-64.4531L114.6-54.1016L114.6-76.6602Q114.6-78.2715 113.647-79.2236Q112.695-80.1758 111.084-80.1758L105.859-80.1758Q104.297-80.1758 103.32-79.2236Q102.344-78.2715 102.344-76.6602Z"/>
  </g>
  <g id="Light-M" transform="matrix(1 0 0 1 1084.38 1126)">
   <path d="M54.9316 7.86133L82.5684 7.86133L82.5684-28.3203Q82.5684-29.834 81.6406-30.7617Q80.7129-31.6895 79.1992-31.6895L58.3496-31.6895Q56.7871-31.6895 55.8594-30.7617Q54.9316-29.834 54.9316-28.3203ZM35.8398 11.5723L101.562 11.5723Q106.445 11.5723 109.058 8.98438Q111.67 6.39648 111.67 1.61133L111.67-52.1973L105.664-56.3965L105.664 0.0976562Q105.664 2.83203 104.346 4.19922Q103.027 5.56641 100.342 5.56641L37.1094 5.56641Q34.375 5.56641 33.0322 4.19922Q31.6895 2.83203 31.6895 0.0976562L31.6895-56.3477L25.6836-52.1973L25.6836 1.61133Q25.6836 6.39648 28.3203 8.98438Q30.957 11.5723 35.8398 11.5723ZM12.4512-42.627Q12.4512-41.4551 13.3057-40.5762Q14.1602-39.6973 15.6738-39.6973Q16.4551-39.6973 17.0654-40.0391Q17.6758-40.3809 18.3105-40.8203L66.8945-81.6406Q67.8223-82.4219 68.7988-82.4707Q69.7754-82.5195 70.752-81.6406L119.287-40.8203Q119.873-40.3809 120.508-40.0391Q121.143-39.6973 121.924-39.6973Q123.193-39.6973 124.121-40.4541Q125.049-41.2109 125.049-42.5293Q125.049-44.1406 123.828-45.166L74.0723-87.0117Q71.6309-89.1113 68.8477-89.1113Q66.0645-89.1113 63.5742-87.0117L13.7207-45.166Q12.4512-44.1406 12.4512-42.627ZM101.27-62.0605L111.67-53.2715L111.67-75.6836Q111.67-77.002 110.889-77.8076Q110.107-78.6133 108.789-78.6133L104.199-78.6133Q102.881-78.6133 102.075-77.8076Q101.27-77.002 101.27-75.6836Z"/>
  </g>
  <g id="Thin-M" transform="matrix(1 0 0 1 790.26 1126)">
   <path d="M52.6855 9.13086L79.5898 9.13086L79.5898-27.9297Q79.5898-29.248 78.8086-30.0293Q78.0273-30.8105 76.709-30.8105L55.6152-30.8105Q54.2969-30.8105 53.4912-30.0293Q52.6855-29.248 52.6855-27.9297ZM33.5449 11.1816L98.9258 11.1816Q103.271 11.1816 105.566 8.88672Q107.861 6.5918 107.861 2.24609L107.861-51.3184L104.248-54.0527L104.248 1.46484Q104.248 4.58984 102.783 6.0791Q101.318 7.56836 98.1445 7.56836L34.2773 7.56836Q31.1523 7.56836 29.6631 6.0791Q28.1738 4.58984 28.1738 1.46484L28.1738-53.9551L24.5605-51.3184L24.5605 2.24609Q24.5605 6.64062 26.8555 8.91113Q29.1504 11.1816 33.5449 11.1816ZM12.4512-42.9199Q12.4512-42.2363 12.9639-41.7236Q13.4766-41.2109 14.3066-41.2109Q14.7949-41.2109 15.1123-41.3818Q15.4297-41.5527 15.8203-41.8457L64.0625-82.373Q65.0879-83.252 66.1621-83.3252Q67.2363-83.3984 68.4082-82.373L116.553-41.8457Q116.895-41.5527 117.212-41.3818Q117.529-41.2109 118.018-41.2109Q118.799-41.2109 119.336-41.6748Q119.873-42.1387 119.873-42.8711Q119.873-43.8477 118.994-44.5801L70.7031-85.2539Q68.6035-87.0605 66.2842-87.0605Q63.9648-87.0605 61.8164-85.2539L13.3301-44.5801Q12.4512-43.8477 12.4512-42.9199ZM99.9023-58.8867L107.861-52.1484L107.861-74.3652Q107.861-75.3418 107.275-75.9277Q106.689-76.5137 105.762-76.5137L102.002-76.5137Q101.074-76.5137 100.488-75.9277Q99.9023-75.3418 99.9023-74.3652Z"/>
  </g>
  <g id="Ultralight-M" transform="matrix(1 0 0 1 494.892 1126)">
   <path d="M51.5625 9.81445L78.0762 9.81445L78.0762-27.6855Q78.0762-28.9062 77.3438-29.6387Q76.6113-30.3711 75.4395-30.3711L54.248-30.3711Q53.0273-30.3711 52.2949-29.6387Q51.5625-28.9062 51.5625-27.6855ZM32.373 10.9375L97.5098 10.9375Q101.66 10.9375 103.76 8.81348Q105.859 6.68945 105.859 2.58789L105.859-50.8789L103.516-52.832L103.516 2.09961Q103.516 5.51758 101.978 7.05566Q100.439 8.59375 97.0703 8.59375L32.8613 8.59375Q29.4434 8.59375 27.9053 7.05566Q26.3672 5.51758 26.3672 2.09961L26.3672-52.7344L24.0234-50.8789L24.0234 2.58789Q24.0234 6.73828 26.123 8.83789Q28.2227 10.9375 32.373 10.9375ZM12.4512-43.0664Q12.4512-42.5781 12.7686-42.2852Q13.0859-41.9922 13.6719-41.9922Q13.9648-41.9922 14.1357-42.0898Q14.3066-42.1875 14.5508-42.334L62.6465-82.7148Q63.7207-83.6426 64.8438-83.7402Q65.9668-83.8379 67.2363-82.7148L115.137-42.334Q115.332-42.1875 115.527-42.0898Q115.723-41.9922 116.016-41.9922Q116.504-41.9922 116.846-42.3096Q117.188-42.627 117.188-43.0664Q117.188-43.7012 116.504-44.2871L68.9453-84.375Q67.0898-86.0352 64.9902-86.0352Q62.8906-86.0352 60.9375-84.375L13.0859-44.2871Q12.4512-43.7012 12.4512-43.0664ZM99.1699-57.2266L105.859-51.5625L105.859-73.7305Q105.859-74.5117 105.396-74.9756Q104.932-75.4395 104.199-75.4395L100.879-75.4395Q100.098-75.4395 99.6338-74.9756Q99.1699-74.5117 99.1699-73.7305Z"/>
  </g>
  <g id="Black-S" transform="matrix(1 0 0 1 2871.88 696)">
   <path d="M50.6836-4.05273L72.3633-4.05273L72.3633-30.6152Q72.3633-33.7402 69.2383-33.7402L53.8574-33.7402Q52.4414-33.7402 51.5625-32.8857Q50.6836-32.0312 50.6836-30.6152ZM35.6445 6.10352L87.4023 6.10352Q93.0664 6.10352 96.2891 2.9541Q99.5117-0.195312 99.5117-5.46875L99.5117-48.4375L85.3516-58.2031L85.3516-11.377Q85.3516-8.05664 82.0312-8.05664L41.0156-8.05664Q37.6953-8.05664 37.6953-11.377L37.6953-58.2031L23.5352-48.4375L23.5352-5.46875Q23.5352-0.195312 26.7578 2.9541Q29.9805 6.10352 35.6445 6.10352ZM9.76562-40.1855Q9.76562-37.207 11.6943-35.376Q13.623-33.5449 16.748-33.5449Q18.0664-33.5449 19.458-34.1064Q20.8496-34.668 22.0703-35.6934L58.5449-66.2598Q61.5234-68.7988 64.5996-66.2598L100.977-35.6934Q102.197-34.668 103.589-34.1064Q104.98-33.5449 106.299-33.5449Q109.473-33.5449 111.377-35.376Q113.281-37.207 113.281-40.1855Q113.281-43.5059 110.4-45.8984L70.7031-79.248Q66.6016-82.7148 61.5723-82.7148Q56.543-82.7148 52.4414-79.248L12.6465-45.8496Q9.76562-43.457 9.76562-40.1855ZM82.7148-64.9902L99.5117-51.0254L99.5117-73.4863Q99.5117-76.6113 96.3867-76.6113L85.8887-76.6113Q84.4727-76.6113 83.5938-75.7568Q82.7148-74.9023 82.7148-73.4863Z"/>
  </g>
  <g id="Heavy-S" transform="matrix(1 0 0 1 2576.39 696)">
   <path d="M49.4141-3.71094L71.2402-3.71094L71.2402-30.5176Q71.2402-33.6426 68.1152-33.6426L52.5391-33.6426Q51.123-33.6426 50.2686-32.7881Q49.4141-31.9336 49.4141-30.5176ZM34.375 5.07812L86.1816 5.07812Q91.5039 5.07812 94.5312 2.12402Q97.5586-0.830078 97.5586-5.81055L97.5586-48.6328L85.0586-57.2266L85.0586-10.7422Q85.0586-7.37305 81.6895-7.37305L38.8184-7.37305Q35.4492-7.37305 35.4492-10.7422L35.4492-57.2266L22.998-48.6328L22.998-5.81055Q22.998-0.830078 26.0254 2.12402Q29.0527 5.07812 34.375 5.07812ZM9.76562-40.332Q9.76562-37.7441 11.4746-36.084Q13.1836-34.4238 16.0156-34.4238Q17.2363-34.4238 18.4814-34.9609Q19.7266-35.498 20.8008-36.377L57.7148-67.3828Q60.3027-69.5801 62.9395-67.3828L99.8047-36.377Q100.928-35.498 102.173-34.9609Q103.418-34.4238 104.639-34.4238Q107.422-34.4238 109.131-36.0352Q110.84-37.6465 110.84-40.2832Q110.84-43.2617 108.35-45.3613L68.5059-78.8574Q64.7949-81.9336 60.3516-81.9336Q55.9082-81.9336 52.2461-78.8574L12.3047-45.3125Q9.76562-43.2129 9.76562-40.332ZM82.2266-63.623L97.5586-50.8789L97.5586-72.2168Q97.5586-75.3418 94.4336-75.3418L85.4004-75.3418Q83.9844-75.3418 83.1055-74.4873Q82.2266-73.6328 82.2266-72.2168Z"/>
  </g>
  <g id="Bold-S" transform="matrix(1 0 0 1 2281.02 696)">
   <path d="M47.9492-3.36914L69.9707-3.36914L69.9707-30.4199Q69.9707-33.5449 66.8457-33.5449L51.0742-33.5449Q49.707-33.5449 48.8281-32.6904Q47.9492-31.8359 47.9492-30.4199ZM32.959 4.00391L84.8145 4.00391Q89.7461 4.00391 92.5537 1.24512Q95.3613-1.51367 95.3613-6.25L95.3613-48.9258L84.7656-56.1523L84.7656-10.1074Q84.7656-6.64062 81.3477-6.64062L36.377-6.64062Q33.0078-6.64062 33.0078-10.1074L33.0078-56.1523L22.3633-48.9258L22.3633-6.25Q22.3633-1.51367 25.1709 1.24512Q27.9785 4.00391 32.959 4.00391ZM9.76562-40.4785Q9.76562-38.3301 11.2305-36.8652Q12.6953-35.4004 15.1855-35.4004Q16.3086-35.4004 17.3828-35.9131Q18.457-36.4258 19.3848-37.207L56.8359-68.6035Q58.9844-70.4102 61.1328-68.6035L98.5352-37.207Q99.5117-36.4258 100.586-35.9131Q101.66-35.4004 102.783-35.4004Q105.127-35.4004 106.641-36.7676Q108.154-38.1348 108.154-40.4297Q108.154-43.0176 106.055-44.7754L66.0156-78.3691Q62.8418-81.0547 59.0088-81.0547Q55.1758-81.0547 52.002-78.3691L11.9141-44.7266Q9.76562-42.9688 9.76562-40.4785ZM81.7383-62.1582L95.3613-50.7324L95.3613-70.8496Q95.3613-73.9258 92.2852-73.9258L84.8633-73.9258Q83.4473-73.9258 82.5928-73.0713Q81.7383-72.2168 81.7383-70.8496Z"/>
  </g>
  <g id="Semibold-S" transform="matrix(1 0 0 1 1985.26 696)">
   <path d="M46.9727-3.125L69.043-3.125L69.043-30.3711Q69.043-33.4473 65.9668-33.4473L50.0488-33.4473Q48.6816-33.4473 47.8271-32.6172Q46.9727-31.7871 46.9727-30.3711ZM31.9824 3.22266L83.8379 3.22266Q88.5254 3.22266 91.1865 0.610352Q93.8477-2.00195 93.8477-6.49414L93.8477-49.0723L84.5703-55.3711L84.5703-9.61914Q84.5703-6.10352 81.1035-6.10352L34.668-6.10352Q31.25-6.10352 31.25-9.61914L31.25-55.3711L21.9238-49.0723L21.9238-6.49414Q21.9238-1.95312 24.585 0.634766Q27.2461 3.22266 31.9824 3.22266ZM9.76562-40.5762Q9.76562-38.7207 11.0596-37.4023Q12.3535-36.084 14.5996-36.084Q15.625-36.084 16.5771-36.5479Q17.5293-37.0117 18.4082-37.7441L56.2012-69.4336Q58.0078-70.9961 59.8633-69.4336L97.6562-37.7441Q98.4863-37.0117 99.4629-36.5479Q100.439-36.084 101.514-36.084Q103.564-36.084 104.907-37.2559Q106.25-38.4277 106.25-40.4785Q106.25-42.8223 104.443-44.3359L64.3066-78.0273Q61.4258-80.4688 58.0322-80.4688Q54.6387-80.4688 51.8066-78.0273L11.6211-44.3359Q9.76562-42.7734 9.76562-40.5762ZM81.3477-61.084L93.8477-50.5859L93.8477-69.873Q93.8477-72.9004 90.7715-72.9004L84.4727-72.9004Q83.0566-72.9004 82.2021-72.0703Q81.3477-71.2402 81.3477-69.873Z"/>
  </g>
  <g id="Medium-S" transform="matrix(1 0 0 1 1689.26 696)">
   <path d="M46.1914-2.92969L68.4082-2.92969L68.4082-30.2734Q68.4082-33.3984 65.332-33.3984L49.3164-33.3984Q47.9004-33.3984 47.0459-32.5439Q46.1914-31.6895 46.1914-30.2734ZM31.25 2.63672L83.1055 2.63672Q87.5977 2.63672 90.1611 0.146484Q92.7246-2.34375 92.7246-6.68945L92.7246-49.2188L84.375-54.7852L84.375-9.27734Q84.375-5.71289 80.9082-5.71289L33.3984-5.71289Q29.9805-5.71289 29.9805-9.27734L29.9805-54.7852L21.6309-49.2188L21.6309-6.68945Q21.6309-2.29492 24.1699 0.170898Q26.709 2.63672 31.25 2.63672ZM9.76562-40.6738Q9.76562-39.0137 10.9375-37.793Q12.1094-36.5723 14.1602-36.5723Q15.1367-36.5723 16.0156-37.0361Q16.8945-37.5 17.6758-38.1348L55.7617-70.1172Q57.3242-71.4355 58.9355-70.1172L96.9727-38.1348Q97.7539-37.5 98.6328-37.0361Q99.5117-36.5723 100.537-36.5723Q102.344-36.5723 103.589-37.6221Q104.834-38.6719 104.834-40.5273Q104.834-42.6758 103.223-43.9941L63.0371-77.7832Q60.4004-79.9805 57.3242-79.9805Q54.248-79.9805 51.6602-77.7832L11.4258-43.9941Q9.76562-42.6758 9.76562-40.6738ZM81.0547-60.3027L92.7246-50.4883L92.7246-69.1406Q92.7246-72.168 89.6484-72.168L84.1797-72.168Q82.7637-72.168 81.9092-71.3379Q81.0547-70.5078 81.0547-69.1406Z"/>
  </g>
  <g id="Regular-S" transform="matrix(1 0 0 1 1393.47 696)">
   <path d="M45.2148-2.68555L67.5293-2.68555L67.5293-30.2246Q67.5293-33.3008 64.4531-33.3008L48.291-33.3008Q46.9238-33.3008 46.0693-32.4707Q45.2148-31.6406 45.2148-30.2246ZM30.2734 1.85547L82.1777 1.85547Q86.4258 1.85547 88.8184-0.488281Q91.2109-2.83203 91.2109-6.98242L91.2109-49.3652L84.1797-54.0527L84.1797-8.78906Q84.1797-5.17578 80.6641-5.17578L31.7383-5.17578Q28.2715-5.17578 28.2715-8.78906L28.2715-54.0527L21.1914-49.3652L21.1914-6.98242Q21.1914-2.7832 23.584-0.463867Q25.9766 1.85547 30.2734 1.85547ZM9.76562-40.7715Q9.76562-39.4043 10.7666-38.3301Q11.7676-37.2559 13.5742-37.2559Q14.502-37.2559 15.2588-37.6953Q16.0156-38.1348 16.6992-38.6719L55.127-70.9473Q56.3965-72.0215 57.666-70.9473L96.0938-38.6719Q96.7773-38.1348 97.5586-37.6953Q98.3398-37.2559 99.2676-37.2559Q100.781-37.2559 101.88-38.1348Q102.979-39.0137 102.979-40.625Q102.979-42.4805 101.66-43.6035L61.3281-77.4902Q59.0332-79.3945 56.3965-79.3945Q53.7598-79.3945 51.5137-77.4902L11.1328-43.6035Q9.76562-42.4805 9.76562-40.7715ZM80.7129-59.2773L91.2109-50.3906L91.2109-68.1641Q91.2109-71.1914 88.1836-71.1914L83.7891-71.1914Q82.373-71.1914 81.543-70.3613Q80.7129-69.5312 80.7129-68.1641Z"/>
  </g>
  <g id="Light-S" transform="matrix(1 0 0 1 1098.49 696)">
   <path d="M43.7012-1.85547L65.5273-1.85547L65.5273-29.9316Q65.5273-32.7148 62.793-32.7148L46.4844-32.7148Q45.2637-32.7148 44.4824-31.958Q43.7012-31.2012 43.7012-29.9316ZM28.7598 1.5625L80.3711 1.5625Q84.3262 1.5625 86.4746-0.561523Q88.623-2.68555 88.623-6.54297L88.623-48.7793L83.2031-52.4902L83.2031-7.91016Q83.2031-3.85742 79.248-3.85742L29.8828-3.85742Q25.9277-3.85742 25.9277-7.91016L25.9277-52.4414L20.459-48.7793L20.459-6.54297Q20.459-2.63672 22.6318-0.537109Q24.8047 1.5625 28.7598 1.5625ZM9.76562-40.9668Q9.76562-39.8926 10.5225-39.0869Q11.2793-38.2812 12.6953-38.2812Q13.3789-38.2812 13.9404-38.5986Q14.502-38.916 15.0391-39.3555L53.2227-71.4355Q54.6875-72.6562 56.1035-71.4355L94.2383-39.3555Q94.7754-38.916 95.3613-38.5986Q95.9473-38.2812 96.6309-38.2812Q97.8516-38.2812 98.6816-38.9648Q99.5117-39.6484 99.5117-40.8691Q99.5117-42.2852 98.4375-43.2129L59.082-76.3184Q56.9824-78.0273 54.6631-78.0273Q52.3438-78.0273 50.3418-76.3184L10.8887-43.2129Q9.76562-42.2852 9.76562-40.9668ZM79.7852-57.1777L88.623-49.6582L88.623-67.2852Q88.623-69.7754 86.1328-69.7754L82.3242-69.7754Q81.1523-69.7754 80.4688-69.0918Q79.7852-68.4082 79.7852-67.2852Z"/>
  </g>
  <g id="Thin-S" transform="matrix(1 0 0 1 804.103 696)">
   <path d="M41.748-0.732422L62.9395-0.732422L62.9395-29.5898Q62.9395-31.9336 60.5957-31.9336L44.0918-31.9336Q43.0176-31.9336 42.3828-31.2988Q41.748-30.6641 41.748-29.5898ZM26.709 1.2207L77.9785 1.2207Q81.543 1.2207 83.3984-0.65918Q85.2539-2.53906 85.2539-5.95703L85.2539-47.998L81.9824-50.4395L81.9824-6.73828Q81.9824-2.09961 77.3438-2.09961L27.3926-2.09961Q22.8027-2.09961 22.8027-6.73828L22.8027-50.3418L19.4824-47.998L19.4824-5.95703Q19.4824-2.49023 21.3379-0.634766Q23.1934 1.2207 26.709 1.2207ZM9.76562-41.2109Q9.76562-40.5762 10.2295-40.0879Q10.6934-39.5996 11.5234-39.5996Q11.9141-39.5996 12.2314-39.7705Q12.5488-39.9414 12.8906-40.2344L50.7324-72.0215Q52.3926-73.4863 54.1016-72.0215L91.7969-40.2344Q92.1387-39.9414 92.4561-39.7705Q92.7734-39.5996 93.1641-39.5996Q93.9453-39.5996 94.4092-40.0391Q94.873-40.4785 94.873-41.1621Q94.873-42.041 94.1406-42.6758L56.0547-74.7559Q54.3457-76.2207 52.4414-76.2207Q50.5371-76.2207 48.7793-74.7559L10.5469-42.6758Q9.76562-42.041 9.76562-41.2109ZM78.5156-54.3457L85.2539-48.6816L85.2539-66.1621Q85.2539-67.9688 83.4473-67.9688L80.3223-67.9688Q79.541-67.9688 79.0283-67.4561Q78.5156-66.9434 78.5156-66.1621Z"/>
  </g>
  <g id="Ultralight-S" transform="matrix(1 0 0 1 508.564 696)">
   <path d="M40.7227-0.146484L61.5723-0.146484L61.5723-29.3945Q61.5723-31.543 59.4727-31.543L42.8223-31.543Q41.8945-31.543 41.3086-30.957Q40.7227-30.3711 40.7227-29.3945ZM25.6836 1.02539L76.7578 1.02539Q80.127 1.02539 81.8115-0.708008Q83.4961-2.44141 83.4961-5.66406L83.4961-47.6074L81.2988-49.3652L81.2988-6.15234Q81.2988-1.17188 76.3672-1.17188L26.123-1.17188Q21.1914-1.17188 21.1914-6.15234L21.1914-49.2676L18.9453-47.6074L18.9453-5.66406Q18.9453-2.39258 20.6787-0.683594Q22.4121 1.02539 25.6836 1.02539ZM9.76562-41.3086Q9.76562-40.918 10.0586-40.6006Q10.3516-40.2832 10.8887-40.2832Q11.1816-40.2832 11.3525-40.3809Q11.5234-40.4785 11.7676-40.6738L49.4629-72.3633Q51.2207-73.877 53.0273-72.3633L90.5762-40.6738Q90.7715-40.4785 90.9424-40.3809Q91.1133-40.2832 91.4062-40.2832Q91.9434-40.2832 92.2363-40.5762Q92.5293-40.8691 92.5293-41.3086Q92.5293-41.8945 91.9434-42.3828L54.541-73.9258Q52.9297-75.293 51.2451-75.293Q49.5605-75.293 47.9492-73.9258L10.3516-42.3828Q9.76562-41.8945 9.76562-41.3086ZM77.8809-52.9297L83.4961-48.1445L83.4961-65.5762Q83.4961-66.9922 82.0312-66.9922L79.3457-66.9922Q78.7109-66.9922 78.2959-66.6016Q77.8809-66.2109 77.8809-65.5762Z"/>
  </g>
 </g>
</svg>
