<?xml version="1.0" encoding="UTF-8"?>
<!--Generator: Apple Native CoreSVG 175-->
<!DOCTYPE svg
PUBLIC "-//W3C//DTD SVG 1.1//EN"
       "http://www.w3.org/Graphics/SVG/1.1/DTD/svg11.dtd">
<svg version="1.1" xmlns="http://www.w3.org/2000/svg" xmlns:xlink="http://www.w3.org/1999/xlink" width="3300" height="2200">
 <!--glyph: "uni100184.medium", point size: 100.0, font version: "17.0d11e1", template writer version: "65.1"-->
 <g id="Notes">
  <rect height="2200" id="artboard" style="fill:white;opacity:1" width="3300" x="0" y="0"/>
  <line style="fill:none;stroke:black;opacity:1;stroke-width:0.5;" x1="263" x2="3036" y1="292" y2="292"/>
  <text style="stroke:none;fill:black;font-family:sans-serif;font-size:13;font-weight:bold;" transform="matrix(1 0 0 1 263 322)">Weight/Scale Variations</text>
  <text style="stroke:none;fill:black;font-family:sans-serif;font-size:13;text-anchor:middle;" transform="matrix(1 0 0 1 559.711 322)">Ultralight</text>
  <text style="stroke:none;fill:black;font-family:sans-serif;font-size:13;text-anchor:middle;" transform="matrix(1 0 0 1 856.422 322)">Thin</text>
  <text style="stroke:none;fill:black;font-family:sans-serif;font-size:13;text-anchor:middle;" transform="matrix(1 0 0 1 1153.13 322)">Light</text>
  <text style="stroke:none;fill:black;font-family:sans-serif;font-size:13;text-anchor:middle;" transform="matrix(1 0 0 1 1449.84 322)">Regular</text>
  <text style="stroke:none;fill:black;font-family:sans-serif;font-size:13;text-anchor:middle;" transform="matrix(1 0 0 1 1746.56 322)">Medium</text>
  <text style="stroke:none;fill:black;font-family:sans-serif;font-size:13;text-anchor:middle;" transform="matrix(1 0 0 1 2043.27 322)">Semibold</text>
  <text style="stroke:none;fill:black;font-family:sans-serif;font-size:13;text-anchor:middle;" transform="matrix(1 0 0 1 2339.98 322)">Bold</text>
  <text style="stroke:none;fill:black;font-family:sans-serif;font-size:13;text-anchor:middle;" transform="matrix(1 0 0 1 2636.69 322)">Heavy</text>
  <text style="stroke:none;fill:black;font-family:sans-serif;font-size:13;text-anchor:middle;" transform="matrix(1 0 0 1 2933.4 322)">Black</text>
  <line style="fill:none;stroke:black;opacity:1;stroke-width:0.5;" x1="263" x2="3036" y1="1903" y2="1903"/>
  <g transform="matrix(1 0 0 1 263 1933)">
   <path d="M9.24805 0.830078Q10.8691 0.830078 12.2949 0.214844Q13.7207-0.400391 14.8096-1.49414Q15.8984-2.58789 16.5186-4.01367Q17.1387-5.43945 17.1387-7.05078Q17.1387-8.66211 16.5186-10.0879Q15.8984-11.5137 14.8047-12.6074Q13.7109-13.7012 12.2852-14.3164Q10.8594-14.9316 9.23828-14.9316Q7.62695-14.9316 6.20117-14.3164Q4.77539-13.7012 3.69141-12.6074Q2.60742-11.5137 1.9873-10.0879Q1.36719-8.66211 1.36719-7.05078Q1.36719-5.43945 1.9873-4.01367Q2.60742-2.58789 3.69629-1.49414Q4.78516-0.400391 6.21094 0.214844Q7.63672 0.830078 9.24805 0.830078ZM9.24805-0.654297Q7.91992-0.654297 6.7627-1.14746Q5.60547-1.64062 4.73145-2.51953Q3.85742-3.39844 3.36426-4.56055Q2.87109-5.72266 2.87109-7.05078Q2.87109-8.37891 3.35938-9.54102Q3.84766-10.7031 4.72168-11.582Q5.5957-12.4609 6.75293-12.9541Q7.91016-13.4473 9.23828-13.4473Q10.5762-13.4473 11.7334-12.9541Q12.8906-12.4609 13.7695-11.582Q14.6484-10.7031 15.1465-9.54102Q15.6445-8.37891 15.6445-7.05078Q15.6445-5.72266 15.1514-4.56055Q14.6582-3.39844 13.7842-2.51953Q12.9102-1.64062 11.748-1.14746Q10.5859-0.654297 9.24805-0.654297ZM5.6543-7.05078Q5.6543-6.72852 5.85938-6.52832Q6.06445-6.32812 6.40625-6.32812L8.51562-6.32812L8.51562-4.20898Q8.51562-3.88672 8.71094-3.67676Q8.90625-3.4668 9.23828-3.4668Q9.56055-3.4668 9.77051-3.67676Q9.98047-3.88672 9.98047-4.20898L9.98047-6.32812L12.0898-6.32812Q12.4219-6.32812 12.627-6.52832Q12.832-6.72852 12.832-7.05078Q12.832-7.38281 12.627-7.58789Q12.4219-7.79297 12.0898-7.79297L9.98047-7.79297L9.98047-9.90234Q9.98047-10.2344 9.77051-10.4443Q9.56055-10.6543 9.23828-10.6543Q8.90625-10.6543 8.71094-10.4443Q8.51562-10.2344 8.51562-9.90234L8.51562-7.79297L6.40625-7.79297Q6.06445-7.79297 5.85938-7.58789Q5.6543-7.38281 5.6543-7.05078Z"/>
  </g>
  <g transform="matrix(1 0 0 1 281.867 1933)">
   <path d="M11.709 2.91016Q13.75 2.91016 15.5518 2.12891Q17.3535 1.34766 18.7305-0.0292969Q20.1074-1.40625 20.8887-3.20801Q21.6699-5.00977 21.6699-7.05078Q21.6699-9.0918 20.8887-10.8936Q20.1074-12.6953 18.7305-14.0723Q17.3535-15.4492 15.5469-16.2305Q13.7402-17.0117 11.6992-17.0117Q9.6582-17.0117 7.85645-16.2305Q6.05469-15.4492 4.68262-14.0723Q3.31055-12.6953 2.5293-10.8936Q1.74805-9.0918 1.74805-7.05078Q1.74805-5.00977 2.5293-3.20801Q3.31055-1.40625 4.6875-0.0292969Q6.06445 1.34766 7.86621 2.12891Q9.66797 2.91016 11.709 2.91016ZM11.709 1.25Q9.98047 1.25 8.47656 0.605469Q6.97266-0.0390625 5.83496-1.17676Q4.69727-2.31445 4.05762-3.81836Q3.41797-5.32227 3.41797-7.05078Q3.41797-8.7793 4.05762-10.2832Q4.69727-11.7871 5.83008-12.9297Q6.96289-14.0723 8.4668-14.7119Q9.9707-15.3516 11.6992-15.3516Q13.4277-15.3516 14.9316-14.7119Q16.4355-14.0723 17.5781-12.9297Q18.7207-11.7871 19.3652-10.2832Q20.0098-8.7793 20.0098-7.05078Q20.0098-5.32227 19.3701-3.81836Q18.7305-2.31445 17.5928-1.17676Q16.4551-0.0390625 14.9463 0.605469Q13.4375 1.25 11.709 1.25ZM7.17773-7.05078Q7.17773-6.69922 7.41211-6.47461Q7.64648-6.25 8.01758-6.25L10.8887-6.25L10.8887-3.36914Q10.8887-2.99805 11.1133-2.76855Q11.3379-2.53906 11.6895-2.53906Q12.0605-2.53906 12.29-2.76855Q12.5195-2.99805 12.5195-3.36914L12.5195-6.25L15.4004-6.25Q15.7715-6.25 16.001-6.47461Q16.2305-6.69922 16.2305-7.05078Q16.2305-7.42188 16.001-7.65137Q15.7715-7.88086 15.4004-7.88086L12.5195-7.88086L12.5195-10.752Q12.5195-11.1328 12.29-11.3623Q12.0605-11.5918 11.6895-11.5918Q11.3379-11.5918 11.1133-11.3574Q10.8887-11.123 10.8887-10.752L10.8887-7.88086L8.01758-7.88086Q7.63672-7.88086 7.40723-7.65137Q7.17773-7.42188 7.17773-7.05078Z"/>
  </g>
  <g transform="matrix(1 0 0 1 305.646 1933)">
   <path d="M14.9707 5.66406Q17.0605 5.66406 18.96 5.01465Q20.8594 4.36523 22.4512 3.19336Q24.043 2.02148 25.2197 0.429688Q26.3965-1.16211 27.0459-3.06641Q27.6953-4.9707 27.6953-7.05078Q27.6953-9.14062 27.0459-11.04Q26.3965-12.9395 25.2197-14.5312Q24.043-16.123 22.4512-17.2998Q20.8594-18.4766 18.9551-19.126Q17.0508-19.7754 14.9609-19.7754Q12.8711-19.7754 10.9717-19.126Q9.07227-18.4766 7.48535-17.2998Q5.89844-16.123 4.72168-14.5312Q3.54492-12.9395 2.90039-11.04Q2.25586-9.14062 2.25586-7.05078Q2.25586-4.9707 2.90527-3.06641Q3.55469-1.16211 4.72656 0.429688Q5.89844 2.02148 7.49023 3.19336Q9.08203 4.36523 10.9814 5.01465Q12.8809 5.66406 14.9707 5.66406ZM14.9707 3.84766Q13.1641 3.84766 11.5283 3.2959Q9.89258 2.74414 8.53516 1.74805Q7.17773 0.751953 6.17676-0.610352Q5.17578-1.97266 4.62891-3.6084Q4.08203-5.24414 4.08203-7.05078Q4.08203-8.86719 4.62891-10.5029Q5.17578-12.1387 6.17188-13.501Q7.16797-14.8633 8.52539-15.8594Q9.88281-16.8555 11.5186-17.4023Q13.1543-17.9492 14.9609-17.9492Q16.7773-17.9492 18.4131-17.4023Q20.0488-16.8555 21.4111-15.8594Q22.7734-14.8633 23.7695-13.501Q24.7656-12.1387 25.3174-10.5029Q25.8691-8.86719 25.8691-7.05078Q25.8789-5.24414 25.332-3.6084Q24.7852-1.97266 23.7842-0.610352Q22.7832 0.751953 21.4209 1.74805Q20.0586 2.74414 18.4229 3.2959Q16.7871 3.84766 14.9707 3.84766ZM9.19922-7.05078Q9.19922-6.66992 9.45801-6.4209Q9.7168-6.17188 10.1172-6.17188L14.0625-6.17188L14.0625-2.2168Q14.0625-1.81641 14.3115-1.55762Q14.5605-1.29883 14.9512-1.29883Q15.3516-1.29883 15.6104-1.55273Q15.8691-1.80664 15.8691-2.2168L15.8691-6.17188L19.8242-6.17188Q20.2246-6.17188 20.4785-6.4209Q20.7324-6.66992 20.7324-7.05078Q20.7324-7.46094 20.4785-7.71484Q20.2246-7.96875 19.8242-7.96875L15.8691-7.96875L15.8691-11.9141Q15.8691-12.3242 15.6104-12.583Q15.3516-12.8418 14.9512-12.8418Q14.5605-12.8418 14.3115-12.583Q14.0625-12.3242 14.0625-11.9141L14.0625-7.96875L10.1172-7.96875Q9.70703-7.96875 9.45312-7.71484Q9.19922-7.46094 9.19922-7.05078Z"/>
  </g>
  <text style="stroke:none;fill:black;font-family:sans-serif;font-size:13;font-weight:bold;" transform="matrix(1 0 0 1 263 1953)">Design Variations</text>
  <text style="stroke:none;fill:black;font-family:sans-serif;font-size:13;" transform="matrix(1 0 0 1 263 1971)">Symbols are supported in up to nine weights and three scales.</text>
  <text style="stroke:none;fill:black;font-family:sans-serif;font-size:13;" transform="matrix(1 0 0 1 263 1989)">For optimal layout with text and other symbols, vertically align</text>
  <text style="stroke:none;fill:black;font-family:sans-serif;font-size:13;" transform="matrix(1 0 0 1 263 2007)">symbols with the adjacent text.</text>
  <line style="fill:none;stroke:#00AEEF;stroke-width:0.5;opacity:1.0;" x1="776" x2="776" y1="1919" y2="1933"/>
  <g transform="matrix(1 0 0 1 776 1933)">
   <path d="M3.31055 0.15625Q3.70117 0.15625 3.91602-0.00976562Q4.13086-0.175781 4.26758-0.585938L5.52734-4.0332L11.2891-4.0332L12.5488-0.585938Q12.6855-0.175781 12.9004-0.00976562Q13.1152 0.15625 13.4961 0.15625Q13.8867 0.15625 14.1162-0.0585938Q14.3457-0.273438 14.3457-0.644531Q14.3457-0.869141 14.2383-1.17188L9.6582-13.3691Q9.48242-13.8184 9.17969-14.043Q8.87695-14.2676 8.4082-14.2676Q7.5-14.2676 7.17773-13.3789L2.59766-1.16211Q2.49023-0.859375 2.49023-0.634766Q2.49023-0.263672 2.70996-0.0537109Q2.92969 0.15625 3.31055 0.15625ZM6.00586-5.51758L8.37891-12.0898L8.42773-12.0898L10.8008-5.51758Z"/>
  </g>
  <line style="fill:none;stroke:#00AEEF;stroke-width:0.5;opacity:1.0;" x1="793.197" x2="793.197" y1="1919" y2="1933"/>
  <text style="stroke:none;fill:black;font-family:sans-serif;font-size:13;font-weight:bold;" transform="matrix(1 0 0 1 776 1953)">Margins</text>
  <text style="stroke:none;fill:black;font-family:sans-serif;font-size:13;" transform="matrix(1 0 0 1 776 1971)">Leading and trailing margins on the left and right side of each symbol</text>
  <text style="stroke:none;fill:black;font-family:sans-serif;font-size:13;" transform="matrix(1 0 0 1 776 1989)">can be adjusted by modifying the x-location of the margin guidelines.</text>
  <text style="stroke:none;fill:black;font-family:sans-serif;font-size:13;" transform="matrix(1 0 0 1 776 2007)">Modifications are automatically applied proportionally to all</text>
  <text style="stroke:none;fill:black;font-family:sans-serif;font-size:13;" transform="matrix(1 0 0 1 776 2025)">scales and weights.</text>
  <g transform="matrix(1 0 0 1 1289 1933)">
   <path d="M2.8418 1.86523L4.54102 3.57422Q5.18555 4.22852 5.90332 4.17969Q6.62109 4.13086 7.31445 3.35938L18.0078-8.42773L17.041-9.4043L6.42578 2.27539Q6.16211 2.57812 5.89355 2.61719Q5.625 2.65625 5.27344 2.30469L4.10156 1.14258Q3.75 0.791016 3.79395 0.522461Q3.83789 0.253906 4.14062-0.0195312L15.6152-10.8203L14.6387-11.7871L3.04688-0.898438Q2.30469-0.214844 2.25098 0.498047Q2.19727 1.21094 2.8418 1.86523ZM9.25781-16.3281Q8.94531-16.0254 8.90625-15.6348Q8.86719-15.2441 9.04297-14.9512Q9.21875-14.6777 9.55566-14.541Q9.89258-14.4043 10.3809-14.5215Q11.4746-14.7754 12.5977-14.7314Q13.7207-14.6875 14.7949-13.9844L14.209-12.5293Q13.9551-11.9043 14.0674-11.4404Q14.1797-10.9766 14.5801-10.5664L16.875-8.25195Q17.2363-7.88086 17.5781-7.82227Q17.9199-7.76367 18.3398-7.8418L19.4043-8.03711L20.0684-7.36328L20.0293-6.80664Q20-6.43555 20.1221-6.12305Q20.2441-5.81055 20.6055-5.44922L21.3672-4.70703Q21.7285-4.3457 22.1533-4.33105Q22.5781-4.31641 22.9297-4.66797L25.8398-7.58789Q26.1914-7.93945 26.1816-8.35449Q26.1719-8.76953 25.8105-9.13086L25.0391-9.89258Q24.6875-10.2539 24.3799-10.3857Q24.0723-10.5176 23.7109-10.4883L23.1348-10.4395L22.4902-11.0742L22.7344-12.1973Q22.832-12.6172 22.6953-12.9834Q22.5586-13.3496 22.1191-13.7891L19.9219-15.9766Q18.6719-17.2168 17.2607-17.8369Q15.8496-18.457 14.4189-18.4814Q12.9883-18.5059 11.665-17.959Q10.3418-17.4121 9.25781-16.3281ZM10.752-15.957Q11.6602-16.6211 12.7002-16.9043Q13.7402-17.1875 14.8047-17.085Q15.8691-16.9824 16.8701-16.5137Q17.8711-16.0449 18.7012-15.2051L21.1328-12.793Q21.3086-12.6172 21.3525-12.4512Q21.3965-12.2852 21.3379-12.0312L21.0156-10.5469L22.5195-9.0625L23.5059-9.12109Q23.6914-9.13086 23.7891-9.09668Q23.8867-9.0625 24.0332-8.91602L24.6094-8.33984L22.168-5.89844L21.5918-6.47461Q21.4453-6.62109 21.4062-6.71875Q21.3672-6.81641 21.377-7.01172L21.4453-7.98828L19.9512-9.47266L18.4277-9.21875Q18.1836-9.16992 18.042-9.2041Q17.9004-9.23828 17.7148-9.41406L15.7129-11.416Q15.5176-11.5918 15.4932-11.7529Q15.4688-11.9141 15.5859-12.1875L16.4648-14.2773Q15.293-15.3711 13.8281-15.791Q12.3633-16.2109 10.8398-15.7617Q10.7227-15.7324 10.6885-15.8057Q10.6543-15.8789 10.752-15.957Z"/>
  </g>
  <text style="stroke:none;fill:black;font-family:sans-serif;font-size:13;font-weight:bold;" transform="matrix(1 0 0 1 1289 1953)">Exporting</text>
  <text style="stroke:none;fill:black;font-family:sans-serif;font-size:13;" transform="matrix(1 0 0 1 1289 1971)">Symbols should be outlined when exporting to ensure the</text>
  <text style="stroke:none;fill:black;font-family:sans-serif;font-size:13;" transform="matrix(1 0 0 1 1289 1989)">design is preserved when submitting to Xcode.</text>
  <text id="template-version" style="stroke:none;fill:black;font-family:sans-serif;font-size:13;text-anchor:end;" transform="matrix(1 0 0 1 3036 1933)">Template v.3.0</text>
  <text style="stroke:none;fill:black;font-family:sans-serif;font-size:13;text-anchor:end;" transform="matrix(1 0 0 1 3036 1951)">Requires Xcode 13 or greater</text>
  <text id="descriptive-name" style="stroke:none;fill:black;font-family:sans-serif;font-size:13;text-anchor:end;" transform="matrix(1 0 0 1 3036 1969)">Generated from xmark</text>
  <text style="stroke:none;fill:black;font-family:sans-serif;font-size:13;text-anchor:end;" transform="matrix(1 0 0 1 3036 1987)">Typeset at 100 points</text>
  <text style="stroke:none;fill:black;font-family:sans-serif;font-size:13;" transform="matrix(1 0 0 1 263 726)">Small</text>
  <text style="stroke:none;fill:black;font-family:sans-serif;font-size:13;" transform="matrix(1 0 0 1 263 1156)">Medium</text>
  <text style="stroke:none;fill:black;font-family:sans-serif;font-size:13;" transform="matrix(1 0 0 1 263 1586)">Large</text>
 </g>
 <g id="Guides">
  <g id="H-reference" style="fill:#27AAE1;stroke:none;" transform="matrix(1 0 0 1 339 696)">
   <path d="M0.976562 0L3.66211 0L29.3457-67.1387L30.0293-67.1387L30.0293-70.459L28.125-70.459ZM11.6699-24.4629L46.9727-24.4629L46.2402-26.709L12.4512-26.709ZM55.127 0L57.7637 0L30.6152-70.459L29.4434-70.459L29.4434-67.1387Z"/>
  </g>
  <line id="Baseline-S" style="fill:none;stroke:#27AAE1;opacity:1;stroke-width:0.5;" x1="263" x2="3036" y1="696" y2="696"/>
  <line id="Capline-S" style="fill:none;stroke:#27AAE1;opacity:1;stroke-width:0.5;" x1="263" x2="3036" y1="625.541" y2="625.541"/>
  <g id="H-reference" style="fill:#27AAE1;stroke:none;" transform="matrix(1 0 0 1 339 1126)">
   <path d="M0.976562 0L3.66211 0L29.3457-67.1387L30.0293-67.1387L30.0293-70.459L28.125-70.459ZM11.6699-24.4629L46.9727-24.4629L46.2402-26.709L12.4512-26.709ZM55.127 0L57.7637 0L30.6152-70.459L29.4434-70.459L29.4434-67.1387Z"/>
  </g>
  <line id="Baseline-M" style="fill:none;stroke:#27AAE1;opacity:1;stroke-width:0.5;" x1="263" x2="3036" y1="1126" y2="1126"/>
  <line id="Capline-M" style="fill:none;stroke:#27AAE1;opacity:1;stroke-width:0.5;" x1="263" x2="3036" y1="1055.54" y2="1055.54"/>
  <g id="H-reference" style="fill:#27AAE1;stroke:none;" transform="matrix(1 0 0 1 339 1556)">
   <path d="M0.976562 0L3.66211 0L29.3457-67.1387L30.0293-67.1387L30.0293-70.459L28.125-70.459ZM11.6699-24.4629L46.9727-24.4629L46.2402-26.709L12.4512-26.709ZM55.127 0L57.7637 0L30.6152-70.459L29.4434-70.459L29.4434-67.1387Z"/>
  </g>
  <line id="Baseline-L" style="fill:none;stroke:#27AAE1;opacity:1;stroke-width:0.5;" x1="263" x2="3036" y1="1556" y2="1556"/>
  <line id="Capline-L" style="fill:none;stroke:#27AAE1;opacity:1;stroke-width:0.5;" x1="263" x2="3036" y1="1485.54" y2="1485.54"/>
  <line id="left-margin-Regular-M" style="fill:none;stroke:#00AEEF;stroke-width:0.5;opacity:1.0;" x1="1398.67" x2="1398.67" y1="1030.79" y2="1150.12"/>
  <line id="right-margin-Regular-M" style="fill:none;stroke:#00AEEF;stroke-width:0.5;opacity:1.0;" x1="1501.02" x2="1501.02" y1="1030.79" y2="1150.12"/>
 </g>
 <g id="Symbols">
  <g id="Black-L" transform="matrix(1 0 0 1 2863.8 1556)">
   <path d="M19.4824 14.9414Q21.8262 17.2363 24.9756 17.9932Q28.125 18.75 31.2012 17.9932Q34.2773 17.2363 36.4258 15.1367L69.6289-18.0664L102.734 15.0879Q104.98 17.334 108.057 18.0664Q111.133 18.7988 114.233 17.9932Q117.334 17.1875 119.629 14.8926Q121.973 12.5488 122.754 9.44824Q123.535 6.34766 122.803 3.27148Q122.07 0.195312 119.824-2.05078L86.7188-35.2051L119.824-68.2617Q122.07-70.5078 122.803-73.6084Q123.535-76.709 122.754-79.8096Q121.973-82.9102 119.629-85.2051Q117.334-87.5 114.233-88.3057Q111.133-89.1113 108.057-88.3789Q104.98-87.6465 102.734-85.4004L69.6289-52.2949L36.4258-85.4492Q34.2773-87.5977 31.2012-88.3301Q28.125-89.0625 24.9512-88.3301Q21.7773-87.5977 19.4824-85.2539Q17.1875-82.959 16.4551-79.8096Q15.7227-76.6602 16.4551-73.5596Q17.1875-70.459 19.3359-68.3594L52.5391-35.2051L19.3359-2.00195Q17.1875 0.146484 16.4307 3.24707Q15.6738 6.34766 16.4307 9.49707Q17.1875 12.6465 19.4824 14.9414Z"/>
  </g>
  <g id="Heavy-L" transform="matrix(1 0 0 1 2568.06 1556)">
   <path d="M18.9941 14.4531Q20.9961 16.4062 23.7061 17.0654Q26.416 17.7246 29.0527 17.0654Q31.6895 16.4062 33.5449 14.5996L68.6523-20.5078L103.662 14.5508Q105.615 16.5039 108.252 17.1387Q110.889 17.7734 113.55 17.0654Q116.211 16.3574 118.164 14.4043Q120.166 12.4023 120.825 9.74121Q121.484 7.08008 120.874 4.44336Q120.264 1.80664 118.311-0.146484L83.3008-35.2051L118.311-70.166Q120.264-72.1191 120.898-74.7803Q121.533-77.4414 120.85-80.1025Q120.166-82.7637 118.164-84.7168Q116.211-86.6699 113.55-87.3779Q110.889-88.0859 108.252-87.4512Q105.615-86.8164 103.662-84.8633L68.6523-49.8535L33.5449-84.9121Q31.6895-86.7676 29.0527-87.4023Q26.416-88.0371 23.6816-87.4023Q20.9473-86.7676 18.9941-84.7656Q17.041-82.7637 16.4062-80.0781Q15.7715-77.3926 16.4062-74.7314Q17.041-72.0703 18.8965-70.2637L54.0039-35.2051L18.8965-0.0976562Q17.041 1.75781 16.3818 4.41895Q15.7227 7.08008 16.3818 9.76562Q17.041 12.4512 18.9941 14.4531Z"/>
  </g>
  <g id="Bold-L" transform="matrix(1 0 0 1 2272.45 1556)">
   <path d="M18.457 13.916Q20.1172 15.5273 22.3145 16.04Q24.5117 16.5527 26.6602 16.04Q28.8086 15.5273 30.3223 14.0137L67.5293-23.2422L104.736 13.9648Q106.299 15.5762 108.447 16.0889Q110.596 16.6016 112.769 16.04Q114.941 15.4785 116.553 13.8672Q118.164 12.2559 118.701 10.083Q119.238 7.91016 118.726 5.76172Q118.213 3.61328 116.65 2.05078L79.4922-35.2051L116.65-72.3633Q118.213-73.9258 118.75-76.0986Q119.287-78.2715 118.726-80.4199Q118.164-82.5684 116.553-84.1797Q114.941-85.791 112.769-86.3525Q110.596-86.9141 108.447-86.4014Q106.299-85.8887 104.736-84.2773L67.5293-47.1191L30.3223-84.3262Q28.8086-85.8398 26.6602-86.377Q24.5117-86.9141 22.29-86.377Q20.0684-85.8398 18.457-84.2285Q16.8945-82.6172 16.3574-80.4199Q15.8203-78.2227 16.3574-76.0498Q16.8945-73.877 18.4082-72.4121L55.6152-35.2051L18.4082 2.05078Q16.8945 3.56445 16.3574 5.7373Q15.8203 7.91016 16.333 10.1074Q16.8457 12.3047 18.457 13.916Z"/>
  </g>
  <g id="Semibold-L" transform="matrix(1 0 0 1 1976.49 1556)">
   <path d="M18.0664 13.5254Q19.4824 14.8926 21.3135 15.332Q23.1445 15.7715 24.9756 15.332Q26.8066 14.8926 28.0762 13.5742L66.748-25.1465L105.42 13.5742Q106.787 14.8926 108.594 15.332Q110.4 15.7715 112.207 15.3076Q114.014 14.8438 115.381 13.4766Q116.797 12.1094 117.236 10.2783Q117.676 8.44727 117.236 6.64062Q116.797 4.83398 115.479 3.51562L76.8066-35.1562L115.479-73.8281Q116.797-75.1465 117.261-76.9775Q117.725-78.8086 117.261-80.6152Q116.797-82.4219 115.381-83.7891Q114.014-85.1562 112.207-85.6201Q110.4-86.084 108.594-85.6445Q106.787-85.2051 105.42-83.8867L66.748-45.2148L28.0762-83.8867Q26.8066-85.2051 24.9756-85.6445Q23.1445-86.084 21.2891-85.6445Q19.4336-85.2051 18.0664-83.8379Q16.748-82.4707 16.3086-80.6152Q15.8691-78.7598 16.3086-76.9287Q16.748-75.0977 18.0176-73.877L56.7383-35.1562L18.0176 3.51562Q16.748 4.78516 16.2842 6.64062Q15.8203 8.49609 16.2598 10.3271Q16.6992 12.1582 18.0664 13.5254Z"/>
  </g>
  <g id="Medium-L" transform="matrix(1 0 0 1 1680.34 1556)">
   <path d="M17.8223 13.2324Q19.043 14.4043 20.6055 14.7705Q22.168 15.1367 23.7061 14.7705Q25.2441 14.4043 26.416 13.2324L66.1621-26.5625L105.957 13.2324Q107.129 14.4043 108.691 14.7705Q110.254 15.1367 111.816 14.7705Q113.379 14.4043 114.551 13.2324Q115.723 12.0117 116.113 10.4492Q116.504 8.88672 116.113 7.32422Q115.723 5.76172 114.6 4.63867L74.8047-35.1562L114.6-74.9512Q115.723-76.0742 116.113-77.6611Q116.504-79.248 116.113-80.8105Q115.723-82.373 114.551-83.5449Q113.379-84.7168 111.816-85.083Q110.254-85.4492 108.691-85.083Q107.129-84.7168 105.957-83.5449L66.1621-43.75L26.416-83.5449Q25.2441-84.7168 23.7061-85.1074Q22.168-85.498 20.5811-85.1074Q18.9941-84.7168 17.8223-83.5449Q16.6504-82.373 16.2598-80.7861Q15.8691-79.1992 16.2598-77.6367Q16.6504-76.0742 17.7734-74.9512L57.5684-35.1562L17.7734 4.63867Q16.6504 5.76172 16.2598 7.32422Q15.8691 8.88672 16.2598 10.4736Q16.6504 12.0605 17.8223 13.2324Z"/>
  </g>
  <g id="Regular-L" transform="matrix(1 0 0 1 1384.39 1556)">
   <path d="M17.4316 12.8418Q18.4082 13.7695 19.6289 14.0625Q20.8496 14.3555 22.0703 14.0625Q23.291 13.7695 24.2188 12.8418L65.4297-28.418L106.689 12.8418Q107.617 13.7695 108.838 14.0625Q110.059 14.3555 111.279 14.0625Q112.5 13.7695 113.428 12.8418Q114.355 11.9141 114.648 10.6689Q114.941 9.42383 114.648 8.20312Q114.355 6.98242 113.428 6.10352L72.2168-35.1562L113.428-76.416Q114.355-77.2949 114.673-78.54Q114.99-79.7852 114.673-81.0059Q114.355-82.2266 113.428-83.1543Q112.5-84.082 111.279-84.375Q110.059-84.668 108.838-84.375Q107.617-84.082 106.689-83.1543L65.4297-41.8945L24.2188-83.1543Q23.291-84.082 22.0703-84.3994Q20.8496-84.7168 19.6045-84.3994Q18.3594-84.082 17.4316-83.1543Q16.5527-82.2266 16.2354-80.9814Q15.918-79.7363 16.2354-78.5156Q16.5527-77.2949 17.4316-76.416L58.6914-35.1562L17.4316 6.10352Q16.5527 6.98242 16.2354 8.22754Q15.918 9.47266 16.2109 10.6934Q16.5039 11.9141 17.4316 12.8418Z"/>
  </g>
  <g id="Light-L" transform="matrix(1 0 0 1 1088.46 1556)">
   <path d="M17.0898 12.4023Q17.8223 13.1348 18.75 13.3545Q19.6777 13.5742 20.5811 13.3545Q21.4844 13.1348 22.168 12.4023L64.6484-30.0781L107.129 12.4023Q107.861 13.1348 108.765 13.3545Q109.668 13.5742 110.596 13.3545Q111.523 13.1348 112.207 12.4023Q112.891 11.7188 113.11 10.791Q113.33 9.86328 113.11 8.93555Q112.891 8.00781 112.207 7.37305L69.7266-35.1562L112.207-77.6367Q112.891-78.2715 113.135-79.2236Q113.379-80.1758 113.135-81.0791Q112.891-81.9824 112.207-82.666Q111.523-83.3984 110.596-83.6182Q109.668-83.8379 108.765-83.6182Q107.861-83.3984 107.129-82.666L64.6484-40.1855L22.168-82.666Q21.4844-83.3984 20.5811-83.6426Q19.6777-83.8867 18.75-83.6426Q17.8223-83.3984 17.0898-82.666Q16.4551-81.9824 16.2109-81.0547Q15.9668-80.127 16.2109-79.1992Q16.4551-78.2715 17.0898-77.6367L59.6191-35.1562L17.0898 7.37305Q16.4551 8.00781 16.2109 8.93555Q15.9668 9.86328 16.1865 10.791Q16.4062 11.7188 17.0898 12.4023Z"/>
  </g>
  <g id="Thin-L" transform="matrix(1 0 0 1 792.799 1556)">
   <path d="M16.6504 11.8652Q17.0898 12.2559 17.6025 12.4023Q18.1152 12.5488 18.6035 12.4023Q19.0918 12.2559 19.5312 11.8652L63.623-32.2754L107.764 11.8652Q108.154 12.2559 108.667 12.3779Q109.18 12.5 109.668 12.3779Q110.156 12.2559 110.596 11.8652Q110.986 11.4746 111.108 10.9375Q111.23 10.4004 111.108 9.91211Q110.986 9.42383 110.596 9.0332L66.5039-35.1074L110.596-79.248Q110.986-79.6387 111.133-80.1514Q111.279-80.6641 111.133-81.1523Q110.986-81.6406 110.596-82.0801Q110.156-82.4707 109.668-82.5928Q109.18-82.7148 108.667-82.5928Q108.154-82.4707 107.764-82.0801L63.623-37.9395L19.5312-82.0801Q19.0918-82.4707 18.6035-82.6172Q18.1152-82.7637 17.5781-82.6172Q17.041-82.4707 16.6504-82.0801Q16.2598-81.6406 16.1133-81.1523Q15.9668-80.6641 16.1133-80.1514Q16.2598-79.6387 16.6504-79.248L60.791-35.1074L16.6504 9.0332Q16.2598 9.42383 16.1133 9.91211Q15.9668 10.4004 16.1133 10.9375Q16.2598 11.4746 16.6504 11.8652Z"/>
  </g>
  <g id="Ultralight-L" transform="matrix(1 0 0 1 496.625 1556)">
   <path d="M16.4551 11.5723Q16.6992 11.8164 16.9922 11.9141Q17.2852 12.0117 17.5781 11.9141Q17.8711 11.8164 18.1152 11.5723L63.1348-33.3984L108.057 11.5723Q108.301 11.8164 108.618 11.8896Q108.936 11.9629 109.229 11.8896Q109.521 11.8164 109.766 11.5723Q110.01 11.3281 110.083 11.0107Q110.156 10.6934 110.083 10.4004Q110.01 10.1074 109.766 9.86328L64.7949-35.1074L109.766-80.0293Q110.01-80.2734 110.083-80.5908Q110.156-80.9082 110.083-81.2012Q110.01-81.4941 109.766-81.7383Q109.521-81.9824 109.229-82.0801Q108.936-82.1777 108.618-82.0801Q108.301-81.9824 108.057-81.7383L63.1348-36.8164L18.1152-81.7383Q17.8711-81.9824 17.5781-82.0801Q17.2852-82.1777 16.9922-82.0801Q16.6992-81.9824 16.4551-81.7383Q16.2109-81.4941 16.1133-81.2012Q16.0156-80.9082 16.1133-80.5908Q16.2109-80.2734 16.4551-80.0293L61.4258-35.1074L16.4551 9.86328Q16.2109 10.1074 16.1133 10.4004Q16.0156 10.6934 16.0889 11.0107Q16.1621 11.3281 16.4551 11.5723Z"/>
  </g>
  <g id="Black-M" transform="matrix(1 0 0 1 2878.88 1126)">
   <path d="M15.3809 3.95508Q17.3828 5.95703 20.1172 6.5918Q22.8516 7.22656 25.5127 6.5918Q28.1738 5.95703 30.0293 4.10156L54.541-20.4102L78.9551 4.05273Q80.9082 6.00586 83.5693 6.61621Q86.2305 7.22656 88.8916 6.54297Q91.5527 5.85938 93.5547 3.90625Q95.5566 1.9043 96.2402-0.78125Q96.9238-3.4668 96.2891-6.12793Q95.6543-8.78906 93.75-10.7422L69.3359-35.2051L93.75-59.6191Q95.6543-61.5723 96.2891-64.2334Q96.9238-66.8945 96.2402-69.5557Q95.5566-72.2168 93.5547-74.2188Q91.5527-76.2207 88.8916-76.9043Q86.2305-77.5879 83.5693-76.9531Q80.9082-76.3184 78.9551-74.4141L54.541-50L30.0293-74.4629Q28.1738-76.2695 25.5127-76.9043Q22.8516-77.5391 20.1172-76.9043Q17.3828-76.2695 15.3809-74.2676Q13.4277-72.2656 12.793-69.5557Q12.1582-66.8457 12.793-64.1602Q13.4277-61.4746 15.2344-59.668L39.7461-35.2051L15.2344-10.6445Q13.4277-8.83789 12.7686-6.17676Q12.1094-3.51562 12.7686-0.78125Q13.4277 1.95312 15.3809 3.95508Z"/>
  </g>
  <g id="Heavy-M" transform="matrix(1 0 0 1 2582.95 1126)">
   <path d="M14.9902 3.56445Q16.748 5.27344 19.0918 5.83496Q21.4355 6.39648 23.7305 5.83496Q26.0254 5.27344 27.6367 3.66211L53.7598-22.4609L79.7852 3.61328Q81.4453 5.32227 83.7402 5.85938Q86.0352 6.39648 88.3545 5.81055Q90.6738 5.22461 92.3828 3.51562Q94.0918 1.80664 94.6777-0.512695Q95.2637-2.83203 94.7266-5.12695Q94.1895-7.42188 92.5293-9.13086L66.5039-35.2051L92.5293-61.2305Q94.1895-62.9395 94.751-65.2344Q95.3125-67.5293 94.7021-69.8242Q94.0918-72.1191 92.3828-73.8281Q90.6738-75.5859 88.3545-76.1719Q86.0352-76.7578 83.7402-76.1963Q81.4453-75.6348 79.7852-73.9746L53.7598-47.9492L27.6367-74.0234Q26.0254-75.6348 23.7305-76.1719Q21.4355-76.709 19.0674-76.1719Q16.6992-75.6348 14.9902-73.877Q13.2812-72.168 12.7441-69.8242Q12.207-67.4805 12.7441-65.1611Q13.2812-62.8418 14.8926-61.2793L40.9668-35.2051L14.8926-9.0332Q13.2812-7.4707 12.7197-5.17578Q12.1582-2.88086 12.7197-0.537109Q13.2812 1.80664 14.9902 3.56445Z"/>
  </g>
  <g id="Bold-M" transform="matrix(1 0 0 1 2287.12 1126)">
   <path d="M14.5508 3.125Q16.0156 4.54102 17.9443 5.00488Q19.873 5.46875 21.7529 5.00488Q23.6328 4.54102 25 3.17383L52.8809-24.707L80.7129 3.17383Q82.0801 4.54102 83.9844 5.00488Q85.8887 5.46875 87.793 4.98047Q89.6973 4.49219 91.1133 3.07617Q92.5293 1.66016 92.9932-0.244141Q93.457-2.14844 93.0176-4.05273Q92.5781-5.95703 91.2109-7.32422L63.3789-35.2051L91.2109-63.0371Q92.5781-64.4531 93.042-66.333Q93.5059-68.2129 93.0176-70.1172Q92.5293-72.0215 91.1133-73.4375Q89.6484-74.8535 87.7686-75.3418Q85.8887-75.8301 83.9844-75.3662Q82.0801-74.9023 80.7129-73.5352L52.8809-45.7031L25-73.5352Q23.6328-74.9023 21.7285-75.3418Q19.8242-75.7812 17.8955-75.3418Q15.9668-74.9023 14.5508-73.4375Q13.1836-72.0215 12.7197-70.1172Q12.2559-68.2129 12.7197-66.3086Q13.1836-64.4043 14.502-63.0859L42.3828-35.2051L14.502-7.27539Q13.1836-5.95703 12.6953-4.07715Q12.207-2.19727 12.6709-0.244141Q13.1348 1.70898 14.5508 3.125Z"/>
  </g>
  <g id="Semibold-M" transform="matrix(1 0 0 1 1991.02 1126)">
   <path d="M14.2578 2.7832Q15.4785 4.00391 17.1143 4.39453Q18.75 4.78516 20.3613 4.39453Q21.9727 4.00391 23.1445 2.83203L52.2461-26.2695L81.2988 2.83203Q82.5195 4.00391 84.1309 4.39453Q85.7422 4.78516 87.3535 4.39453Q88.9648 4.00391 90.1855 2.7832Q91.4062 1.5625 91.7969-0.0488281Q92.1875-1.66016 91.7969-3.27148Q91.4062-4.88281 90.2344-6.10352L61.1816-35.2051L90.2344-64.2578Q91.4062-65.4785 91.8213-67.0898Q92.2363-68.7012 91.8213-70.3125Q91.4062-71.9238 90.1855-73.0957Q88.9648-74.3652 87.3535-74.7559Q85.7422-75.1465 84.1309-74.7559Q82.5195-74.3652 81.2988-73.1934L52.2461-44.0918L23.1445-73.1934Q21.9727-74.3652 20.3369-74.7559Q18.7012-75.1465 17.0654-74.7559Q15.4297-74.3652 14.2578-73.1445Q13.0371-71.9238 12.6709-70.3125Q12.3047-68.7012 12.6709-67.0654Q13.0371-65.4297 14.209-64.3066L43.3105-35.2051L14.209-6.05469Q13.0371-4.93164 12.6465-3.2959Q12.2559-1.66016 12.6465-0.0488281Q13.0371 1.5625 14.2578 2.7832Z"/>
  </g>
  <g id="Medium-M" transform="matrix(1 0 0 1 1694.77 1126)">
   <path d="M14.0137 2.53906Q15.0879 3.61328 16.5039 3.95508Q17.9199 4.29688 19.3115 3.95508Q20.7031 3.61328 21.7285 2.58789L51.7578-27.4414L81.7871 2.58789Q82.8125 3.61328 84.2285 3.95508Q85.6445 4.29688 87.0605 3.95508Q88.4766 3.61328 89.502 2.53906Q90.5273 1.51367 90.8936 0.0976562Q91.2598-1.31836 90.918-2.70996Q90.5762-4.10156 89.5508-5.12695L59.5215-35.2051L89.5508-65.2344Q90.5762-66.2598 90.918-67.6514Q91.2598-69.043 90.8936-70.459Q90.5273-71.875 89.502-72.9004Q88.4277-73.9746 87.0361-74.3164Q85.6445-74.6582 84.2285-74.3164Q82.8125-73.9746 81.7871-72.9492L51.7578-42.9199L21.7285-72.9492Q20.7031-73.9746 19.2871-74.3164Q17.8711-74.6582 16.4551-74.3164Q15.0391-73.9746 14.0137-72.9004Q12.9883-71.875 12.6465-70.459Q12.3047-69.043 12.6465-67.6514Q12.9883-66.2598 14.0137-65.2344L44.043-35.2051L14.0137-5.12695Q12.9883-4.10156 12.6221-2.70996Q12.2559-1.31836 12.5977 0.0976562Q12.9395 1.51367 14.0137 2.53906Z"/>
  </g>
  <g id="Regular-M" transform="matrix(1 0 0 1 1398.67 1126)">
   <path d="M13.7207 2.24609Q14.5996 3.07617 15.7227 3.36914Q16.8457 3.66211 17.9688 3.36914Q19.0918 3.07617 19.9219 2.24609L51.1719-29.0039L82.4219 2.24609Q83.252 3.07617 84.375 3.36914Q85.498 3.66211 86.6455 3.39355Q87.793 3.125 88.623 2.24609Q89.4531 1.41602 89.7217 0.292969Q89.9902-0.830078 89.7217-1.95312Q89.4531-3.07617 88.623-3.90625L57.373-35.2051L88.623-66.4551Q89.4531-67.2852 89.7461-68.4082Q90.0391-69.5312 89.7461-70.6543Q89.4531-71.7773 88.623-72.6074Q87.7441-73.4863 86.6211-73.7549Q85.498-74.0234 84.375-73.7549Q83.252-73.4863 82.4219-72.6074L51.1719-41.3574L19.9219-72.6074Q19.0918-73.4863 17.9443-73.7549Q16.7969-74.0234 15.6738-73.7549Q14.5508-73.4863 13.7207-72.6074Q12.8906-71.7773 12.6221-70.6543Q12.3535-69.5312 12.6221-68.4082Q12.8906-67.2852 13.7207-66.4551L44.9707-35.2051L13.7207-3.90625Q12.8906-3.07617 12.5977-1.95312Q12.3047-0.830078 12.5732 0.292969Q12.8418 1.41602 13.7207 2.24609Z"/>
  </g>
  <g id="Light-M" transform="matrix(1 0 0 1 1102.67 1126)">
   <path d="M13.4277 1.85547Q14.0625 2.49023 14.917 2.70996Q15.7715 2.92969 16.626 2.70996Q17.4805 2.49023 18.1152 1.85547L50.4883-30.4688L82.8125 1.85547Q83.4473 2.49023 84.3018 2.70996Q85.1562 2.92969 86.0107 2.73438Q86.8652 2.53906 87.5 1.85547Q88.1348 1.2207 88.3545 0.390625Q88.5742-0.439453 88.3545-1.29395Q88.1348-2.14844 87.5-2.7832L55.1758-35.1562L87.5-67.5293Q88.1348-68.1641 88.3789-69.0186Q88.623-69.873 88.3789-70.7275Q88.1348-71.582 87.5-72.2168Q86.8652-72.8516 86.0107-73.0713Q85.1562-73.291 84.3018-73.0713Q83.4473-72.8516 82.8125-72.2168L50.4883-39.8438L18.1152-72.2168Q17.4805-72.8516 16.6016-73.0713Q15.7227-73.291 14.8926-73.0713Q14.0625-72.8516 13.4277-72.2168Q12.793-71.582 12.5732-70.7275Q12.3535-69.873 12.5732-69.0186Q12.793-68.1641 13.4277-67.5293L45.752-35.1562L13.4277-2.7832Q12.793-2.14844 12.5732-1.29395Q12.3535-0.439453 12.5488 0.390625Q12.7441 1.2207 13.4277 1.85547Z"/>
  </g>
  <g id="Thin-M" transform="matrix(1 0 0 1 806.886 1126)">
   <path d="M13.0371 1.36719Q13.4277 1.75781 13.8916 1.87988Q14.3555 2.00195 14.8438 1.87988Q15.332 1.75781 15.7227 1.36719L49.5605-32.4707L83.3496 1.36719Q83.7402 1.75781 84.2285 1.87988Q84.7168 2.00195 85.2051 1.87988Q85.6934 1.75781 86.0352 1.36719Q86.4258 0.976562 86.5479 0.512695Q86.6699 0.0488281 86.5479-0.439453Q86.4258-0.927734 86.0352-1.31836L52.2461-35.1562L86.0352-68.9941Q86.4258-69.3359 86.5723-69.8486Q86.7188-70.3613 86.5723-70.8252Q86.4258-71.2891 86.0352-71.6797Q85.6934-72.0215 85.2051-72.168Q84.7168-72.3145 84.2285-72.168Q83.7402-72.0215 83.3496-71.6797L49.5605-37.8418L15.7227-71.6797Q15.332-72.0215 14.8438-72.168Q14.3555-72.3145 13.8672-72.168Q13.3789-72.0215 13.0371-71.6797Q12.6465-71.2891 12.5244-70.8252Q12.4023-70.3613 12.5244-69.8486Q12.6465-69.3359 13.0371-68.9941L46.8262-35.1562L13.0371-1.31836Q12.6465-0.927734 12.5-0.439453Q12.3535 0.0488281 12.5 0.512695Q12.6465 0.976562 13.0371 1.36719Z"/>
  </g>
  <g id="Ultralight-M" transform="matrix(1 0 0 1 510.639 1126)">
   <path d="M12.793 1.12305Q13.0371 1.36719 13.3301 1.44043Q13.623 1.51367 13.916 1.44043Q14.209 1.36719 14.4531 1.12305L49.0723-33.4473L83.6426 1.12305Q83.8867 1.36719 84.2041 1.44043Q84.5215 1.51367 84.79 1.44043Q85.0586 1.36719 85.3027 1.12305Q85.5469 0.878906 85.6445 0.585938Q85.7422 0.292969 85.6445 0Q85.5469-0.292969 85.3027-0.537109L50.7324-35.1074L85.3027-69.7266Q85.5469-69.9707 85.6445-70.2637Q85.7422-70.5566 85.6445-70.8496Q85.5469-71.1426 85.3027-71.3867Q85.0586-71.6309 84.79-71.7041Q84.5215-71.7773 84.2041-71.7041Q83.8867-71.6309 83.6426-71.3867L49.0723-36.8164L14.4531-71.3867Q14.209-71.6309 13.916-71.7041Q13.623-71.7773 13.3301-71.7041Q13.0371-71.6309 12.793-71.3867Q12.5488-71.1426 12.4756-70.8496Q12.4023-70.5566 12.4756-70.2637Q12.5488-69.9707 12.793-69.7266L47.3633-35.1074L12.793-0.537109Q12.5488-0.292969 12.4756 0Q12.4023 0.292969 12.4756 0.585938Q12.5488 0.878906 12.793 1.12305Z"/>
  </g>
  <g id="Black-S" transform="matrix(1 0 0 1 2890.46 696)">
   <path d="M12.207-4.44336Q14.6484-2.00195 18.2861-2.02637Q21.9238-2.05078 24.1699-4.29688L42.9688-23.0957L61.6699-4.3457Q64.0137-1.95312 67.5781-2.00195Q71.1426-2.05078 73.6328-4.49219Q76.0742-6.93359 76.0986-10.498Q76.123-14.0625 73.7793-16.4551L55.0781-35.2051L73.7793-53.9062Q76.123-56.2988 76.0986-59.8633Q76.0742-63.4277 73.6328-65.8691Q71.1426-68.3105 67.5781-68.3594Q64.0137-68.4082 61.6699-66.0156L42.9688-47.3145L24.1699-66.0645Q21.9238-68.3105 18.2861-68.335Q14.6484-68.3594 12.207-65.918Q9.7168-63.4766 9.76562-59.8389Q9.81445-56.2012 12.0605-53.9551L30.8594-35.2051L12.0605-16.4062Q9.81445-14.1602 9.76562-10.5225Q9.7168-6.88477 12.207-4.44336Z"/>
  </g>
  <g id="Heavy-S" transform="matrix(1 0 0 1 2594.33 696)">
   <path d="M11.9141-4.73633Q14.0137-2.58789 17.1875-2.6123Q20.3613-2.63672 22.3633-4.63867L42.3828-24.6582L62.3047-4.63867Q64.3555-2.58789 67.4805-2.6123Q70.6055-2.63672 72.7539-4.78516Q74.9023-6.93359 74.9268-10.0342Q74.9512-13.1348 72.9004-15.2344L52.9297-35.2051L72.9004-55.127Q74.9512-57.2266 74.9268-60.3516Q74.9023-63.4766 72.7539-65.625Q70.6055-67.7246 67.4805-67.7734Q64.3555-67.8223 62.3047-65.7227L42.3828-45.752L22.3633-65.7715Q20.3613-67.7246 17.1875-67.749Q14.0137-67.7734 11.9141-65.625Q9.7168-63.4766 9.76562-60.3271Q9.81445-57.1777 11.7676-55.1758L31.7871-35.2051L11.7676-15.1855Q9.81445-13.1836 9.76562-10.0342Q9.7168-6.88477 11.9141-4.73633Z"/>
  </g>
  <g id="Bold-S" transform="matrix(1 0 0 1 2298.28 696)">
   <path d="M11.5723-5.07812Q13.3789-3.27148 16.0156-3.2959Q18.6523-3.32031 20.3613-4.98047L41.6992-26.3672L63.0371-5.0293Q64.7949-3.27148 67.4072-3.27148Q70.0195-3.27148 71.8262-5.07812Q73.584-6.88477 73.6084-9.49707Q73.6328-12.1094 71.875-13.8672L50.5371-35.2051L71.875-56.543Q73.6328-58.3008 73.6328-60.9131Q73.6328-63.5254 71.8262-65.332Q69.9707-67.0898 67.3828-67.1143Q64.7949-67.1387 63.0371-65.3809L41.6992-44.043L20.3613-65.4297Q18.6523-67.0898 15.9912-67.1143Q13.3301-67.1387 11.5723-65.332Q9.76562-63.5254 9.79004-60.8887Q9.81445-58.252 11.4746-56.543L32.8613-35.2051L11.4746-13.8184Q9.81445-12.1582 9.79004-9.49707Q9.76562-6.83594 11.5723-5.07812Z"/>
  </g>
  <g id="Semibold-S" transform="matrix(1 0 0 1 2002.03 696)">
   <path d="M11.3281-5.27344Q12.8906-3.71094 15.1855-3.73535Q17.4805-3.75977 18.9453-5.22461L41.2598-27.5391L63.5254-5.22461Q65.0391-3.71094 67.3096-3.71094Q69.5801-3.71094 71.1426-5.27344Q72.6562-6.88477 72.6807-9.13086Q72.7051-11.377 71.1914-12.8906L48.877-35.2051L71.1914-57.4707Q72.7051-59.0332 72.7051-61.3037Q72.7051-63.5742 71.1426-65.0879Q69.5312-66.6504 67.2852-66.6748Q65.0391-66.6992 63.5254-65.1367L41.2598-42.8711L18.9453-65.1855Q17.4805-66.6504 15.1611-66.6504Q12.8418-66.6504 11.3281-65.1367Q9.76562-63.5254 9.76562-61.2549Q9.76562-58.9844 11.2793-57.4707L33.5938-35.2051L11.2793-12.8906Q9.76562-11.377 9.76562-9.10645Q9.76562-6.83594 11.3281-5.27344Z"/>
  </g>
  <g id="Medium-S" transform="matrix(1 0 0 1 1705.66 696)">
   <path d="M11.1328-5.46875Q12.5488-4.10156 14.5508-4.10156Q16.5527-4.10156 17.8711-5.41992L40.8691-28.4668L63.916-5.41992Q65.2344-4.05273 67.2363-4.05273Q69.2383-4.05273 70.6055-5.46875Q71.9727-6.83594 71.9971-8.83789Q72.0215-10.8398 70.6543-12.1582L47.6074-35.2051L70.6543-58.2031Q72.0215-59.5703 72.0215-61.5723Q72.0215-63.5742 70.6055-64.9414Q69.2383-66.3086 67.2363-66.3086Q65.2344-66.3086 63.916-64.9902L40.8691-41.9434L17.8711-64.9902Q16.5527-66.3086 14.5264-66.3086Q12.5-66.3086 11.1328-64.9414Q9.76562-63.5742 9.76562-61.5723Q9.76562-59.5703 11.084-58.2031L34.1309-35.2051L11.084-12.1582Q9.76562-10.8398 9.76562-8.81348Q9.76562-6.78711 11.1328-5.46875Z"/>
  </g>
  <g id="Regular-S" transform="matrix(1 0 0 1 1409.41 696)">
   <path d="M10.8887-5.66406Q12.0605-4.54102 13.7207-4.54102Q15.3809-4.54102 16.5039-5.66406L40.4297-29.6387L64.4043-5.66406Q65.5273-4.54102 67.1875-4.5166Q68.8477-4.49219 69.9707-5.66406Q71.0938-6.83594 71.0938-8.47168Q71.0938-10.1074 69.9707-11.2305L45.9961-35.2051L69.9707-59.1309Q71.0938-60.3027 71.1182-61.9629Q71.1426-63.623 69.9707-64.7461Q68.7988-65.8691 67.1631-65.8691Q65.5273-65.8691 64.4043-64.7461L40.4297-40.7715L16.5039-64.7461Q15.3809-65.8691 13.6963-65.8691Q12.0117-65.8691 10.8887-64.7461Q9.76562-63.5742 9.76562-61.9385Q9.76562-60.3027 10.8887-59.1309L34.8633-35.2051L10.8887-11.2305Q9.76562-10.1074 9.76562-8.44727Q9.76562-6.78711 10.8887-5.66406Z"/>
  </g>
  <g id="Light-S" transform="matrix(1 0 0 1 1113.31 696)">
   <path d="M10.6445-6.00586Q11.5234-5.12695 12.7686-5.12695Q14.0137-5.12695 14.8926-6.00586L39.7949-30.957L64.7461-6.00586Q65.625-5.12695 66.8701-5.12695Q68.1152-5.12695 68.9941-6.00586Q69.873-6.88477 69.873-8.12988Q69.873-9.375 68.9941-10.2539L44.043-35.2051L68.9941-60.1074Q69.873-60.9863 69.873-62.2559Q69.873-63.5254 68.9941-64.3555Q68.1152-65.2344 66.8701-65.2344Q65.625-65.2344 64.7461-64.3555L39.7949-39.4043L14.8926-64.3555Q14.0137-65.2344 12.7441-65.2344Q11.4746-65.2344 10.6445-64.3555Q9.76562-63.4766 9.76562-62.2314Q9.76562-60.9863 10.6445-60.1074L35.5957-35.2051L10.6445-10.2539Q9.76562-9.375 9.76562-8.12988Q9.76562-6.88477 10.6445-6.00586Z"/>
  </g>
  <g id="Thin-S" transform="matrix(1 0 0 1 817.433 696)">
   <path d="M10.3027-6.44531Q10.791-5.95703 11.5234-5.95703Q12.2559-5.95703 12.793-6.44531L38.9648-32.7148L65.2344-6.44531Q65.7227-5.95703 66.4551-5.95703Q67.1875-5.95703 67.7246-6.44531Q68.2129-6.98242 68.2129-7.69043Q68.2129-8.39844 67.7246-8.93555L41.4551-35.1562L67.7246-61.377Q68.2129-61.9141 68.2129-62.6465Q68.2129-63.3789 67.7246-63.8672Q67.1875-64.4043 66.4551-64.4043Q65.7227-64.4043 65.2344-63.8672L38.9648-37.6465L12.793-63.8672Q12.2559-64.4043 11.5234-64.4043Q10.791-64.4043 10.3027-63.8672Q9.76562-63.3789 9.76562-62.6465Q9.76562-61.9141 10.3027-61.377L36.5234-35.1562L10.3027-8.93555Q9.76562-8.39844 9.76562-7.69043Q9.76562-6.98242 10.3027-6.44531Z"/>
  </g>
  <g id="Ultralight-S" transform="matrix(1 0 0 1 521.137 696)">
   <path d="M10.1074-6.64062Q10.4492-6.34766 10.8887-6.34766Q11.3281-6.34766 11.6699-6.64062L38.5742-33.5938L65.4785-6.64062Q65.8203-6.34766 66.2598-6.34766Q66.6992-6.34766 67.041-6.64062Q67.3828-7.03125 67.3828-7.4707Q67.3828-7.91016 67.041-8.30078L40.1367-35.1562L67.041-62.0605Q67.3828-62.4023 67.3828-62.8418Q67.3828-63.2812 67.041-63.623Q66.6992-63.9648 66.2598-63.9648Q65.8203-63.9648 65.4785-63.623L38.5742-36.7188L11.6699-63.623Q11.3281-63.9648 10.8643-63.9648Q10.4004-63.9648 10.1074-63.623Q9.76562-63.2812 9.76562-62.8418Q9.76562-62.4023 10.1074-62.0605L37.0117-35.1562L10.1074-8.30078Q9.76562-7.91016 9.76562-7.4707Q9.76562-7.03125 10.1074-6.64062Z"/>
  </g>
 </g>
</svg>
