<?xml version="1.0" encoding="UTF-8"?>
<!--Generator: Apple Native CoreSVG 175-->
<!DOCTYPE svg
PUBLIC "-//W3C//DTD SVG 1.1//EN"
       "http://www.w3.org/Graphics/SVG/1.1/DTD/svg11.dtd">
<svg version="1.1" xmlns="http://www.w3.org/2000/svg" xmlns:xlink="http://www.w3.org/1999/xlink" width="3300" height="2200">
 <!--glyph: "uni1002AB.medium", point size: 100.0, font version: "17.0d11e1", template writer version: "65.1"-->
 <g id="Notes">
  <rect height="2200" id="artboard" style="fill:white;opacity:1" width="3300" x="0" y="0"/>
  <line style="fill:none;stroke:black;opacity:1;stroke-width:0.5;" x1="263" x2="3036" y1="292" y2="292"/>
  <text style="stroke:none;fill:black;font-family:sans-serif;font-size:13;font-weight:bold;" transform="matrix(1 0 0 1 263 322)">Weight/Scale Variations</text>
  <text style="stroke:none;fill:black;font-family:sans-serif;font-size:13;text-anchor:middle;" transform="matrix(1 0 0 1 559.711 322)">Ultralight</text>
  <text style="stroke:none;fill:black;font-family:sans-serif;font-size:13;text-anchor:middle;" transform="matrix(1 0 0 1 856.422 322)">Thin</text>
  <text style="stroke:none;fill:black;font-family:sans-serif;font-size:13;text-anchor:middle;" transform="matrix(1 0 0 1 1153.13 322)">Light</text>
  <text style="stroke:none;fill:black;font-family:sans-serif;font-size:13;text-anchor:middle;" transform="matrix(1 0 0 1 1449.84 322)">Regular</text>
  <text style="stroke:none;fill:black;font-family:sans-serif;font-size:13;text-anchor:middle;" transform="matrix(1 0 0 1 1746.56 322)">Medium</text>
  <text style="stroke:none;fill:black;font-family:sans-serif;font-size:13;text-anchor:middle;" transform="matrix(1 0 0 1 2043.27 322)">Semibold</text>
  <text style="stroke:none;fill:black;font-family:sans-serif;font-size:13;text-anchor:middle;" transform="matrix(1 0 0 1 2339.98 322)">Bold</text>
  <text style="stroke:none;fill:black;font-family:sans-serif;font-size:13;text-anchor:middle;" transform="matrix(1 0 0 1 2636.69 322)">Heavy</text>
  <text style="stroke:none;fill:black;font-family:sans-serif;font-size:13;text-anchor:middle;" transform="matrix(1 0 0 1 2933.4 322)">Black</text>
  <line style="fill:none;stroke:black;opacity:1;stroke-width:0.5;" x1="263" x2="3036" y1="1903" y2="1903"/>
  <g transform="matrix(1 0 0 1 263 1933)">
   <path d="M9.24805 0.830078Q10.8691 0.830078 12.2949 0.214844Q13.7207-0.400391 14.8096-1.49414Q15.8984-2.58789 16.5186-4.01367Q17.1387-5.43945 17.1387-7.05078Q17.1387-8.66211 16.5186-10.0879Q15.8984-11.5137 14.8047-12.6074Q13.7109-13.7012 12.2852-14.3164Q10.8594-14.9316 9.23828-14.9316Q7.62695-14.9316 6.20117-14.3164Q4.77539-13.7012 3.69141-12.6074Q2.60742-11.5137 1.9873-10.0879Q1.36719-8.66211 1.36719-7.05078Q1.36719-5.43945 1.9873-4.01367Q2.60742-2.58789 3.69629-1.49414Q4.78516-0.400391 6.21094 0.214844Q7.63672 0.830078 9.24805 0.830078ZM9.24805-0.654297Q7.91992-0.654297 6.7627-1.14746Q5.60547-1.64062 4.73145-2.51953Q3.85742-3.39844 3.36426-4.56055Q2.87109-5.72266 2.87109-7.05078Q2.87109-8.37891 3.35938-9.54102Q3.84766-10.7031 4.72168-11.582Q5.5957-12.4609 6.75293-12.9541Q7.91016-13.4473 9.23828-13.4473Q10.5762-13.4473 11.7334-12.9541Q12.8906-12.4609 13.7695-11.582Q14.6484-10.7031 15.1465-9.54102Q15.6445-8.37891 15.6445-7.05078Q15.6445-5.72266 15.1514-4.56055Q14.6582-3.39844 13.7842-2.51953Q12.9102-1.64062 11.748-1.14746Q10.5859-0.654297 9.24805-0.654297ZM5.6543-7.05078Q5.6543-6.72852 5.85938-6.52832Q6.06445-6.32812 6.40625-6.32812L8.51562-6.32812L8.51562-4.20898Q8.51562-3.88672 8.71094-3.67676Q8.90625-3.4668 9.23828-3.4668Q9.56055-3.4668 9.77051-3.67676Q9.98047-3.88672 9.98047-4.20898L9.98047-6.32812L12.0898-6.32812Q12.4219-6.32812 12.627-6.52832Q12.832-6.72852 12.832-7.05078Q12.832-7.38281 12.627-7.58789Q12.4219-7.79297 12.0898-7.79297L9.98047-7.79297L9.98047-9.90234Q9.98047-10.2344 9.77051-10.4443Q9.56055-10.6543 9.23828-10.6543Q8.90625-10.6543 8.71094-10.4443Q8.51562-10.2344 8.51562-9.90234L8.51562-7.79297L6.40625-7.79297Q6.06445-7.79297 5.85938-7.58789Q5.6543-7.38281 5.6543-7.05078Z"/>
  </g>
  <g transform="matrix(1 0 0 1 281.867 1933)">
   <path d="M11.709 2.91016Q13.75 2.91016 15.5518 2.12891Q17.3535 1.34766 18.7305-0.0292969Q20.1074-1.40625 20.8887-3.20801Q21.6699-5.00977 21.6699-7.05078Q21.6699-9.0918 20.8887-10.8936Q20.1074-12.6953 18.7305-14.0723Q17.3535-15.4492 15.5469-16.2305Q13.7402-17.0117 11.6992-17.0117Q9.6582-17.0117 7.85645-16.2305Q6.05469-15.4492 4.68262-14.0723Q3.31055-12.6953 2.5293-10.8936Q1.74805-9.0918 1.74805-7.05078Q1.74805-5.00977 2.5293-3.20801Q3.31055-1.40625 4.6875-0.0292969Q6.06445 1.34766 7.86621 2.12891Q9.66797 2.91016 11.709 2.91016ZM11.709 1.25Q9.98047 1.25 8.47656 0.605469Q6.97266-0.0390625 5.83496-1.17676Q4.69727-2.31445 4.05762-3.81836Q3.41797-5.32227 3.41797-7.05078Q3.41797-8.7793 4.05762-10.2832Q4.69727-11.7871 5.83008-12.9297Q6.96289-14.0723 8.4668-14.7119Q9.9707-15.3516 11.6992-15.3516Q13.4277-15.3516 14.9316-14.7119Q16.4355-14.0723 17.5781-12.9297Q18.7207-11.7871 19.3652-10.2832Q20.0098-8.7793 20.0098-7.05078Q20.0098-5.32227 19.3701-3.81836Q18.7305-2.31445 17.5928-1.17676Q16.4551-0.0390625 14.9463 0.605469Q13.4375 1.25 11.709 1.25ZM7.17773-7.05078Q7.17773-6.69922 7.41211-6.47461Q7.64648-6.25 8.01758-6.25L10.8887-6.25L10.8887-3.36914Q10.8887-2.99805 11.1133-2.76855Q11.3379-2.53906 11.6895-2.53906Q12.0605-2.53906 12.29-2.76855Q12.5195-2.99805 12.5195-3.36914L12.5195-6.25L15.4004-6.25Q15.7715-6.25 16.001-6.47461Q16.2305-6.69922 16.2305-7.05078Q16.2305-7.42188 16.001-7.65137Q15.7715-7.88086 15.4004-7.88086L12.5195-7.88086L12.5195-10.752Q12.5195-11.1328 12.29-11.3623Q12.0605-11.5918 11.6895-11.5918Q11.3379-11.5918 11.1133-11.3574Q10.8887-11.123 10.8887-10.752L10.8887-7.88086L8.01758-7.88086Q7.63672-7.88086 7.40723-7.65137Q7.17773-7.42188 7.17773-7.05078Z"/>
  </g>
  <g transform="matrix(1 0 0 1 305.646 1933)">
   <path d="M14.9707 5.66406Q17.0605 5.66406 18.96 5.01465Q20.8594 4.36523 22.4512 3.19336Q24.043 2.02148 25.2197 0.429688Q26.3965-1.16211 27.0459-3.06641Q27.6953-4.9707 27.6953-7.05078Q27.6953-9.14062 27.0459-11.04Q26.3965-12.9395 25.2197-14.5312Q24.043-16.123 22.4512-17.2998Q20.8594-18.4766 18.9551-19.126Q17.0508-19.7754 14.9609-19.7754Q12.8711-19.7754 10.9717-19.126Q9.07227-18.4766 7.48535-17.2998Q5.89844-16.123 4.72168-14.5312Q3.54492-12.9395 2.90039-11.04Q2.25586-9.14062 2.25586-7.05078Q2.25586-4.9707 2.90527-3.06641Q3.55469-1.16211 4.72656 0.429688Q5.89844 2.02148 7.49023 3.19336Q9.08203 4.36523 10.9814 5.01465Q12.8809 5.66406 14.9707 5.66406ZM14.9707 3.84766Q13.1641 3.84766 11.5283 3.2959Q9.89258 2.74414 8.53516 1.74805Q7.17773 0.751953 6.17676-0.610352Q5.17578-1.97266 4.62891-3.6084Q4.08203-5.24414 4.08203-7.05078Q4.08203-8.86719 4.62891-10.5029Q5.17578-12.1387 6.17188-13.501Q7.16797-14.8633 8.52539-15.8594Q9.88281-16.8555 11.5186-17.4023Q13.1543-17.9492 14.9609-17.9492Q16.7773-17.9492 18.4131-17.4023Q20.0488-16.8555 21.4111-15.8594Q22.7734-14.8633 23.7695-13.501Q24.7656-12.1387 25.3174-10.5029Q25.8691-8.86719 25.8691-7.05078Q25.8789-5.24414 25.332-3.6084Q24.7852-1.97266 23.7842-0.610352Q22.7832 0.751953 21.4209 1.74805Q20.0586 2.74414 18.4229 3.2959Q16.7871 3.84766 14.9707 3.84766ZM9.19922-7.05078Q9.19922-6.66992 9.45801-6.4209Q9.7168-6.17188 10.1172-6.17188L14.0625-6.17188L14.0625-2.2168Q14.0625-1.81641 14.3115-1.55762Q14.5605-1.29883 14.9512-1.29883Q15.3516-1.29883 15.6104-1.55273Q15.8691-1.80664 15.8691-2.2168L15.8691-6.17188L19.8242-6.17188Q20.2246-6.17188 20.4785-6.4209Q20.7324-6.66992 20.7324-7.05078Q20.7324-7.46094 20.4785-7.71484Q20.2246-7.96875 19.8242-7.96875L15.8691-7.96875L15.8691-11.9141Q15.8691-12.3242 15.6104-12.583Q15.3516-12.8418 14.9512-12.8418Q14.5605-12.8418 14.3115-12.583Q14.0625-12.3242 14.0625-11.9141L14.0625-7.96875L10.1172-7.96875Q9.70703-7.96875 9.45312-7.71484Q9.19922-7.46094 9.19922-7.05078Z"/>
  </g>
  <text style="stroke:none;fill:black;font-family:sans-serif;font-size:13;font-weight:bold;" transform="matrix(1 0 0 1 263 1953)">Design Variations</text>
  <text style="stroke:none;fill:black;font-family:sans-serif;font-size:13;" transform="matrix(1 0 0 1 263 1971)">Symbols are supported in up to nine weights and three scales.</text>
  <text style="stroke:none;fill:black;font-family:sans-serif;font-size:13;" transform="matrix(1 0 0 1 263 1989)">For optimal layout with text and other symbols, vertically align</text>
  <text style="stroke:none;fill:black;font-family:sans-serif;font-size:13;" transform="matrix(1 0 0 1 263 2007)">symbols with the adjacent text.</text>
  <line style="fill:none;stroke:#00AEEF;stroke-width:0.5;opacity:1.0;" x1="776" x2="776" y1="1919" y2="1933"/>
  <g transform="matrix(1 0 0 1 776 1933)">
   <path d="M3.31055 0.15625Q3.70117 0.15625 3.91602-0.00976562Q4.13086-0.175781 4.26758-0.585938L5.52734-4.0332L11.2891-4.0332L12.5488-0.585938Q12.6855-0.175781 12.9004-0.00976562Q13.1152 0.15625 13.4961 0.15625Q13.8867 0.15625 14.1162-0.0585938Q14.3457-0.273438 14.3457-0.644531Q14.3457-0.869141 14.2383-1.17188L9.6582-13.3691Q9.48242-13.8184 9.17969-14.043Q8.87695-14.2676 8.4082-14.2676Q7.5-14.2676 7.17773-13.3789L2.59766-1.16211Q2.49023-0.859375 2.49023-0.634766Q2.49023-0.263672 2.70996-0.0537109Q2.92969 0.15625 3.31055 0.15625ZM6.00586-5.51758L8.37891-12.0898L8.42773-12.0898L10.8008-5.51758Z"/>
  </g>
  <line style="fill:none;stroke:#00AEEF;stroke-width:0.5;opacity:1.0;" x1="793.197" x2="793.197" y1="1919" y2="1933"/>
  <text style="stroke:none;fill:black;font-family:sans-serif;font-size:13;font-weight:bold;" transform="matrix(1 0 0 1 776 1953)">Margins</text>
  <text style="stroke:none;fill:black;font-family:sans-serif;font-size:13;" transform="matrix(1 0 0 1 776 1971)">Leading and trailing margins on the left and right side of each symbol</text>
  <text style="stroke:none;fill:black;font-family:sans-serif;font-size:13;" transform="matrix(1 0 0 1 776 1989)">can be adjusted by modifying the x-location of the margin guidelines.</text>
  <text style="stroke:none;fill:black;font-family:sans-serif;font-size:13;" transform="matrix(1 0 0 1 776 2007)">Modifications are automatically applied proportionally to all</text>
  <text style="stroke:none;fill:black;font-family:sans-serif;font-size:13;" transform="matrix(1 0 0 1 776 2025)">scales and weights.</text>
  <g transform="matrix(1 0 0 1 1289 1933)">
   <path d="M2.8418 1.86523L4.54102 3.57422Q5.18555 4.22852 5.90332 4.17969Q6.62109 4.13086 7.31445 3.35938L18.0078-8.42773L17.041-9.4043L6.42578 2.27539Q6.16211 2.57812 5.89355 2.61719Q5.625 2.65625 5.27344 2.30469L4.10156 1.14258Q3.75 0.791016 3.79395 0.522461Q3.83789 0.253906 4.14062-0.0195312L15.6152-10.8203L14.6387-11.7871L3.04688-0.898438Q2.30469-0.214844 2.25098 0.498047Q2.19727 1.21094 2.8418 1.86523ZM9.25781-16.3281Q8.94531-16.0254 8.90625-15.6348Q8.86719-15.2441 9.04297-14.9512Q9.21875-14.6777 9.55566-14.541Q9.89258-14.4043 10.3809-14.5215Q11.4746-14.7754 12.5977-14.7314Q13.7207-14.6875 14.7949-13.9844L14.209-12.5293Q13.9551-11.9043 14.0674-11.4404Q14.1797-10.9766 14.5801-10.5664L16.875-8.25195Q17.2363-7.88086 17.5781-7.82227Q17.9199-7.76367 18.3398-7.8418L19.4043-8.03711L20.0684-7.36328L20.0293-6.80664Q20-6.43555 20.1221-6.12305Q20.2441-5.81055 20.6055-5.44922L21.3672-4.70703Q21.7285-4.3457 22.1533-4.33105Q22.5781-4.31641 22.9297-4.66797L25.8398-7.58789Q26.1914-7.93945 26.1816-8.35449Q26.1719-8.76953 25.8105-9.13086L25.0391-9.89258Q24.6875-10.2539 24.3799-10.3857Q24.0723-10.5176 23.7109-10.4883L23.1348-10.4395L22.4902-11.0742L22.7344-12.1973Q22.832-12.6172 22.6953-12.9834Q22.5586-13.3496 22.1191-13.7891L19.9219-15.9766Q18.6719-17.2168 17.2607-17.8369Q15.8496-18.457 14.4189-18.4814Q12.9883-18.5059 11.665-17.959Q10.3418-17.4121 9.25781-16.3281ZM10.752-15.957Q11.6602-16.6211 12.7002-16.9043Q13.7402-17.1875 14.8047-17.085Q15.8691-16.9824 16.8701-16.5137Q17.8711-16.0449 18.7012-15.2051L21.1328-12.793Q21.3086-12.6172 21.3525-12.4512Q21.3965-12.2852 21.3379-12.0312L21.0156-10.5469L22.5195-9.0625L23.5059-9.12109Q23.6914-9.13086 23.7891-9.09668Q23.8867-9.0625 24.0332-8.91602L24.6094-8.33984L22.168-5.89844L21.5918-6.47461Q21.4453-6.62109 21.4062-6.71875Q21.3672-6.81641 21.377-7.01172L21.4453-7.98828L19.9512-9.47266L18.4277-9.21875Q18.1836-9.16992 18.042-9.2041Q17.9004-9.23828 17.7148-9.41406L15.7129-11.416Q15.5176-11.5918 15.4932-11.7529Q15.4688-11.9141 15.5859-12.1875L16.4648-14.2773Q15.293-15.3711 13.8281-15.791Q12.3633-16.2109 10.8398-15.7617Q10.7227-15.7324 10.6885-15.8057Q10.6543-15.8789 10.752-15.957Z"/>
  </g>
  <text style="stroke:none;fill:black;font-family:sans-serif;font-size:13;font-weight:bold;" transform="matrix(1 0 0 1 1289 1953)">Exporting</text>
  <text style="stroke:none;fill:black;font-family:sans-serif;font-size:13;" transform="matrix(1 0 0 1 1289 1971)">Symbols should be outlined when exporting to ensure the</text>
  <text style="stroke:none;fill:black;font-family:sans-serif;font-size:13;" transform="matrix(1 0 0 1 1289 1989)">design is preserved when submitting to Xcode.</text>
  <text id="template-version" style="stroke:none;fill:black;font-family:sans-serif;font-size:13;text-anchor:end;" transform="matrix(1 0 0 1 3036 1933)">Template v.3.0</text>
  <text style="stroke:none;fill:black;font-family:sans-serif;font-size:13;text-anchor:end;" transform="matrix(1 0 0 1 3036 1951)">Requires Xcode 13 or greater</text>
  <text id="descriptive-name" style="stroke:none;fill:black;font-family:sans-serif;font-size:13;text-anchor:end;" transform="matrix(1 0 0 1 3036 1969)">Generated from magnifyingglass</text>
  <text style="stroke:none;fill:black;font-family:sans-serif;font-size:13;text-anchor:end;" transform="matrix(1 0 0 1 3036 1987)">Typeset at 100 points</text>
  <text style="stroke:none;fill:black;font-family:sans-serif;font-size:13;" transform="matrix(1 0 0 1 263 726)">Small</text>
  <text style="stroke:none;fill:black;font-family:sans-serif;font-size:13;" transform="matrix(1 0 0 1 263 1156)">Medium</text>
  <text style="stroke:none;fill:black;font-family:sans-serif;font-size:13;" transform="matrix(1 0 0 1 263 1586)">Large</text>
 </g>
 <g id="Guides">
  <g id="H-reference" style="fill:#27AAE1;stroke:none;" transform="matrix(1 0 0 1 339 696)">
   <path d="M0.976562 0L3.66211 0L29.3457-67.1387L30.0293-67.1387L30.0293-70.459L28.125-70.459ZM11.6699-24.4629L46.9727-24.4629L46.2402-26.709L12.4512-26.709ZM55.127 0L57.7637 0L30.6152-70.459L29.4434-70.459L29.4434-67.1387Z"/>
  </g>
  <line id="Baseline-S" style="fill:none;stroke:#27AAE1;opacity:1;stroke-width:0.5;" x1="263" x2="3036" y1="696" y2="696"/>
  <line id="Capline-S" style="fill:none;stroke:#27AAE1;opacity:1;stroke-width:0.5;" x1="263" x2="3036" y1="625.541" y2="625.541"/>
  <g id="H-reference" style="fill:#27AAE1;stroke:none;" transform="matrix(1 0 0 1 339 1126)">
   <path d="M0.976562 0L3.66211 0L29.3457-67.1387L30.0293-67.1387L30.0293-70.459L28.125-70.459ZM11.6699-24.4629L46.9727-24.4629L46.2402-26.709L12.4512-26.709ZM55.127 0L57.7637 0L30.6152-70.459L29.4434-70.459L29.4434-67.1387Z"/>
  </g>
  <line id="Baseline-M" style="fill:none;stroke:#27AAE1;opacity:1;stroke-width:0.5;" x1="263" x2="3036" y1="1126" y2="1126"/>
  <line id="Capline-M" style="fill:none;stroke:#27AAE1;opacity:1;stroke-width:0.5;" x1="263" x2="3036" y1="1055.54" y2="1055.54"/>
  <g id="H-reference" style="fill:#27AAE1;stroke:none;" transform="matrix(1 0 0 1 339 1556)">
   <path d="M0.976562 0L3.66211 0L29.3457-67.1387L30.0293-67.1387L30.0293-70.459L28.125-70.459ZM11.6699-24.4629L46.9727-24.4629L46.2402-26.709L12.4512-26.709ZM55.127 0L57.7637 0L30.6152-70.459L29.4434-70.459L29.4434-67.1387Z"/>
  </g>
  <line id="Baseline-L" style="fill:none;stroke:#27AAE1;opacity:1;stroke-width:0.5;" x1="263" x2="3036" y1="1556" y2="1556"/>
  <line id="Capline-L" style="fill:none;stroke:#27AAE1;opacity:1;stroke-width:0.5;" x1="263" x2="3036" y1="1485.54" y2="1485.54"/>
  <line id="left-margin-Regular-M" style="fill:none;stroke:#00AEEF;stroke-width:0.5;opacity:1.0;" x1="1390.91" x2="1390.91" y1="1030.79" y2="1150.12"/>
  <line id="right-margin-Regular-M" style="fill:none;stroke:#00AEEF;stroke-width:0.5;opacity:1.0;" x1="1508.78" x2="1508.78" y1="1030.79" y2="1150.12"/>
 </g>
 <g id="Symbols">
  <g id="Black-L" transform="matrix(1 0 0 1 2854.42 1556)">
   <path d="M14.4531-45.3613Q14.4531-33.9355 18.7256-23.9746Q22.998-14.0137 30.542-6.46973Q38.0859 1.07422 48.0469 5.34668Q58.0078 9.61914 69.3848 9.61914Q76.123 9.61914 82.373 8.03223Q88.623 6.44531 94.1895 3.56445L115.869 25.1953Q118.164 27.5391 121.191 28.6621Q124.219 29.7852 127.441 29.7852Q132.031 29.7852 135.669 27.6611Q139.307 25.5371 141.406 21.875Q143.506 18.2129 143.506 13.6719Q143.506 10.5469 142.383 7.59277Q141.26 4.63867 138.867 2.24609L117.529-19.1406Q120.801-24.9512 122.583-31.5674Q124.365-38.1836 124.365-45.3613Q124.365-56.7383 120.093-66.6992Q115.82-76.6602 108.276-84.2041Q100.732-91.748 90.7715-96.0205Q80.8105-100.293 69.3848-100.293Q58.0078-100.293 48.0469-96.0205Q38.0859-91.748 30.542-84.2041Q22.998-76.6602 18.7256-66.6992Q14.4531-56.7383 14.4531-45.3613ZM37.0605-45.3613Q37.0605-52.0508 39.5752-57.9102Q42.0898-63.7695 46.5332-68.2129Q50.9766-72.6562 56.8359-75.1709Q62.6953-77.6855 69.3848-77.6855Q76.123-77.6855 81.9824-75.1709Q87.8418-72.6562 92.2852-68.2129Q96.7285-63.7695 99.2432-57.9102Q101.758-52.0508 101.758-45.3613Q101.758-38.623 99.2432-32.7637Q96.7285-26.9043 92.2852-22.4609Q87.8418-18.0176 81.9824-15.5273Q76.123-13.0371 69.3848-13.0371Q62.6953-13.0371 56.8359-15.5273Q50.9766-18.0176 46.5332-22.4609Q42.0898-26.9043 39.5752-32.7637Q37.0605-38.623 37.0605-45.3613Z"/>
  </g>
  <g id="Heavy-L" transform="matrix(1 0 0 1 2558.54 1556)">
   <path d="M14.4531-45.8496Q14.4531-34.7168 18.6279-25Q22.8027-15.2832 30.1758-7.91016Q37.5488-0.537109 47.2656 3.6377Q56.9824 7.8125 68.0664 7.8125Q75.1953 7.8125 81.7139 6.00586Q88.2324 4.19922 93.9453 0.878906L118.115 25Q120.068 27.0508 122.681 28.0029Q125.293 28.9551 128.076 28.9551Q132.031 28.9551 135.156 27.1484Q138.281 25.3418 140.063 22.168Q141.846 18.9941 141.846 15.1367Q141.846 12.4023 140.869 9.86328Q139.893 7.32422 137.891 5.32227L114.014-18.6523Q117.676-24.5605 119.702-31.4453Q121.729-38.3301 121.729-45.8496Q121.729-56.9336 117.554-66.6748Q113.379-76.416 106.03-83.7646Q98.6816-91.1133 88.9404-95.2881Q79.1992-99.4629 68.0664-99.4629Q56.9824-99.4629 47.2656-95.2881Q37.5488-91.1133 30.1758-83.7646Q22.8027-76.416 18.6279-66.6748Q14.4531-56.9336 14.4531-45.8496ZM33.8867-45.8496Q33.8867-52.9297 36.5479-59.1309Q39.209-65.332 43.8965-70.0195Q48.584-74.707 54.7852-77.3682Q60.9863-80.0293 68.0664-80.0293Q75.1953-80.0293 81.3965-77.3682Q87.5977-74.707 92.2852-70.0195Q96.9727-65.332 99.6338-59.1309Q102.295-52.9297 102.295-45.8496Q102.295-38.7207 99.6338-32.5195Q96.9727-26.3184 92.2852-21.6309Q87.5977-16.9434 81.3965-14.3066Q75.1953-11.6699 68.0664-11.6699Q60.9863-11.6699 54.7852-14.3066Q48.584-16.9434 43.8965-21.6309Q39.209-26.3184 36.5479-32.5195Q33.8867-38.7207 33.8867-45.8496Z"/>
  </g>
  <g id="Bold-L" transform="matrix(1 0 0 1 2262.76 1556)">
   <path d="M14.4531-46.3867Q14.4531-35.5957 18.5059-26.1475Q22.5586-16.6992 29.7363-9.52148Q36.9141-2.34375 46.3867 1.7334Q55.8594 5.81055 66.6504 5.81055Q74.1211 5.81055 80.9814 3.73535Q87.8418 1.66016 93.7012-2.09961L120.605 24.8535Q122.217 26.4648 124.341 27.2705Q126.465 28.0762 128.76 28.0762Q131.982 28.0762 134.546 26.5869Q137.109 25.0977 138.55 22.5098Q139.99 19.9219 139.99 16.748Q139.99 14.502 139.209 12.4512Q138.428 10.4004 136.768 8.74023L110.107-18.0664Q114.209-24.1211 116.528-31.3232Q118.848-38.5254 118.848-46.3867Q118.848-57.2266 114.771-66.6748Q110.693-76.123 103.54-83.3008Q96.3867-90.4785 86.9141-94.5312Q77.4414-98.584 66.6504-98.584Q55.8594-98.584 46.3867-94.5312Q36.9141-90.4785 29.7363-83.3008Q22.5586-76.123 18.5059-66.6748Q14.4531-57.2266 14.4531-46.3867ZM30.3223-46.3867Q30.3223-53.9062 33.1543-60.498Q35.9863-67.0898 40.9668-72.0703Q45.9473-77.0508 52.5391-79.8828Q59.1309-82.7148 66.6504-82.7148Q74.1699-82.7148 80.7373-79.8828Q87.3047-77.0508 92.3096-72.0703Q97.3145-67.0898 100.122-60.498Q102.93-53.9062 102.93-46.3867Q102.93-38.8672 100.122-32.2998Q97.3145-25.7324 92.3096-20.7275Q87.3047-15.7227 80.7373-12.915Q74.1699-10.1074 66.6504-10.1074Q59.1309-10.1074 52.5391-12.915Q45.9473-15.7227 40.9668-20.7275Q35.9863-25.7324 33.1543-32.2998Q30.3223-38.8672 30.3223-46.3867Z"/>
  </g>
  <g id="Semibold-L" transform="matrix(1 0 0 1 1966.68 1556)">
   <path d="M14.4531-46.7773Q14.4531-36.1816 18.4326-26.9043Q22.4121-17.627 29.4434-10.5957Q36.4746-3.56445 45.752 0.415039Q55.0293 4.39453 65.625 4.39453Q73.3887 4.39453 80.4443 2.14844Q87.5-0.0976562 93.5059-4.15039L122.314 24.707Q123.682 26.0742 125.488 26.7578Q127.295 27.4414 129.199 27.4414Q131.982 27.4414 134.131 26.1719Q136.279 24.9023 137.5 22.7051Q138.721 20.5078 138.721 17.8223Q138.721 15.918 138.037 14.1846Q137.354 12.4512 135.986 11.084L107.373-17.6758Q111.816-23.7793 114.307-31.2012Q116.797-38.623 116.797-46.7773Q116.797-57.373 112.817-66.626Q108.838-75.8789 101.807-82.9346Q94.7754-89.9902 85.498-93.9697Q76.2207-97.9492 65.625-97.9492Q55.0293-97.9492 45.752-93.9697Q36.4746-89.9902 29.4434-82.9346Q22.4121-75.8789 18.4326-66.626Q14.4531-57.373 14.4531-46.7773ZM27.8809-46.7773Q27.8809-54.5898 30.8105-61.4258Q33.7402-68.2617 38.9404-73.4619Q44.1406-78.6621 50.9766-81.5918Q57.8125-84.5215 65.625-84.5215Q73.4375-84.5215 80.2734-81.5918Q87.1094-78.6621 92.3096-73.4619Q97.5098-68.2617 100.439-61.4258Q103.369-54.5898 103.369-46.7773Q103.369-38.9648 100.439-32.1289Q97.5098-25.293 92.3096-20.0928Q87.1094-14.8926 80.2734-11.9629Q73.4375-9.0332 65.625-9.0332Q57.8125-9.0332 50.9766-11.9629Q44.1406-14.8926 38.9404-20.0928Q33.7402-25.293 30.8105-32.1289Q27.8809-38.9648 27.8809-46.7773Z"/>
  </g>
  <g id="Medium-L" transform="matrix(1 0 0 1 1670.46 1556)">
   <path d="M14.4531-47.0215Q14.4531-36.6211 18.3594-27.4902Q22.2656-18.3594 29.2236-11.4258Q36.1816-4.49219 45.3125-0.585938Q54.4434 3.32031 64.8438 3.32031Q72.8516 3.32031 80.0781 0.927734Q87.3047-1.46484 93.3594-5.71289L123.633 24.6094Q124.805 25.7812 126.343 26.3916Q127.881 27.002 129.541 27.002Q131.934 27.002 133.789 25.8789Q135.645 24.7559 136.694 22.876Q137.744 20.9961 137.744 18.7012Q137.744 17.041 137.158 15.5518Q136.572 14.0625 135.4 12.8418L105.322-17.3828Q110.01-23.5352 112.646-31.1279Q115.283-38.7207 115.283-47.0215Q115.283-57.5195 111.353-66.626Q107.422-75.7324 100.488-82.6904Q93.5547-89.6484 84.4238-93.5547Q75.293-97.4609 64.8438-97.4609Q54.4434-97.4609 45.3125-93.5547Q36.1816-89.6484 29.2236-82.6904Q22.2656-75.7324 18.3594-66.626Q14.4531-57.5195 14.4531-47.0215ZM26.0254-47.0215Q26.0254-55.0781 29.0527-62.1338Q32.0801-69.1895 37.4023-74.5361Q42.7246-79.8828 49.7559-82.8857Q56.7871-85.8887 64.8438-85.8887Q72.9004-85.8887 79.9316-82.8857Q86.9629-79.8828 92.3096-74.5361Q97.6562-69.1895 100.659-62.1338Q103.662-55.0781 103.662-47.0215Q103.662-39.0137 100.659-31.9824Q97.6562-24.9512 92.3096-19.6045Q86.9629-14.2578 79.9316-11.2549Q72.9004-8.25195 64.8438-8.25195Q56.7871-8.25195 49.7559-11.2549Q42.7246-14.2578 37.4023-19.6045Q32.0801-24.9512 29.0527-31.9824Q26.0254-39.0137 26.0254-47.0215Z"/>
  </g>
  <g id="Regular-L" transform="matrix(1 0 0 1 1374.38 1556)">
   <path d="M14.4531-47.4121Q14.4531-37.207 18.2861-28.2715Q22.1191-19.3359 28.9307-12.5244Q35.7422-5.71289 44.7021-1.87988Q53.6621 1.95312 63.8672 1.95312Q72.1191 1.95312 79.5654-0.610352Q87.0117-3.17383 93.1641-7.76367L125.342 24.4629Q126.27 25.3906 127.49 25.8789Q128.711 26.3672 130.029 26.3672Q131.934 26.3672 133.398 25.4883Q134.863 24.6094 135.669 23.0957Q136.475 21.582 136.475 19.7754Q136.475 18.457 136.011 17.2852Q135.547 16.1133 134.668 15.1855L102.637-16.9922Q107.617-23.2422 110.449-31.0303Q113.281-38.8184 113.281-47.4121Q113.281-57.666 109.424-66.6016Q105.566-75.5371 98.7793-82.3486Q91.9922-89.1602 83.0322-92.9932Q74.0723-96.8262 63.8672-96.8262Q53.6621-96.8262 44.7021-92.9932Q35.7422-89.1602 28.9307-82.3486Q22.1191-75.5371 18.2861-66.6016Q14.4531-57.666 14.4531-47.4121ZM23.584-47.4121Q23.584-55.7617 26.7334-63.0615Q29.8828-70.3613 35.4004-75.9033Q40.918-81.4453 48.2178-84.5703Q55.5176-87.6953 63.8672-87.6953Q72.168-87.6953 79.4678-84.5703Q86.7676-81.4453 92.3096-75.9033Q97.8516-70.3613 100.977-63.0615Q104.102-55.7617 104.102-47.4121Q104.102-39.1113 100.977-31.8115Q97.8516-24.5117 92.3096-18.9697Q86.7676-13.4277 79.4678-10.3027Q72.168-7.17773 63.8672-7.17773Q55.5176-7.17773 48.2178-10.3027Q40.918-13.4277 35.4004-18.9697Q29.8828-24.5117 26.7334-31.8115Q23.584-39.1113 23.584-47.4121Z"/>
  </g>
  <g id="Light-L" transform="matrix(1 0 0 1 1078.4 1556)">
   <path d="M14.4531-47.8516Q14.4531-37.8906 18.2129-29.1748Q21.9727-20.459 28.6133-13.8184Q35.2539-7.17773 43.9941-3.41797Q52.7344 0.341797 62.6953 0.341797Q70.9961 0.341797 78.4912-2.34375Q85.9863-5.0293 92.0898-9.76562L125.781 24.0234Q126.562 24.7559 127.563 25.1953Q128.564 25.6348 129.639 25.6348Q131.25 25.6348 132.471 24.8779Q133.691 24.1211 134.351 22.8516Q135.01 21.582 135.01 20.1172Q135.01 19.043 134.644 18.0908Q134.277 17.1387 133.496 16.3574L99.9023-17.3828Q105.029-23.584 107.959-31.3965Q110.889-39.209 110.889-47.8516Q110.889-57.8613 107.129-66.5771Q103.369-75.293 96.7529-81.958Q90.1367-88.623 81.3965-92.3584Q72.6562-96.0938 62.6953-96.0938Q52.7344-96.0938 43.9941-92.3584Q35.2539-88.623 28.6133-81.958Q21.9727-75.293 18.2129-66.5771Q14.4531-57.8613 14.4531-47.8516ZM21.3867-47.8516Q21.3867-56.3965 24.6094-63.8916Q27.832-71.3867 33.4961-77.0752Q39.1602-82.7637 46.6553-85.9619Q54.1504-89.1602 62.6953-89.1602Q71.1914-89.1602 78.6865-85.9619Q86.1816-82.7637 91.8457-77.0752Q97.5098-71.3867 100.732-63.8916Q103.955-56.3965 103.955-47.8516Q103.955-39.3555 100.732-31.8848Q97.5098-24.4141 91.8457-18.7012Q86.1816-12.9883 78.6865-9.79004Q71.1914-6.5918 62.6953-6.5918Q54.1504-6.5918 46.6553-9.79004Q39.1602-12.9883 33.4961-18.7012Q27.832-24.4141 24.6094-31.8848Q21.3867-39.3555 21.3867-47.8516Z"/>
  </g>
  <g id="Thin-L" transform="matrix(1 0 0 1 782.643 1556)">
   <path d="M14.4531-48.4863Q14.4531-38.8184 18.0908-30.3711Q21.7285-21.9238 28.1494-15.5029Q34.5703-9.08203 43.0176-5.44434Q51.4648-1.80664 61.1328-1.80664Q69.5312-1.80664 77.0752-4.61426Q84.6191-7.42188 90.6738-12.4512L126.416 23.4375Q126.904 23.9258 127.612 24.2676Q128.32 24.6094 129.102 24.6094Q130.371 24.6094 131.274 24.0234Q132.178 23.4375 132.642 22.5342Q133.105 21.6309 133.105 20.6055Q133.105 19.8242 132.837 19.1406Q132.568 18.457 131.982 17.8711L96.2402-17.9199Q101.611-24.0234 104.688-31.8848Q107.764-39.7461 107.764-48.4863Q107.764-58.1055 104.126-66.5283Q100.488-74.9512 94.0674-81.3965Q87.6465-87.8418 79.1992-91.4795Q70.752-95.1172 61.1328-95.1172Q51.4648-95.1172 43.0176-91.4795Q34.5703-87.8418 28.1494-81.3965Q21.7285-74.9512 18.0908-66.5283Q14.4531-58.1055 14.4531-48.4863ZM18.457-48.4863Q18.457-57.2754 21.7773-64.9902Q25.0977-72.7051 30.957-78.5889Q36.8164-84.4727 44.5557-87.8174Q52.2949-91.1621 61.1328-91.1621Q69.873-91.1621 77.6123-87.8174Q85.3516-84.4727 91.2354-78.5889Q97.1191-72.7051 100.439-64.9902Q103.76-57.2754 103.76-48.4863Q103.76-39.6973 100.439-31.958Q97.1191-24.2188 91.2354-18.335Q85.3516-12.4512 77.6123-9.13086Q69.873-5.81055 61.1328-5.81055Q52.2949-5.81055 44.5557-9.13086Q36.8164-12.4512 30.957-18.335Q25.0977-24.2188 21.7773-31.958Q18.457-39.6973 18.457-48.4863Z"/>
  </g>
  <g id="Ultralight-L" transform="matrix(1 0 0 1 486.42 1556)">
   <path d="M14.4531-48.7793Q14.4531-39.3066 18.042-31.0059Q21.6309-22.7051 27.9297-16.3818Q34.2285-10.0586 42.5293-6.49414Q50.8301-2.92969 60.3027-2.92969Q68.75-2.92969 76.3428-5.81055Q83.9355-8.69141 89.9414-13.8184L126.709 23.1445Q127.1 23.4863 127.661 23.8037Q128.223 24.1211 128.857 24.1211Q129.932 24.1211 130.64 23.6084Q131.348 23.0957 131.738 22.3633Q132.129 21.6309 132.129 20.8008Q132.129 20.2148 131.909 19.6777Q131.689 19.1406 131.152 18.7012L94.3848-18.1641Q99.8535-24.2188 103.003-32.1045Q106.152-39.9902 106.152-48.7793Q106.152-58.2031 102.563-66.5039Q98.9746-74.8047 92.6758-81.1523Q86.377-87.5 78.0762-91.04Q69.7754-94.5801 60.3027-94.5801Q50.8301-94.5801 42.5293-91.04Q34.2285-87.5 27.9297-81.1523Q21.6309-74.8047 18.042-66.5039Q14.4531-58.2031 14.4531-48.7793ZM16.9434-48.7793Q16.9434-57.7148 20.3369-65.5518Q23.7305-73.3887 29.6875-79.3701Q35.6445-85.3516 43.5059-88.7451Q51.3672-92.1387 60.3027-92.1387Q69.2383-92.1387 77.0996-88.7451Q84.9609-85.3516 90.918-79.3701Q96.875-73.3887 100.269-65.5518Q103.662-57.7148 103.662-48.7793Q103.662-39.8438 100.269-32.0068Q96.875-24.1699 90.918-18.1641Q84.9609-12.1582 77.0996-8.78906Q69.2383-5.41992 60.3027-5.41992Q51.3672-5.41992 43.5059-8.78906Q35.6445-12.1582 29.6875-18.1641Q23.7305-24.1699 20.3369-32.0068Q16.9434-39.8438 16.9434-48.7793Z"/>
  </g>
  <g id="Black-M" transform="matrix(1 0 0 1 2871.71 1126)">
   <path d="M11.2305-42.8223Q11.2305-33.8379 14.5996-25.9766Q17.9688-18.1152 23.9014-12.1582Q29.834-6.20117 37.6953-2.85645Q45.5566 0.488281 54.541 0.488281Q59.4727 0.488281 64.0869-0.561523Q68.7012-1.61133 72.8516-3.56445L88.0371 11.6211Q90.0391 13.623 92.7002 14.5996Q95.3613 15.5762 98.1445 15.5762Q102.148 15.5762 105.322 13.7207Q108.496 11.8652 110.327 8.69141Q112.158 5.51758 112.158 1.5625Q112.158-1.17188 111.182-3.73535Q110.205-6.29883 108.105-8.39844L93.2129-23.3398Q95.4102-27.6855 96.6309-32.6172Q97.8516-37.5488 97.8516-42.8223Q97.8516-51.7578 94.4824-59.6191Q91.1133-67.4805 85.1562-73.4375Q79.1992-79.3945 71.3623-82.7393Q63.5254-86.084 54.541-86.084Q45.5566-86.084 37.6953-82.7393Q29.834-79.3945 23.9014-73.4375Q17.9688-67.4805 14.5996-59.6191Q11.2305-51.7578 11.2305-42.8223ZM30.7129-42.8223Q30.7129-47.7051 32.5684-52.0264Q34.4238-56.3477 37.6953-59.6191Q40.9668-62.8906 45.2881-64.7461Q49.6094-66.6016 54.541-66.6016Q59.4727-66.6016 63.7939-64.7461Q68.1152-62.8906 71.3867-59.6191Q74.6582-56.3477 76.4893-52.0264Q78.3203-47.7051 78.3203-42.8223Q78.3203-37.8906 76.4893-33.5693Q74.6582-29.248 71.3867-25.9766Q68.1152-22.7051 63.7939-20.8496Q59.4727-18.9941 54.541-18.9941Q49.6094-18.9941 45.2881-20.8496Q40.9668-22.7051 37.6953-25.9766Q34.4238-29.248 32.5684-33.5693Q30.7129-37.8906 30.7129-42.8223Z"/>
  </g>
  <g id="Heavy-M" transform="matrix(1 0 0 1 2575.65 1126)">
   <path d="M11.2305-43.2129Q11.2305-34.4238 14.5264-26.7578Q17.8223-19.0918 23.6084-13.2812Q29.3945-7.4707 37.0605-4.19922Q44.7266-0.927734 53.5156-0.927734Q58.7891-0.927734 63.6719-2.19727Q68.5547-3.4668 72.8516-5.76172L90.1367 11.5234Q91.8457 13.2812 94.1406 14.1113Q96.4355 14.9414 98.8281 14.9414Q102.295 14.9414 105.005 13.3545Q107.715 11.7676 109.277 9.0332Q110.84 6.29883 110.84 2.88086Q110.84 0.537109 110.01-1.66016Q109.18-3.85742 107.373-5.66406L90.3809-22.7539Q92.9199-27.2461 94.3604-32.4219Q95.8008-37.5977 95.8008-43.2129Q95.8008-51.9531 92.5049-59.6191Q89.209-67.2852 83.3984-73.0957Q77.5879-78.9062 69.9463-82.1777Q62.3047-85.4492 53.5156-85.4492Q44.7266-85.4492 37.0605-82.1777Q29.3945-78.9062 23.6084-73.0957Q17.8223-67.2852 14.5264-59.6191Q11.2305-51.9531 11.2305-43.2129ZM28.0762-43.2129Q28.0762-48.4375 30.0537-53.0518Q32.0312-57.666 35.5225-61.1572Q39.0137-64.6484 43.6279-66.626Q48.2422-68.6035 53.5156-68.6035Q58.7891-68.6035 63.4033-66.626Q68.0176-64.6484 71.5088-61.1572Q75-57.666 76.9531-53.0518Q78.9062-48.4375 78.9062-43.2129Q78.9062-37.9395 76.9531-33.3252Q75-28.7109 71.5088-25.2197Q68.0176-21.7285 63.4033-19.751Q58.7891-17.7734 53.5156-17.7734Q48.2422-17.7734 43.6279-19.751Q39.0137-21.7285 35.5225-25.2197Q32.0312-28.7109 30.0537-33.3252Q28.0762-37.9395 28.0762-43.2129Z"/>
  </g>
  <g id="Bold-M" transform="matrix(1 0 0 1 2279.65 1126)">
   <path d="M11.2305-43.6523Q11.2305-35.1074 14.4287-27.6611Q17.627-20.2148 23.291-14.5508Q28.9551-8.88672 36.4014-5.68848Q43.8477-2.49023 52.3926-2.49023Q58.0078-2.49023 63.208-4.00391Q68.4082-5.51758 72.8516-8.20312L92.4805 11.4746Q93.8965 12.8906 95.752 13.5742Q97.6074 14.2578 99.6094 14.2578Q102.441 14.2578 104.663 12.9639Q106.885 11.6699 108.154 9.42383Q109.424 7.17773 109.424 4.39453Q109.424 2.44141 108.716 0.634766Q108.008-1.17188 106.592-2.63672L87.207-22.1191Q90.1855-26.709 91.8457-32.1777Q93.5059-37.6465 93.5059-43.6523Q93.5059-52.1484 90.3076-59.5947Q87.1094-67.041 81.4453-72.7051Q75.7812-78.3691 68.335-81.5674Q60.8887-84.7656 52.3926-84.7656Q43.8477-84.7656 36.4014-81.5674Q28.9551-78.3691 23.291-72.7051Q17.627-67.041 14.4287-59.5947Q11.2305-52.1484 11.2305-43.6523ZM25.1465-43.6523Q25.1465-49.2676 27.2705-54.1992Q29.3945-59.1309 33.1299-62.8662Q36.8652-66.6016 41.7969-68.7256Q46.7285-70.8496 52.3926-70.8496Q58.0078-70.8496 62.9395-68.7256Q67.8711-66.6016 71.6064-62.8662Q75.3418-59.1309 77.4658-54.1992Q79.5898-49.2676 79.5898-43.6523Q79.5898-37.9883 77.4658-33.0566Q75.3418-28.125 71.6064-24.3896Q67.8711-20.6543 62.9395-18.5303Q58.0078-16.4062 52.3926-16.4062Q46.7285-16.4062 41.7969-18.5303Q36.8652-20.6543 33.1299-24.3896Q29.3945-28.125 27.2705-33.0566Q25.1465-37.9883 25.1465-43.6523Z"/>
  </g>
  <g id="Semibold-M" transform="matrix(1 0 0 1 1983.45 1126)">
   <path d="M11.2305-43.9453Q11.2305-35.5469 14.3555-28.2471Q17.4805-20.9473 23.0469-15.3809Q28.6133-9.81445 35.9131-6.68945Q43.2129-3.56445 51.5625-3.56445Q57.4707-3.56445 62.8662-5.22461Q68.2617-6.88477 72.8516-9.86328L94.043 11.377Q95.3125 12.5977 96.875 13.1836Q98.4375 13.7695 100.098 13.7695Q102.539 13.7695 104.395 12.6709Q106.25 11.5723 107.324 9.66797Q108.398 7.76367 108.398 5.37109Q108.398 3.71094 107.812 2.19727Q107.227 0.683594 106.006-0.488281L85.0098-21.6309Q88.2324-26.3672 90.0879-32.0312Q91.9434-37.6953 91.9434-43.9453Q91.9434-52.2461 88.7939-59.5703Q85.6445-66.8945 80.1025-72.4365Q74.5605-77.9785 67.2363-81.1035Q59.9121-84.2285 51.5625-84.2285Q43.2129-84.2285 35.9131-81.1035Q28.6133-77.9785 23.0469-72.4365Q17.4805-66.8945 14.3555-59.5703Q11.2305-52.2461 11.2305-43.9453ZM23.1445-43.9453Q23.1445-49.8047 25.3418-54.9561Q27.5391-60.1074 31.4453-64.0381Q35.3516-67.9688 40.5273-70.166Q45.7031-72.3633 51.5625-72.3633Q57.4707-72.3633 62.6221-70.166Q67.7734-67.9688 71.6797-64.0381Q75.5859-60.1074 77.8076-54.9561Q80.0293-49.8047 80.0293-43.9453Q80.0293-38.0371 77.8076-32.8857Q75.5859-27.7344 71.6797-23.8281Q67.7734-19.9219 62.6221-17.7002Q57.4707-15.4785 51.5625-15.4785Q45.7031-15.4785 40.5273-17.7002Q35.3516-19.9219 31.4453-23.8281Q27.5391-27.7344 25.3418-32.8857Q23.1445-38.0371 23.1445-43.9453Z"/>
  </g>
  <g id="Medium-M" transform="matrix(1 0 0 1 1687.13 1126)">
   <path d="M11.2305-44.1406Q11.2305-35.9375 14.3311-28.7354Q17.4316-21.5332 22.9004-16.04Q28.3691-10.5469 35.5713-7.4707Q42.7734-4.39453 50.9766-4.39453Q57.0801-4.39453 62.6221-6.17676Q68.1641-7.95898 72.8516-11.1328L95.2637 11.3281Q96.3867 12.4023 97.7051 12.915Q99.0234 13.4277 100.488 13.4277Q102.588 13.4277 104.199 12.4756Q105.811 11.5234 106.714 9.86328Q107.617 8.20312 107.617 6.15234Q107.617 4.73633 107.104 3.41797Q106.592 2.09961 105.566 1.07422L83.3008-21.2891Q86.8164-26.0742 88.7695-31.8848Q90.7227-37.6953 90.7227-44.1406Q90.7227-52.3438 87.6465-59.5459Q84.5703-66.748 79.0771-72.2412Q73.584-77.7344 66.3818-80.8105Q59.1797-83.8867 50.9766-83.8867Q42.7734-83.8867 35.5713-80.8105Q28.3691-77.7344 22.9004-72.2412Q17.4316-66.748 14.3311-59.5459Q11.2305-52.3438 11.2305-44.1406ZM21.582-44.1406Q21.582-50.2441 23.8525-55.5664Q26.123-60.8887 30.1758-64.9414Q34.2285-68.9941 39.5508-71.2646Q44.873-73.5352 50.9766-73.5352Q57.0801-73.5352 62.4023-71.2646Q67.7246-68.9941 71.7529-64.9414Q75.7812-60.8887 78.0762-55.5664Q80.3711-50.2441 80.3711-44.1406Q80.3711-38.0371 78.0762-32.7148Q75.7812-27.3926 71.7529-23.3643Q67.7246-19.3359 62.4023-17.041Q57.0801-14.7461 50.9766-14.7461Q44.873-14.7461 39.5508-17.041Q34.2285-19.3359 30.1758-23.3643Q26.123-27.3926 23.8525-32.7148Q21.582-38.0371 21.582-44.1406Z"/>
  </g>
  <g id="Regular-M" transform="matrix(1 0 0 1 1390.91 1126)">
   <path d="M11.2305-44.4336Q11.2305-36.377 14.2578-29.3213Q17.2852-22.2656 22.6562-16.8945Q28.0273-11.5234 35.083-8.49609Q42.1387-5.46875 50.1953-5.46875Q56.543-5.46875 62.3047-7.42188Q68.0664-9.375 72.8516-12.793L96.875 11.2793Q97.7539 12.1094 98.8037 12.5244Q99.8535 12.9395 101.025 12.9395Q102.686 12.9395 103.955 12.1826Q105.225 11.4258 105.933 10.1074Q106.641 8.78906 106.641 7.17773Q106.641 6.00586 106.226 4.98047Q105.811 3.95508 105.029 3.17383L81.1523-20.8496Q84.9121-25.7324 87.0361-31.7383Q89.1602-37.7441 89.1602-44.4336Q89.1602-52.4902 86.1328-59.5459Q83.1055-66.6016 77.7344-71.9727Q72.3633-77.3438 65.3076-80.3711Q58.252-83.3984 50.1953-83.3984Q42.1387-83.3984 35.083-80.3711Q28.0273-77.3438 22.6562-71.9727Q17.2852-66.6016 14.2578-59.5459Q11.2305-52.4902 11.2305-44.4336ZM19.5801-44.4336Q19.5801-50.7812 21.9482-56.3232Q24.3164-61.8652 28.54-66.0889Q32.7637-70.3125 38.3057-72.6807Q43.8477-75.0488 50.1953-75.0488Q56.543-75.0488 62.085-72.6807Q67.627-70.3125 71.8262-66.0889Q76.0254-61.8652 78.418-56.3232Q80.8105-50.7812 80.8105-44.4336Q80.8105-38.0859 78.418-32.5439Q76.0254-27.002 71.8262-22.8027Q67.627-18.6035 62.085-16.2109Q56.543-13.8184 50.1953-13.8184Q43.8477-13.8184 38.3057-16.2109Q32.7637-18.6035 28.54-22.8027Q24.3164-27.002 21.9482-32.5439Q19.5801-38.0859 19.5801-44.4336Z"/>
  </g>
  <g id="Light-M" transform="matrix(1 0 0 1 1094.86 1126)">
   <path d="M11.2305-44.8242Q11.2305-37.0117 14.1846-30.1514Q17.1387-23.291 22.3633-18.0664Q27.5879-12.8418 34.4482-9.8877Q41.3086-6.93359 49.1211-6.93359Q55.5664-6.93359 61.3525-8.95996Q67.1387-10.9863 71.875-14.5996L97.3145 10.8887Q97.998 11.5234 98.8525 11.8896Q99.707 12.2559 100.684 12.2559Q102.1 12.2559 103.149 11.6211Q104.199 10.9863 104.761 9.8877Q105.322 8.78906 105.322 7.51953Q105.322 6.54297 104.98 5.71289Q104.639 4.88281 104.004 4.19922L78.6621-21.1914Q82.6172-26.0254 84.8389-32.0557Q87.0605-38.0859 87.0605-44.8242Q87.0605-52.6367 84.1064-59.5215Q81.1523-66.4062 75.9277-71.6064Q70.7031-76.8066 63.8428-79.7607Q56.9824-82.7148 49.1211-82.7148Q41.3086-82.7148 34.4482-79.7607Q27.5879-76.8066 22.3633-71.6064Q17.1387-66.4062 14.1846-59.5215Q11.2305-52.6367 11.2305-44.8242ZM17.5781-44.8242Q17.5781-51.3672 20.0195-57.0801Q22.4609-62.793 26.8311-67.1387Q31.2012-71.4844 36.9141-73.9258Q42.627-76.3672 49.1211-76.3672Q55.6641-76.3672 61.377-73.9258Q67.0898-71.4844 71.4111-67.1387Q75.7324-62.793 78.1982-57.0801Q80.6641-51.3672 80.6641-44.8242Q80.6641-38.3301 78.1982-32.6172Q75.7324-26.9043 71.4111-22.5586Q67.0898-18.2129 61.377-15.7471Q55.6641-13.2812 49.1211-13.2812Q42.627-13.2812 36.9141-15.7471Q31.2012-18.2129 26.8311-22.5586Q22.4609-26.9043 20.0195-32.6172Q17.5781-38.3301 17.5781-44.8242Z"/>
  </g>
  <g id="Thin-M" transform="matrix(1 0 0 1 799 1126)">
   <path d="M11.2305-45.3613Q11.2305-37.8418 14.0869-31.2256Q16.9434-24.6094 21.9482-19.5801Q26.9531-14.5508 33.5693-11.6943Q40.1855-8.83789 47.7539-8.83789Q54.1992-8.83789 60.0586-11.0107Q65.918-13.1836 70.6055-16.9922L97.8516 10.3516Q98.291 10.791 98.9014 11.084Q99.5117 11.377 100.195 11.377Q101.27 11.377 102.026 10.8887Q102.783 10.4004 103.198 9.61914Q103.613 8.83789 103.613 7.91016Q103.613 7.27539 103.369 6.68945Q103.125 6.10352 102.588 5.61523L75.4395-21.6797Q79.541-26.416 81.8848-32.4951Q84.2285-38.5742 84.2285-45.3613Q84.2285-52.8809 81.3721-59.4971Q78.5156-66.1133 73.4863-71.1426Q68.457-76.1719 61.8652-79.0039Q55.2734-81.8359 47.7539-81.8359Q40.1855-81.8359 33.5693-79.0039Q26.9531-76.1719 21.9482-71.1426Q16.9434-66.1133 14.0869-59.4971Q11.2305-52.8809 11.2305-45.3613ZM14.9902-45.3613Q14.9902-52.0996 17.5293-58.0322Q20.0684-63.9648 24.585-68.4814Q29.1016-72.998 35.0342-75.5615Q40.9668-78.125 47.7539-78.125Q54.4922-78.125 60.4248-75.5615Q66.3574-72.998 70.874-68.4814Q75.3906-63.9648 77.9541-58.0322Q80.5176-52.0996 80.5176-45.3613Q80.5176-38.623 77.9541-32.666Q75.3906-26.709 70.874-22.2168Q66.3574-17.7246 60.4248-15.1611Q54.4922-12.5977 47.7539-12.5977Q40.9668-12.5977 35.0342-15.1611Q29.1016-17.7246 24.585-22.2168Q20.0684-26.709 17.5293-32.666Q14.9902-38.623 14.9902-45.3613Z"/>
  </g>
  <g id="Ultralight-M" transform="matrix(1 0 0 1 502.729 1126)">
   <path d="M11.2305-45.6055Q11.2305-38.2324 14.0381-31.7627Q16.8457-25.293 21.7529-20.3613Q26.6602-15.4297 33.1543-12.6221Q39.6484-9.81445 47.0215-9.81445Q53.5645-9.81445 59.4238-12.0361Q65.2832-14.2578 69.9219-18.2617L98.1445 10.1074Q98.4375 10.4004 98.9258 10.6445Q99.4141 10.8887 100 10.8887Q100.879 10.8887 101.489 10.498Q102.1 10.1074 102.417 9.47266Q102.734 8.83789 102.734 8.1543Q102.734 7.61719 102.515 7.17773Q102.295 6.73828 101.904 6.29883L73.7305-21.9238Q77.9785-26.6602 80.3955-32.7393Q82.8125-38.8184 82.8125-45.6055Q82.8125-52.9785 80.0049-59.4727Q77.1973-65.9668 72.2656-70.874Q67.334-75.7812 60.8643-78.5889Q54.3945-81.3965 47.0215-81.3965Q39.6484-81.3965 33.1543-78.5889Q26.6602-75.7812 21.7529-70.874Q16.8457-65.9668 14.0381-59.4727Q11.2305-52.9785 11.2305-45.6055ZM13.623-45.6055Q13.623-52.4902 16.2109-58.5449Q18.7988-64.5996 23.4131-69.2139Q28.0273-73.8281 34.082-76.4404Q40.1367-79.0527 47.0215-79.0527Q53.9062-79.0527 59.9609-76.4404Q66.0156-73.8281 70.6055-69.2139Q75.1953-64.5996 77.8076-58.5449Q80.4199-52.4902 80.4199-45.6055Q80.4199-38.7695 77.8076-32.7148Q75.1953-26.6602 70.6055-22.0703Q66.0156-17.4805 59.9609-14.8438Q53.9062-12.207 47.0215-12.207Q40.1367-12.207 34.082-14.8438Q28.0273-17.4805 23.4131-22.0703Q18.7988-26.6602 16.2109-32.7148Q13.623-38.7695 13.623-45.6055Z"/>
  </g>
  <g id="Black-S" transform="matrix(1 0 0 1 2884.91 696)">
   <path d="M8.78906-41.0645Q8.78906-33.9844 11.4502-27.7832Q14.1113-21.582 18.7988-16.8945Q23.4863-12.207 29.6875-9.5459Q35.8887-6.88477 42.9688-6.88477Q46.7285-6.88477 50.2686-7.66602Q53.8086-8.44727 57.0312-9.86328L68.3594 1.46484Q70.0195 3.125 72.1924 3.93066Q74.3652 4.73633 76.6602 4.73633Q81.5918 4.73633 84.8877 1.41602Q88.1836-1.9043 88.1836-6.78711Q88.1836-9.0332 87.3779-11.1572Q86.5723-13.2812 84.8633-14.9902L73.7305-26.123Q75.3906-29.4922 76.2695-33.2764Q77.1484-37.0605 77.1484-41.0645Q77.1484-48.1445 74.4873-54.3457Q71.8262-60.5469 67.1387-65.2344Q62.4512-69.9219 56.25-72.583Q50.0488-75.2441 42.9688-75.2441Q35.8887-75.2441 29.6875-72.583Q23.4863-69.9219 18.7988-65.2344Q14.1113-60.5469 11.4502-54.3457Q8.78906-48.1445 8.78906-41.0645ZM24.7559-41.0645Q24.7559-44.8242 26.1719-48.1201Q27.5879-51.416 30.1025-53.9307Q32.6172-56.4453 35.9131-57.8613Q39.209-59.2773 42.9688-59.2773Q46.7285-59.2773 50.0244-57.8613Q53.3203-56.4453 55.835-53.9307Q58.3496-51.416 59.7656-48.1201Q61.1816-44.8242 61.1816-41.0645Q61.1816-37.3047 59.7656-34.0088Q58.3496-30.7129 55.835-28.1982Q53.3203-25.6836 50.0244-24.2676Q46.7285-22.8516 42.9688-22.8516Q39.209-22.8516 35.9131-24.2676Q32.6172-25.6836 30.1025-28.1982Q27.5879-30.7129 26.1719-34.0088Q24.7559-37.3047 24.7559-41.0645Z"/>
  </g>
  <g id="Heavy-S" transform="matrix(1 0 0 1 2588.67 696)">
   <path d="M8.78906-41.3574Q8.78906-34.4238 11.4014-28.3447Q14.0137-22.2656 18.6035-17.6758Q23.1934-13.0859 29.248-10.498Q35.3027-7.91016 42.2363-7.91016Q46.2891-7.91016 50.0488-8.8623Q53.8086-9.81445 57.1289-11.5234L70.0684 1.46484Q71.5332 2.88086 73.4131 3.58887Q75.293 4.29688 77.2949 4.29688Q81.543 4.29688 84.3994 1.41602Q87.2559-1.46484 87.2559-5.71289Q87.2559-7.66602 86.5479-9.49707Q85.8398-11.3281 84.375-12.793L71.6309-25.5859Q73.5352-29.0527 74.6094-33.0566Q75.6836-37.0605 75.6836-41.3574Q75.6836-48.291 73.0713-54.3457Q70.459-60.4004 65.8691-64.9902Q61.2793-69.5801 55.2246-72.1924Q49.1699-74.8047 42.2363-74.8047Q35.3027-74.8047 29.248-72.1924Q23.1934-69.5801 18.6035-64.9902Q14.0137-60.4004 11.4014-54.3457Q8.78906-48.291 8.78906-41.3574ZM22.7539-41.3574Q22.7539-45.3613 24.2676-48.9014Q25.7812-52.4414 28.4668-55.1025Q31.1523-57.7637 34.668-59.2773Q38.1836-60.791 42.2363-60.791Q46.2402-60.791 49.7803-59.2773Q53.3203-57.7637 56.0059-55.1025Q58.6914-52.4414 60.2051-48.9014Q61.7188-45.3613 61.7188-41.3574Q61.7188-37.3047 60.2051-33.7891Q58.6914-30.2734 56.0059-27.5879Q53.3203-24.9023 49.7803-23.3887Q46.2402-21.875 42.2363-21.875Q38.1836-21.875 34.668-23.3887Q31.1523-24.9023 28.4668-27.5879Q25.7812-30.2734 24.2676-33.7891Q22.7539-37.3047 22.7539-41.3574Z"/>
  </g>
  <g id="Bold-S" transform="matrix(1 0 0 1 2292.49 696)">
   <path d="M8.78906-41.6504Q8.78906-34.9121 11.3281-29.0039Q13.8672-23.0957 18.3594-18.6035Q22.8516-14.1113 28.7598-11.5967Q34.668-9.08203 41.4062-9.08203Q45.752-9.08203 49.7803-10.2051Q53.8086-11.3281 57.2754-13.3301L72.0215 1.46484Q73.2422 2.63672 74.8047 3.22266Q76.3672 3.80859 77.9785 3.80859Q81.543 3.80859 83.8623 1.41602Q86.1816-0.976562 86.1816-4.49219Q86.1816-6.10352 85.5957-7.61719Q85.0098-9.13086 83.8379-10.3516L69.2383-24.9512Q71.5332-28.5645 72.7783-32.8125Q74.0234-37.0605 74.0234-41.6504Q74.0234-48.4375 71.4844-54.3457Q68.9453-60.2539 64.4775-64.7217Q60.0098-69.1895 54.0771-71.7285Q48.1445-74.2676 41.4062-74.2676Q34.668-74.2676 28.7598-71.7285Q22.8516-69.1895 18.3594-64.7217Q13.8672-60.2539 11.3281-54.3457Q8.78906-48.4375 8.78906-41.6504ZM20.5566-41.6504Q20.5566-45.9961 22.168-49.7803Q23.7793-53.5645 26.6602-56.4209Q29.541-59.2773 33.3252-60.9131Q37.1094-62.5488 41.4062-62.5488Q45.752-62.5488 49.5117-60.9131Q53.2715-59.2773 56.1523-56.4209Q59.0332-53.5645 60.6689-49.7803Q62.3047-45.9961 62.3047-41.6504Q62.3047-37.3535 60.6689-33.5693Q59.0332-29.7852 56.1523-26.9043Q53.2715-24.0234 49.5117-22.4121Q45.752-20.8008 41.4062-20.8008Q37.1094-20.8008 33.3252-22.4121Q29.541-24.0234 26.6602-26.9043Q23.7793-29.7852 22.168-33.5693Q20.5566-37.3535 20.5566-41.6504Z"/>
  </g>
  <g id="Semibold-S" transform="matrix(1 0 0 1 1996.15 696)">
   <path d="M8.78906-41.8457Q8.78906-35.2539 11.2793-29.4434Q13.7695-23.6328 18.1885-19.2139Q22.6074-14.7949 28.3936-12.3291Q34.1797-9.86328 40.8203-9.86328Q45.4102-9.86328 49.585-11.1084Q53.7598-12.3535 57.373-14.5996L73.3398 1.41602Q74.4141 2.44141 75.7324 2.92969Q77.0508 3.41797 78.4668 3.41797Q81.4941 3.41797 83.4717 1.41602Q85.4492-0.585938 85.4492-3.61328Q85.4492-5.0293 84.9365-6.32324Q84.4238-7.61719 83.4473-8.64258L67.627-24.5117Q70.1172-28.2227 71.4844-32.6416Q72.8516-37.0605 72.8516-41.8457Q72.8516-48.5352 70.3613-54.3213Q67.8711-60.1074 63.4766-64.5264Q59.082-68.9453 53.2715-71.4355Q47.4609-73.9258 40.8203-73.9258Q34.1797-73.9258 28.3936-71.4355Q22.6074-68.9453 18.1885-64.5264Q13.7695-60.1074 11.2793-54.3213Q8.78906-48.5352 8.78906-41.8457ZM18.9941-41.8457Q18.9941-46.3867 20.6787-50.3418Q22.3633-54.2969 25.3662-57.2998Q28.3691-60.3027 32.3486-62.0117Q36.3281-63.7207 40.8203-63.7207Q45.3613-63.7207 49.3164-62.0117Q53.2715-60.3027 56.2744-57.2998Q59.2773-54.2969 60.9863-50.3418Q62.6953-46.3867 62.6953-41.8457Q62.6953-37.3535 60.9863-33.3984Q59.2773-29.4434 56.2744-26.4404Q53.2715-23.4375 49.3164-21.7285Q45.3613-20.0195 40.8203-20.0195Q36.3281-20.0195 32.3486-21.7285Q28.3691-23.4375 25.3662-26.4404Q22.3633-29.4434 20.6787-33.3984Q18.9941-37.3535 18.9941-41.8457Z"/>
  </g>
  <g id="Medium-S" transform="matrix(1 0 0 1 1699.7 696)">
   <path d="M8.78906-42.041Q8.78906-35.498 11.2549-29.7607Q13.7207-24.0234 18.0664-19.6777Q22.4121-15.332 28.125-12.8906Q33.8379-10.4492 40.4297-10.4492Q45.1172-10.4492 49.4385-11.792Q53.7598-13.1348 57.4219-15.5273L74.3652 1.41602Q75.293 2.34375 76.4404 2.75879Q77.5879 3.17383 78.8086 3.17383Q81.4941 3.17383 83.2031 1.41602Q84.9121-0.341797 84.9121-2.97852Q84.9121-4.24805 84.4727-5.37109Q84.0332-6.49414 83.2031-7.32422L66.3574-24.2188Q69.043-27.9785 70.5078-32.5195Q71.9727-37.0605 71.9727-42.041Q71.9727-48.584 69.5068-54.2969Q67.041-60.0098 62.7197-64.3555Q58.3984-68.7012 52.6611-71.167Q46.9238-73.6328 40.4297-73.6328Q33.8379-73.6328 28.125-71.167Q22.4121-68.7012 18.0664-64.3555Q13.7207-60.0098 11.2549-54.2969Q8.78906-48.584 8.78906-42.041ZM17.8223-42.041Q17.8223-46.7285 19.5557-50.8057Q21.2891-54.8828 24.4141-57.9834Q27.5391-61.084 31.6406-62.8418Q35.7422-64.5996 40.4297-64.5996Q45.0684-64.5996 49.1455-62.8418Q53.2227-61.084 56.3477-57.9834Q59.4727-54.8828 61.2305-50.8057Q62.9883-46.7285 62.9883-42.041Q62.9883-37.3535 61.2305-33.2764Q59.4727-29.1992 56.3477-26.0742Q53.2227-22.9492 49.1455-21.1914Q45.0684-19.4336 40.4297-19.4336Q35.7422-19.4336 31.6406-21.1914Q27.5391-22.9492 24.4141-26.0742Q21.2891-29.1992 19.5557-33.2764Q17.8223-37.3535 17.8223-42.041Z"/>
  </g>
  <g id="Regular-S" transform="matrix(1 0 0 1 1403.36 696)">
   <path d="M8.78906-42.2363Q8.78906-35.8398 11.2061-30.2002Q13.623-24.5605 17.8955-20.2881Q22.168-16.0156 27.7832-13.623Q33.3984-11.2305 39.8438-11.2305Q44.7754-11.2305 49.2676-12.6953Q53.7598-14.1602 57.5195-16.7969L75.6836 1.41602Q76.4648 2.14844 77.3926 2.49023Q78.3203 2.83203 79.2969 2.83203Q81.4453 2.83203 82.8125 1.41602Q84.1797 0 84.1797-2.14844Q84.1797-3.17383 83.8135-4.07715Q83.4473-4.98047 82.8125-5.66406L64.7461-23.7793Q67.627-27.6367 69.2383-32.3486Q70.8496-37.0605 70.8496-42.2363Q70.8496-48.6816 68.4326-54.2969Q66.0156-59.9121 61.7676-64.1846Q57.5195-68.457 51.8799-70.874Q46.2402-73.291 39.8438-73.291Q33.3984-73.291 27.7832-70.874Q22.168-68.457 17.8955-64.1846Q13.623-59.9121 11.2061-54.2969Q8.78906-48.6816 8.78906-42.2363ZM16.3086-42.2363Q16.3086-47.1191 18.1152-51.3916Q19.9219-55.6641 23.1689-58.8867Q26.416-62.1094 30.6885-63.9404Q34.9609-65.7715 39.8438-65.7715Q44.7266-65.7715 48.9746-63.9404Q53.2227-62.1094 56.4697-58.8867Q59.7168-55.6641 61.5479-51.3916Q63.3789-47.1191 63.3789-42.2363Q63.3789-37.3535 61.5479-33.1055Q59.7168-28.8574 56.4697-25.6104Q53.2227-22.3633 48.9746-20.5322Q44.7266-18.7012 39.8438-18.7012Q34.9609-18.7012 30.6885-20.5322Q26.416-22.3633 23.1689-25.6104Q19.9219-28.8574 18.1152-33.1055Q16.3086-37.3535 16.3086-42.2363Z"/>
  </g>
  <g id="Light-S" transform="matrix(1 0 0 1 1107.23 696)">
   <path d="M8.78906-42.5781Q8.78906-36.377 11.1328-30.9326Q13.4766-25.4883 17.627-21.3379Q21.7773-17.1875 27.2217-14.8438Q32.666-12.5 38.916-12.5Q43.8965-12.5 48.4131-14.0625Q52.9297-15.625 56.6895-18.4082L76.0742 1.07422Q76.6602 1.66016 77.417 1.95312Q78.1738 2.24609 79.0039 2.24609Q80.8105 2.24609 81.9092 1.0498Q83.0078-0.146484 83.0078-1.85547Q83.0078-2.68555 82.7148-3.41797Q82.4219-4.15039 81.8848-4.73633L62.5488-24.1211Q65.5762-27.9297 67.2852-32.666Q68.9941-37.4023 68.9941-42.5781Q68.9941-48.8281 66.6504-54.2725Q64.3066-59.7168 60.1807-63.8672Q56.0547-68.0176 50.5859-70.3613Q45.1172-72.7051 38.916-72.7051Q32.666-72.7051 27.2217-70.3613Q21.7773-68.0176 17.627-63.8672Q13.4766-59.7168 11.1328-54.2725Q8.78906-48.8281 8.78906-42.5781ZM14.5508-42.5781Q14.5508-47.6562 16.4307-52.0508Q18.3105-56.4453 21.6553-59.79Q25-63.1348 29.4189-65.0391Q33.8379-66.9434 38.916-66.9434Q43.9453-66.9434 48.3398-65.0391Q52.7344-63.1348 56.1035-59.79Q59.4727-56.4453 61.377-52.0508Q63.2812-47.6562 63.2812-42.5781Q63.2812-37.5488 61.377-33.1543Q59.4727-28.7598 56.1035-25.3906Q52.7344-22.0215 48.3398-20.1172Q43.9453-18.2129 38.916-18.2129Q33.8379-18.2129 29.4189-20.1172Q25-22.0215 21.6553-25.3906Q18.3105-28.7598 16.4307-33.1543Q14.5508-37.5488 14.5508-42.5781Z"/>
  </g>
  <g id="Thin-S" transform="matrix(1 0 0 1 811.281 696)">
   <path d="M8.78906-43.0664Q8.78906-37.1094 11.0596-31.8848Q13.3301-26.6602 17.2852-22.6807Q21.2402-18.7012 26.4648-16.4551Q31.6895-14.209 37.6465-14.209Q42.7246-14.209 47.29-15.8691Q51.8555-17.5293 55.5664-20.5078L76.5625 0.585938Q76.9531 0.976562 77.4902 1.19629Q78.0273 1.41602 78.6133 1.41602Q79.9316 1.41602 80.7129 0.561523Q81.4941-0.292969 81.4941-1.51367Q81.4941-2.09961 81.2744-2.58789Q81.0547-3.07617 80.6641-3.51562L59.668-24.5117Q62.8906-28.2715 64.6973-33.0322Q66.5039-37.793 66.5039-43.0664Q66.5039-49.0234 64.2578-54.248Q62.0117-59.4727 58.0322-63.4521Q54.0527-67.4316 48.8281-69.6777Q43.6035-71.9238 37.6465-71.9238Q31.6895-71.9238 26.4648-69.6777Q21.2402-67.4316 17.2852-63.4521Q13.3301-59.4727 11.0596-54.248Q8.78906-49.0234 8.78906-43.0664ZM12.207-43.0664Q12.207-48.291 14.1846-52.9053Q16.1621-57.5195 19.6777-61.0352Q23.1934-64.5508 27.7832-66.5283Q32.373-68.5059 37.6465-68.5059Q42.9199-68.5059 47.5098-66.5283Q52.0996-64.5508 55.6152-61.0352Q59.1309-57.5195 61.1084-52.9053Q63.0859-48.291 63.0859-43.0664Q63.0859-37.793 61.1084-33.2031Q59.1309-28.6133 55.6152-25.0977Q52.0996-21.582 47.5098-19.6045Q42.9199-17.627 37.6465-17.627Q32.373-17.627 27.7832-19.6045Q23.1934-21.582 19.6777-25.0977Q16.1621-28.6133 14.1846-33.2031Q12.207-37.793 12.207-43.0664Z"/>
  </g>
  <g id="Ultralight-S" transform="matrix(1 0 0 1 514.985 696)">
   <path d="M8.78906-43.3105Q8.78906-37.4512 11.0107-32.373Q13.2324-27.2949 17.1143-23.3887Q20.9961-19.4824 26.0742-17.2852Q31.1523-15.0879 37.0117-15.0879Q42.1387-15.0879 46.7285-16.7969Q51.3184-18.5059 54.9805-21.582L76.8066 0.341797Q77.0996 0.634766 77.5146 0.830078Q77.9297 1.02539 78.3691 1.02539Q79.4922 1.02539 80.0781 0.317383Q80.6641-0.390625 80.6641-1.31836Q80.6641-1.75781 80.5176-2.14844Q80.3711-2.53906 80.0293-2.88086L58.2031-24.7559Q61.4746-28.4668 63.3545-33.252Q65.2344-38.0371 65.2344-43.3105Q65.2344-49.1211 63.0371-54.2236Q60.8398-59.3262 56.958-63.2324Q53.0762-67.1387 47.9492-69.3359Q42.8223-71.5332 37.0117-71.5332Q31.1523-71.5332 26.0742-69.3359Q20.9961-67.1387 17.1143-63.2324Q13.2324-59.3262 11.0107-54.2236Q8.78906-49.1211 8.78906-43.3105ZM10.9863-43.3105Q10.9863-48.6816 13.0127-53.3691Q15.0391-58.0566 18.6279-61.6455Q22.2168-65.2344 26.9287-67.2852Q31.6406-69.3359 37.0117-69.3359Q42.3828-69.3359 47.0703-67.2852Q51.7578-65.2344 55.3467-61.6455Q58.9355-58.0566 60.9863-53.3691Q63.0371-48.6816 63.0371-43.3105Q63.0371-37.9395 60.9863-33.2275Q58.9355-28.5156 55.3467-24.9512Q51.7578-21.3867 47.0703-19.3359Q42.3828-17.2852 37.0117-17.2852Q31.6406-17.2852 26.9287-19.3359Q22.2168-21.3867 18.6279-24.9512Q15.0391-28.5156 13.0127-33.2275Q10.9863-37.9395 10.9863-43.3105Z"/>
  </g>
 </g>
</svg>
